<?xml version="1.0" encoding="UTF-8"?><svg xmlns="http://www.w3.org/2000/svg" viewBox="0 0 800 402.15"><defs><style>.cls-1{fill:#f7a491;}.cls-2{fill:#f48c7f;}.cls-3{fill:#f47458;}.cls-4{fill:#e8e8e8;}.cls-5{fill:#658a00;}.cls-6{fill:#995900;}.cls-7{fill:#98b300;}.cls-8{fill:#abc900;}.cls-9{fill:#13375b;}.cls-10{fill:#355389;}.cls-11{fill:#184655;}.cls-12{fill:#3c8f7c;}.cls-13{fill:#466eb6;}.cls-14{fill:#704100;}.cls-15{fill:#637500;}.cls-16{fill:#79a500;}.cls-17{fill:#829900;}.cls-18{fill:#50bfa5;}.cls-19{fill:#687a00;mix-blend-mode:multiply;opacity:.2;}.cls-20{isolation:isolate;}</style></defs><g class="cls-20"><g id="OBJECTS"><g><g><g><path class="cls-4" d="M224.32,272.22c0,5.91-12.03,10.7-26.87,10.7s-26.87-4.79-26.87-10.7,12.03-10.7,26.87-10.7,26.87,4.79,26.87,10.7Z"/><g><path class="cls-6" d="M204.8,264.87c0,4.06-3.29,7.35-7.35,7.35h0c-4.06,0-7.35-3.29-7.35-7.35v-45.07c0-4.06,3.29-7.35,7.35-7.35h0c4.06,0,7.35,3.29,7.35,7.35v45.07Z"/><path class="cls-14" d="M197.45,229.22c2.5,0,4.96-.21,7.35-.59v-8.82c0-4.06-3.29-7.35-7.35-7.35s-7.35,3.29-7.35,7.35v8.81c2.39,.38,4.84,.6,7.35,.6Z"/><path class="cls-8" d="M243.48,176.34c0,25.42-20.61,46.03-46.03,46.03h0c-25.42,0-46.03-20.61-46.03-46.03V103.16c0-25.42,20.61-46.03,46.03-46.03h0c25.42,0,46.03,20.61,46.03,46.03v73.19Z"/><path class="cls-7" d="M202.89,148.64l-19.11-70.65c-1.58-5.83-4.21-11.08-7.64-15.63-14.69,7.69-24.72,23.07-24.72,40.8v73.19c0,11.53,4.25,22.06,11.26,30.14,2.59-.24,5.19-.69,7.79-1.4,24.54-6.64,39.05-31.91,32.42-56.45Z"/><path class="cls-17" d="M201.09,117.74l-34.74,64.42c-3.79,7.03-5.56,14.61-5.52,22.07,8.41,11.03,21.68,18.15,36.62,18.15,25.42,0,46.03-20.61,46.03-46.03V103.16c0-3.29-.35-6.49-1.01-9.59-16.67-.3-32.92,8.48-41.38,24.17Z"/></g></g><path class="cls-19" d="M197.45,57.13c-7.69,0-14.93,1.9-21.31,5.23h0c-.45,.23-.89,.48-1.33,.72-.03,.02-.07,.04-.1,.06-1.29,.74-2.55,1.53-3.76,2.39-.06,.05-.13,.09-.19,.14-1.17,.83-2.3,1.72-3.38,2.66-.09,.07-.17,.15-.25,.22-.35,.31-.69,.61-1.03,.93-.02,.02-.04,.04-.06,.06-.65,.61-1.29,1.24-1.91,1.89-.1,.11-.21,.22-.31,.33-.28,.3-.56,.61-.84,.93-.13,.14-.25,.29-.38,.43-.46,.53-.91,1.08-1.34,1.63-.14,.17-.27,.34-.4,.51-.22,.29-.44,.59-.66,.89-.16,.22-.32,.44-.47,.67-.2,.28-.4,.57-.59,.86-.3,.45-.59,.91-.88,1.37-.16,.26-.32,.53-.48,.8-.18,.3-.35,.59-.51,.89-.15,.26-.29,.52-.43,.79-.26,.49-.52,.99-.76,1.49-.11,.22-.21,.45-.32,.68-.18,.39-.36,.78-.53,1.18-.1,.24-.2,.48-.3,.72-.19,.46-.38,.93-.55,1.4-.06,.17-.13,.34-.19,.51-.2,.56-.39,1.13-.57,1.7-.07,.21-.13,.43-.2,.64-.15,.48-.28,.97-.41,1.46-.04,.17-.09,.33-.13,.49-.16,.63-.31,1.27-.44,1.91-.04,.18-.07,.36-.1,.54-.1,.52-.2,1.04-.28,1.57-.03,.18-.06,.36-.09,.54-.1,.67-.19,1.34-.26,2.02-.01,.12-.02,.24-.03,.37-.06,.58-.1,1.16-.13,1.75-.01,.19-.02,.38-.03,.57-.03,.7-.05,1.4-.05,2.11v73.19c0,.76,.02,1.51,.06,2.26,.01,.26,.04,.52,.05,.78,.03,.49,.06,.97,.11,1.45,.03,.32,.07,.63,.11,.95,.05,.42,.1,.83,.16,1.24,.05,.35,.11,.69,.17,1.03,.06,.37,.13,.74,.2,1.11,.07,.37,.15,.73,.23,1.1,.07,.33,.15,.67,.23,1,.09,.39,.19,.77,.3,1.16,.08,.29,.16,.59,.25,.88,.12,.41,.24,.82,.38,1.23,.08,.24,.16,.49,.25,.73,.15,.45,.31,.89,.47,1.33,.06,.17,.13,.33,.2,.5,.2,.51,.4,1.01,.61,1.51,0,0,0,.02,.01,.03,1.82,4.21,4.26,8.09,7.19,11.53,.07,.08,.13,.16,.2,.23,.03,.03,.05,.06,.08,.1,0,0,0,0,0,0h0c.45,.52,.92,1.04,1.4,1.54,.08,.09,.17,.18,.25,.27,.52,.54,1.05,1.07,1.6,1.58,.06,.06,.12,.12,.19,.18,1.85,1.72,3.85,3.3,5.97,4.7,.11,.07,.22,.14,.34,.22,.57,.37,1.16,.73,1.75,1.08,.18,.1,.35,.2,.53,.3,.55,.31,1.1,.61,1.66,.9,.2,.1,.39,.2,.59,.3,.57,.29,1.16,.56,1.74,.82,.18,.08,.35,.16,.53,.24,.74,.32,1.49,.62,2.25,.9,.02,0,.04,.02,.06,.02,.8,.29,1.6,.56,2.42,.81,.17,.05,.34,.09,.51,.14,.63,.18,1.25,.36,1.89,.52,.27,.07,.55,.13,.82,.19,.54,.12,1.09,.24,1.64,.35,.31,.06,.61,.11,.92,.16,.12,.02,.25,.05,.37,.07v43.09c0,4.06,3.29,7.35,7.35,7.35V57.13Z"/></g><g><g><ellipse class="cls-4" cx="454.94" cy="263.41" rx="26.87" ry="10.7"/><g><path class="cls-6" d="M462.29,257.31c0,4.06-3.29,7.35-7.35,7.35h0c-4.06,0-7.35-3.29-7.35-7.35v-69.79c0-4.06,3.29-7.35,7.35-7.35h0c4.06,0,7.35,3.29,7.35,7.35v69.79Z"/><path class="cls-14" d="M454.94,205.65c2.54,0,5-.33,7.35-.95v-17.19c0-4.06-3.29-7.35-7.35-7.35s-7.35,3.29-7.35,7.35v17.19c2.35,.61,4.81,.95,7.35,.95Z"/><path class="cls-17" d="M499.47,121.59c11.34-3.94,19.49-14.72,19.49-27.41,0-16.03-12.99-29.02-29.02-29.02-2.49,0-4.91,.32-7.22,.91-3.61-11.92-14.68-20.59-27.77-20.59s-24.16,8.68-27.77,20.59c-2.31-.59-4.73-.91-7.22-.91-16.03,0-29.02,12.99-29.02,29.02,0,12.69,8.14,23.46,19.49,27.41-11.34,3.95-19.49,14.72-19.49,27.41,0,16.02,12.99,29.02,29.02,29.02,2.46,0,4.85-.31,7.13-.89,3.51,12.07,14.65,20.9,27.86,20.9s24.35-8.82,27.86-20.9c2.28,.58,4.67,.89,7.13,.89,16.03,0,29.02-12.99,29.02-29.02,0-12.69-8.14-23.47-19.49-27.41Z"/><path class="cls-7" d="M495.41,177.5c4.63-12.16,.54-25.52-9.22-33.16,1.39-1.94,2.55-4.08,3.46-6.4,5.8-14.94-1.62-31.76-16.56-37.55-11.83-4.59-24.82-.89-32.6,8.25,.42-12-6.68-23.49-18.51-28.08-10.54-4.09-22.02-1.6-29.89,5.48-.76,2.59-1.17,5.32-1.17,8.15,0,12.69,8.14,23.46,19.49,27.41-11.34,3.95-19.49,14.72-19.49,27.41,0,16.02,12.99,29.02,29.02,29.02,2.46,0,4.85-.31,7.13-.89,3.51,12.07,14.65,20.9,27.86,20.9s24.35-8.82,27.86-20.9c2.28,.58,4.67,.89,7.13,.89,1.88,0,3.71-.18,5.48-.52Z"/><path class="cls-8" d="M518.95,149c0-12.69-8.14-23.47-19.49-27.41,5.02-1.75,9.41-4.83,12.75-8.83-8.59-6.05-20.17-7.22-30.14-2.04-11.25,5.86-17.05,18.06-15.31,29.94-8.74-8.24-22.06-10.48-33.31-4.62-14.21,7.4-19.74,24.93-12.34,39.14,.49,.94,1.03,1.83,1.61,2.7,1.49-.14,2.95-.39,4.36-.74,3.51,12.07,14.65,20.9,27.86,20.9s24.35-8.82,27.86-20.9c2.28,.58,4.67,.89,7.13,.89,16.03,0,29.02-12.99,29.02-29.02Z"/></g></g><path class="cls-19" d="M454.94,45.47c-13.1,0-24.16,8.68-27.77,20.59-2.31-.59-4.73-.91-7.22-.91-14.6,0-26.68,10.79-28.71,24.83,0,.03,0,.07-.01,.1-.08,.58-.14,1.16-.19,1.75-.01,.15-.02,.29-.03,.44-.04,.63-.07,1.27-.07,1.91,0,12.69,8.14,23.46,19.49,27.41-11.34,3.95-19.49,14.72-19.49,27.41,0,16.02,12.99,29.02,29.02,29.02,.94,0,1.86-.06,2.77-.15h.02c.7-.07,1.4-.16,2.09-.28,.05,0,.1-.02,.16-.02,.71-.12,1.41-.26,2.1-.44,2.84,9.75,10.65,17.38,20.51,19.95v60.22c0,4.06,3.29,7.35,7.35,7.35V45.47Z"/></g><g><g><path class="cls-4" d="M351.75,333.04c0,5.91-12.03,10.7-26.87,10.7s-26.87-4.79-26.87-10.7,12.03-10.7,26.87-10.7,26.87,4.79,26.87,10.7Z"/><g><path class="cls-16" d="M369.96,165.52c0,24.9-20.18,45.08-45.08,45.08s-45.08-20.19-45.08-45.08,20.19-45.08,45.08-45.08,45.08,20.18,45.08,45.08Z"/><path class="cls-5" d="M310.3,198.29c0,3.54,.42,6.98,1.19,10.28,4.23,1.31,8.73,2.02,13.39,2.02,24.9,0,45.08-20.19,45.08-45.08,0-3.54-.42-6.98-1.19-10.28-4.23-1.32-8.73-2.02-13.39-2.02-24.9,0-45.08,20.19-45.08,45.08Z"/><path class="cls-15" d="M290.91,145.92c-2.34,0-4.64,.18-6.88,.52-2.71,5.79-4.24,12.26-4.24,19.08,0,24.9,20.19,45.08,45.08,45.08,2.34,0,4.64-.18,6.88-.52,2.71-5.79,4.23-12.26,4.23-19.08,0-24.9-20.18-45.08-45.08-45.08Z"/><path class="cls-6" d="M332.23,325.69c0,4.06-3.29,7.35-7.35,7.35h0c-4.06,0-7.35-3.29-7.35-7.35v-63.5c0-4.06,3.29-7.35,7.35-7.35h0c4.06,0,7.35,3.29,7.35,7.35v63.5Z"/><path class="cls-14" d="M324.88,254.85c-4.06,0-7.35,3.29-7.35,7.35v29.07c2.41,.32,4.86,.5,7.35,.5s4.94-.18,7.35-.5v-29.07c0-4.06-3.29-7.35-7.35-7.35Z"/><path class="cls-16" d="M379.96,225.63c0,30.42-24.66,55.08-55.08,55.08s-55.08-24.66-55.08-55.08,24.66-55.08,55.08-55.08,55.08,24.66,55.08,55.08Z"/><path class="cls-5" d="M307.06,265.68c0,4.32,.51,8.53,1.46,12.56,5.17,1.61,10.66,2.47,16.36,2.47,30.42,0,55.08-24.66,55.08-55.08,0-4.32-.51-8.53-1.46-12.56-5.17-1.61-10.66-2.47-16.36-2.47-30.42,0-55.08,24.66-55.08,55.08Z"/><path class="cls-15" d="M283.38,201.69c-2.86,0-5.66,.22-8.4,.64-3.31,7.08-5.17,14.97-5.17,23.31,0,30.42,24.66,55.08,55.08,55.08,2.86,0,5.66-.22,8.4-.64,3.31-7.08,5.17-14.98,5.17-23.31,0-30.42-24.66-55.08-55.08-55.08Z"/></g></g><path class="cls-19" d="M324.88,120.43c-18.9,0-35.08,11.64-41.78,28.14-.03,.07-.06,.15-.09,.22-.26,.64-.5,1.29-.73,1.95-.05,.13-.09,.27-.13,.4-.2,.6-.39,1.2-.57,1.81-.05,.18-.1,.36-.15,.54-.16,.57-.3,1.14-.44,1.72-.05,.22-.1,.43-.15,.65-.12,.55-.22,1.1-.32,1.65-.04,.25-.09,.49-.13,.74-.09,.54-.16,1.09-.23,1.63-.03,.26-.07,.51-.1,.77-.06,.57-.1,1.14-.14,1.71-.02,.24-.04,.47-.05,.71-.04,.81-.07,1.62-.07,2.44,0,7.89,2.03,15.3,5.59,21.74-4.26,4.38-7.79,9.47-10.41,15.07h0s0,0,0,0c-.4,.85-.77,1.72-1.13,2.59-.04,.09-.07,.18-.11,.27-.31,.79-.61,1.58-.89,2.38-.06,.16-.11,.32-.16,.48-.25,.74-.48,1.48-.7,2.23-.06,.21-.12,.43-.18,.64-.19,.7-.37,1.4-.54,2.12-.06,.26-.12,.52-.18,.78-.15,.67-.28,1.35-.4,2.04-.05,.29-.11,.58-.16,.88-.11,.67-.2,1.34-.28,2.01-.04,.31-.08,.62-.12,.93-.07,.7-.13,1.4-.18,2.1-.02,.29-.05,.57-.06,.86-.05,.99-.08,1.98-.08,2.99,0,24.72,16.29,45.64,38.72,52.61h0c.77,.24,1.55,.46,2.34,.66,.23,.06,.47,.12,.7,.18,.59,.15,1.18,.28,1.77,.41,.24,.05,.48,.1,.73,.15,.79,.16,1.59,.3,2.39,.43,.02,0,.03,0,.05,0,.34,.05,.69,.09,1.03,.14v45.47c0,4.06,3.29,7.35,7.35,7.35V120.43Z"/></g></g><g><ellipse class="cls-4" cx="693.55" cy="327.6" rx="22.73" ry="10.42"/><g><path class="cls-2" d="M680.13,270.94c1.61-.47,1.66-.18,1.86-.24,.24-.08,2.19-2.72,2.19-2.72,0,0,5.81-7.75,6.11-8.18l1.83-10.03,5.51-.04s-2.3,10.83-2.53,11.37-9.44,10.01-10.22,10.87c0,0-.5,1.4-.85,2.27-.35,.87-1.09,1.5-1.23,1.72-.02,.03-.53,.75-1.42,1.46-.76,.6-.36-.34-.36-.34,0,0,1.18-1.39,1.04-1.47-.11-.06-.7,.74-1.54,1.41-.22,.17-.43,.35-.63,.5-.52,.41-.96,.19-.49-.33,.16-.18,.44-.48,.68-.66,.25-.2,.41-.46,.59-.66,.36-.39,.63-.68,.61-.68-.03,0-.02-.14-.26,.04-.28,.21-.77,.81-1.21,1.09-.25,.16-.75,.52-.75,.52,0,0-.88,.4-.93,.36-.25-.24,.25-.69,.63-.86,.17-.23,.71-.6,.71-.6,0,0,.9-1,.74-1.14-.07-.06-.7,.48-1.42,.91-.67,.4-1.42,.69-1.53,.56-.19-.21,.49-.73,.49-.73,0,0,.5-.34,.66-.47,.18-.15,.69-.63,.69-.63,0,0,1.68-1.78,1.52-1.9-.16-.12-.68-.28-.83-.21-.15,.07-.33,.35-.48,.42-.15,.07-.42,.04-.54-.14-.12-.18,.43-.8,.43-.8,0,0,.45-.5,.92-.64Z"/><path class="cls-1" d="M689.27,321.27s.2,3.46,.2,3.47c.07,.44,.36,1.53,.36,1.92,0,1.5-6.68-1.27-5.18-1.94,.14-.06,.85-.52,.89-1.03,.07-.79,.24-2.38,.24-2.38l3.5-.05Z"/><path class="cls-11" d="M684.66,324.71s1.57,.46,2.37,.57c.8,.11,1.86-.85,2.43-.59,.63,.29,.56,3.12,.56,3.12,0,0-8.37,.49-10.73-.27-.94-.3,2.17-1.76,5.37-2.83Z"/><path class="cls-1" d="M703.98,321.6s.2,3.46,.2,3.47c.07,.44,.36,1.53,.36,1.92,0,1.5-6.68-1.27-5.18-1.94,.14-.06,1.06-.86,1.1-1.37,.07-.79,.03-2.04,.03-2.04l3.5-.05Z"/><path class="cls-11" d="M699.37,325.04s1.57,.46,2.37,.57c.8,.11,1.86-.85,2.43-.59,.63,.29,.65,2.87,.65,2.87,0,0-8.95,.65-11.05,.04-.95-.27,2.39-1.83,5.6-2.9Z"/><path class="cls-10" d="M693.4,271.64l-2.82,1.22-5.94,28.36,.24,21.26,4.76,.11s2.21-18.6,2.21-20.04,10.26-25.22,10.26-25.22l-8.71-5.69Z"/><path class="cls-13" d="M695.58,273.2s2.08,21.85,2.08,25.53,1.69,24.3,1.69,24.3l4.77-.03s.34-6.28,.86-15.53c.08-1.45-.1-4.37,0-5.87,.74-10.78,2.21-20.93,1.51-24.95-.11-.65-.32-2.34-.74-2.77-3.12-3.23-10.16-.69-10.16-.69Z"/><path class="cls-12" d="M689.76,255.96l5.77-.39s.28-5.16,.28-7.62c0-2.99,.91-7.39,.55-7.31-1,.23-2.72,1.15-3.52,2.27-2.77,3.86-3.09,13.05-3.09,13.05Z"/><path class="cls-18" d="M703.44,240.52s3.29,.46,4.16,1.09c.98,.72,2.06,2.32,2.06,2.32,0,0-4.04,19.11-4.05,22.32,0,2.49,.88,8.6,.88,8.6,0,0-12.22,.77-16.84-1.06,0,0,1.46-7.26,1.46-9.17s1.75-19.25,2.15-20.47c.36-1.1,1.02-3.07,3.25-3.56,2.23-.49,6.94-.08,6.94-.08Z"/><path class="cls-1" d="M702.54,235.38l.82,5.34s-2.98,6.35-4.75,5.8c-1.49-.46-.57-6.08-.57-6.08,0,0,.81-3.02,.57-4.53-.24-1.51,3.94-.52,3.94-.52Z"/><path class="cls-3" d="M698.6,235.9c-.24-1.51,3.94-.52,3.94-.52l.07,.44c-.12,.3-.27,.55-.45,.74-.94,1-2.4,1.6-3.66,1.65,.13-.81,.2-1.69,.1-2.31Z"/><g><path class="cls-1" d="M703.23,227.83c.12-.04,.95,6.08-.63,7.76-1.58,1.68-4.64,2.24-5.75,.91-1.22-1.47-1.16-8.04,1.29-9.78,2.45-1.73,5.08,1.11,5.08,1.11Z"/><path class="cls-9" d="M699.08,223.45c1.89,.38,3.12,1.53,3.57,2.02,.86,.1,2.03,.57,3.23,2.56,1.48,2.44,.39,5.14-1.34,6.47-1.73,1.33-1.71,2.87-1.71,2.87l-.27-.8c-.2-.6-.28-1.24-.22-1.87,.04-.38,.12-.79,.28-1.12,.42-.89-.89-1.47-1.26-2.21-.28-.57-.3-1.87-.74-2.8l-.53-.72s-1.23-.95-2.42-.68c-1.2,.27-1.03-4.21,1.4-3.72Z"/><path class="cls-1" d="M701.45,232.45c-.01,.75,.33,1.36,.76,1.37,.43,0,.8-.59,.81-1.34,.01-.75-.33-1.36-.76-1.37-.43,0-.8,.59-.81,1.34Z"/></g><rect class="cls-9" x="689.2" y="254.08" width="1.32" height="10.44" rx=".43" ry=".43" transform="translate(316.57 894.75) rotate(-80.17)"/><path class="cls-1" d="M708.43,242.98c-1.11-.03-2.09,7.28-1.39,8,.7,.72,.84,9.72,.84,9.72l-10.45-.26h0c-.2-.13-2.39-1.6-2.71-1.92-.33-.34-1.92-.17-2.35,.29-.42,.46,.94,.08,1.31,.34,.38,.25-.28,.89-.28,.89,0,0-2.65,.38-3.16-.16-.52-.55-1.9-1.48-2.08-.93-.1,.28,.61,1.14,1.02,1.5-.5-.37-1.1-.77-1.3-.7-.38,.13-.22,.6-.02,.74,.2,.14,2.31,1.75,2.63,1.86,.32,.11,5.21,.23,6.06,.42,0,0,13.78,3.14,14.57,2.94,.69-.17,1.37-4.58,1.37-7.96s-.59-14.66-4.06-14.76Z"/><path class="cls-18" d="M706.99,241.32s1.93,.44,3.92,2.68c1.81,2.04,2.95,13.43,2.95,13.43l-6.25,1.01-.5-5.51-1.67-2.52,1.55-9.09Z"/></g></g></g></g></svg>