<?xml version="1.0" encoding="UTF-8"?><svg xmlns="http://www.w3.org/2000/svg" viewBox="0 0 800 402.15"><defs><style>.cls-1{fill:#f99662;}.cls-2{fill:#f7cc7f;}.cls-3{fill:#021753;}.cls-4{fill:#ebc98d;}.cls-5{fill:#fff;}.cls-6{fill:#e8e8e8;}.cls-7{fill:#fae0b2;}.cls-8{fill:#ebce9a;}.cls-9{fill:#ff7446;}.cls-10{fill:#658a00;}.cls-11{fill:#995900;}.cls-12{fill:#98b300;}.cls-13{fill:#9cb9bd;}.cls-14{fill:#db9044;}.cls-15{fill:#abc900;}.cls-16{fill:#422f7f;}.cls-17{fill:#704100;}.cls-18{fill:#637500;}.cls-19{fill:#79a500;}.cls-20{fill:#829900;}.cls-21{fill:#271798;}.cls-22{fill:#687a00;opacity:.2;}.cls-22,.cls-23{mix-blend-mode:multiply;}.cls-23{fill:#f26e5a;opacity:.4;}.cls-24{isolation:isolate;}</style></defs><g class="cls-24"><g id="OBJECTS"><g><g><path class="cls-6" d="M145.43,252.27c0,5.27-10.74,9.55-23.98,9.55s-23.98-4.27-23.98-9.55,10.74-9.55,23.98-9.55,23.98,4.27,23.98,9.55Z"/><g><path class="cls-11" d="M128.01,245.71c0,3.62-2.94,6.56-6.56,6.56h0c-3.62,0-6.56-2.94-6.56-6.56v-40.22c0-3.62,2.94-6.56,6.56-6.56h0c3.62,0,6.56,2.94,6.56,6.56v40.22Z"/><path class="cls-17" d="M121.45,213.9c2.23,0,4.42-.18,6.56-.53v-7.87c0-3.62-2.94-6.56-6.56-6.56s-6.56,2.94-6.56,6.56v7.86c2.14,.34,4.32,.54,6.56,.54Z"/><path class="cls-15" d="M162.52,166.71c0,22.68-18.39,41.07-41.08,41.07h0c-22.68,0-41.07-18.39-41.07-41.07V101.41c0-22.68,18.39-41.08,41.07-41.08h0c22.69,0,41.08,18.39,41.08,41.08v65.31Z"/><path class="cls-12" d="M126.3,141.99l-17.05-63.04c-1.41-5.2-3.76-9.89-6.81-13.95-13.11,6.86-22.06,20.58-22.06,36.41v65.31c0,10.29,3.79,19.69,10.05,26.9,2.31-.22,4.64-.62,6.95-1.25,21.9-5.92,34.85-28.48,28.93-50.37Z"/><path class="cls-20" d="M124.7,114.42l-31,57.48c-3.38,6.27-4.96,13.04-4.93,19.69,7.5,9.84,19.35,16.2,32.68,16.2,22.69,0,41.08-18.39,41.08-41.07V101.41c0-2.93-.31-5.79-.9-8.55-14.87-.27-29.38,7.57-36.92,21.57Z"/></g></g><path class="cls-22" d="M121.45,60.33c-6.86,0-13.33,1.69-19.01,4.67h0c-.4,.21-.79,.43-1.19,.65-.03,.02-.06,.04-.09,.05-1.15,.66-2.27,1.37-3.35,2.13-.06,.04-.11,.08-.17,.12-1.04,.74-2.05,1.54-3.02,2.37-.08,.07-.15,.13-.23,.2-.31,.27-.62,.55-.92,.83-.02,.02-.04,.04-.06,.05-.58,.55-1.15,1.11-1.7,1.69-.09,.1-.19,.19-.28,.29-.25,.27-.5,.55-.75,.83-.11,.13-.22,.26-.33,.39-.41,.48-.81,.96-1.2,1.46-.12,.15-.24,.3-.36,.46-.2,.26-.39,.53-.59,.79-.14,.2-.28,.4-.42,.6-.18,.25-.36,.51-.53,.76-.27,.4-.53,.81-.78,1.22-.15,.24-.28,.47-.42,.71-.16,.26-.31,.53-.46,.8-.13,.23-.26,.47-.39,.7-.23,.44-.46,.88-.68,1.33-.1,.2-.19,.4-.29,.61-.16,.35-.32,.7-.48,1.05-.09,.21-.18,.42-.27,.64-.17,.41-.33,.83-.49,1.25-.06,.15-.12,.3-.17,.46-.18,.5-.35,1.01-.51,1.51-.06,.19-.12,.38-.18,.57-.13,.43-.25,.86-.37,1.3-.04,.15-.08,.29-.12,.44-.14,.56-.27,1.13-.39,1.71-.03,.16-.06,.32-.09,.48-.09,.46-.17,.93-.25,1.4-.03,.16-.05,.32-.08,.48-.09,.6-.17,1.2-.23,1.8-.01,.11-.02,.22-.03,.33-.05,.52-.09,1.04-.12,1.56,0,.17-.02,.34-.03,.51-.03,.63-.05,1.25-.05,1.88v65.31c0,.68,.02,1.35,.05,2.02,.01,.23,.03,.46,.05,.69,.03,.43,.06,.87,.1,1.3,.03,.28,.06,.56,.1,.84,.04,.37,.09,.74,.14,1.11,.05,.31,.1,.62,.15,.92,.06,.33,.11,.66,.18,.99,.06,.33,.13,.65,.21,.98,.07,.3,.13,.6,.21,.89,.08,.35,.17,.69,.26,1.03,.07,.26,.15,.52,.22,.78,.11,.37,.22,.73,.34,1.1,.07,.22,.14,.43,.22,.65,.14,.4,.27,.79,.42,1.19,.06,.15,.12,.3,.17,.45,.18,.45,.36,.9,.55,1.35,0,0,0,.02,0,.02,1.63,3.75,3.8,7.22,6.42,10.29,.06,.07,.12,.14,.18,.21,.02,.03,.05,.06,.07,.09,0,0,0,0,0,0h0c.41,.47,.82,.92,1.25,1.37,.08,.08,.15,.16,.23,.24,.46,.48,.94,.95,1.43,1.41,.06,.05,.11,.11,.17,.16,1.66,1.54,3.43,2.94,5.33,4.19,.1,.07,.2,.13,.3,.19,.51,.33,1.03,.66,1.56,.97,.16,.09,.31,.18,.47,.27,.49,.28,.98,.54,1.48,.8,.17,.09,.35,.18,.53,.27,.51,.26,1.03,.5,1.55,.73,.16,.07,.31,.15,.47,.21,.66,.29,1.33,.56,2,.81,.02,0,.04,.01,.06,.02,.71,.26,1.43,.5,2.16,.73,.15,.05,.3,.08,.45,.13,.56,.16,1.12,.32,1.69,.46,.24,.06,.49,.11,.74,.17,.49,.11,.97,.21,1.46,.31,.27,.05,.55,.1,.82,.15,.11,.02,.22,.04,.33,.06v38.45c0,3.62,2.94,6.56,6.56,6.56V60.33Z"/></g><g><g><path class="cls-6" d="M436.8,237.31c0,5.27-10.74,9.55-23.98,9.55s-23.98-4.27-23.98-9.55,10.74-9.55,23.98-9.55,23.98,4.27,23.98,9.55Z"/><g><path class="cls-11" d="M419.38,230.75c0,3.62-2.93,6.56-6.56,6.56h0c-3.62,0-6.56-2.94-6.56-6.56v-56.66c0-3.62,2.94-6.56,6.56-6.56h0c3.62,0,6.56,2.94,6.56,6.56v56.66Z"/><path class="cls-17" d="M419.38,200.43v-26.34c0-3.62-2.93-6.56-6.56-6.56s-6.56,2.94-6.56,6.56v26.34h13.12Z"/><polygon class="cls-18" points="412.82 102.5 461.98 190.85 363.67 190.85 412.82 102.5"/><polygon class="cls-10" points="412.82 60.09 469.84 162.58 355.81 162.58 412.82 60.09"/><polygon class="cls-19" points="412.82 41.36 451.75 111.33 373.89 111.33 412.82 41.36"/></g></g><path class="cls-22" d="M412.82,41.36l-38.93,69.98h10.42l-28.51,51.24h23.59l-15.73,28.27h42.59v39.9c0,3.62,2.94,6.56,6.56,6.56V41.36Z"/></g><g><g><ellipse class="cls-6" cx="262.8" cy="221.77" rx="23.98" ry="9.55"/><g><path class="cls-11" d="M269.36,216.32c0,3.62-2.94,6.56-6.56,6.56h0c-3.62,0-6.56-2.94-6.56-6.56v-62.28c0-3.62,2.94-6.56,6.56-6.56h0c3.62,0,6.56,2.94,6.56,6.56v62.28Z"/><path class="cls-17" d="M262.8,170.23c2.27,0,4.46-.3,6.56-.84v-15.34c0-3.62-2.94-6.56-6.56-6.56s-6.56,2.94-6.56,6.56v15.34c2.09,.55,4.29,.84,6.56,.84Z"/><path class="cls-20" d="M302.54,95.21c10.12-3.52,17.39-13.14,17.39-24.46,0-14.3-11.59-25.9-25.9-25.9-2.22,0-4.38,.28-6.44,.81-3.22-10.63-13.1-18.38-24.78-18.38s-21.56,7.74-24.78,18.38c-2.06-.53-4.22-.81-6.44-.81-14.3,0-25.9,11.59-25.9,25.9,0,11.32,7.27,20.94,17.39,24.46-10.12,3.52-17.39,13.14-17.39,24.46,0,14.3,11.59,25.9,25.9,25.9,2.2,0,4.33-.28,6.37-.79,3.13,10.77,13.08,18.65,24.86,18.65s21.73-7.88,24.86-18.65c2.04,.51,4.17,.79,6.37,.79,14.3,0,25.9-11.6,25.9-25.9,0-11.32-7.27-20.94-17.39-24.46Z"/><path class="cls-12" d="M298.92,145.11c4.13-10.85,.48-22.77-8.22-29.59,1.24-1.73,2.28-3.64,3.08-5.71,5.17-13.33-1.44-28.34-14.78-33.51-10.55-4.09-22.15-.8-29.09,7.37,.38-10.71-5.96-20.96-16.52-25.06-9.41-3.65-19.65-1.42-26.67,4.89-.67,2.31-1.04,4.75-1.04,7.27,0,11.32,7.27,20.94,17.39,24.46-10.12,3.52-17.39,13.14-17.39,24.46,0,14.3,11.59,25.9,25.9,25.9,2.2,0,4.33-.28,6.37-.79,3.13,10.77,13.08,18.65,24.86,18.65s21.73-7.88,24.86-18.65c2.04,.51,4.17,.79,6.37,.79,1.67,0,3.31-.16,4.89-.47Z"/><path class="cls-15" d="M319.93,119.68c0-11.32-7.27-20.94-17.39-24.46,4.48-1.56,8.4-4.31,11.37-7.88-7.66-5.4-18-6.45-26.89-1.82-10.04,5.23-15.22,16.12-13.66,26.72-7.8-7.35-19.68-9.36-29.73-4.13-12.68,6.6-17.62,22.24-11.01,34.93,.44,.84,.92,1.63,1.43,2.41,1.33-.13,2.63-.34,3.89-.66,3.13,10.77,13.08,18.65,24.86,18.65s21.73-7.88,24.86-18.65c2.04,.51,4.17,.79,6.37,.79,14.3,0,25.9-11.6,25.9-25.9Z"/></g></g><path class="cls-22" d="M262.8,27.29c-11.69,0-21.56,7.74-24.78,18.38-2.06-.53-4.22-.81-6.44-.81-13.03,0-23.81,9.63-25.62,22.16,0,.03,0,.06-.01,.09-.07,.52-.13,1.04-.17,1.56-.01,.13-.02,.26-.03,.39-.04,.56-.06,1.13-.06,1.7,0,11.32,7.27,20.94,17.39,24.46-10.12,3.52-17.39,13.14-17.39,24.46,0,14.3,11.59,25.9,25.9,25.9,.83,0,1.66-.05,2.47-.13h.01c.63-.06,1.25-.14,1.87-.25,.05,0,.09-.01,.14-.02,.63-.11,1.26-.24,1.88-.39,2.53,8.7,9.51,15.51,18.3,17.8v53.74c0,3.62,2.94,6.56,6.56,6.56V27.29Z"/></g><g><g><ellipse class="cls-6" cx="329.13" cy="354.5" rx="23.98" ry="9.55"/><g><path class="cls-11" d="M335.69,349.05c0,3.62-2.93,6.56-6.56,6.56h0c-3.62,0-6.56-2.94-6.56-6.56v-60.84c0-3.62,2.94-6.56,6.56-6.56h0c3.62,0,6.56,2.94,6.56,6.56v60.84Z"/><path class="cls-17" d="M335.69,306.98v-18.78c0-3.62-2.93-6.56-6.56-6.56s-6.56,2.94-6.56,6.56v18.78h13.12Z"/><path class="cls-18" d="M307.54,166.17h43.18c24.69,0,44.74,20.05,44.74,44.74v43.18c0,24.69-20.05,44.74-44.74,44.74h-43.18c-24.69,0-44.74-20.05-44.74-44.74v-43.18c0-24.69,20.05-44.74,44.74-44.74Z"/><path class="cls-10" d="M328.94,198.14c-16.39-18.37-44.52-20.03-62.96-3.78-2.04,5.12-3.17,10.7-3.17,16.55v43.18c0,24.71,20.03,44.74,44.74,44.74h40.6l5.94-5.29c18.44-16.45,20.05-44.73,3.6-63.17l-28.74-32.22Z"/><path class="cls-19" d="M380.07,226.66c-22.52-10.17-49.02-.16-59.19,22.36l-17.77,39.35c-1.45,3.21-2.48,6.51-3.13,9.82,2.46,.42,4.99,.65,7.57,.65h43.18c24.71,0,44.74-20.03,44.74-44.74v-20.48l-15.39-6.95Z"/></g></g><path class="cls-22" d="M327.37,166.17h-19.83c-19.59,0-36.23,12.6-42.29,30.13,0,0,0,.01,0,.02-.22,.64-.43,1.29-.62,1.94-.01,.04-.02,.07-.03,.11-.18,.62-.35,1.25-.51,1.88-.02,.08-.04,.17-.06,.26-.14,.59-.27,1.18-.39,1.78-.03,.15-.05,.31-.08,.46-.1,.54-.2,1.08-.28,1.62-.04,.24-.06,.49-.09,.73-.06,.46-.12,.93-.17,1.4-.04,.38-.06,.75-.08,1.13-.03,.35-.06,.7-.08,1.05-.04,.74-.06,1.48-.06,2.23v43.18c0,22.72,16.94,41.47,38.88,44.35,.11,.02,.23,.03,.34,.04,.5,.06,.99,.12,1.49,.16,.28,.03,.55,.04,.83,.06,.37,.03,.75,.06,1.12,.07,.69,.03,1.38,.05,2.08,.05h15.03v50.22c0,3.01,2.03,5.54,4.79,6.31V166.17Z"/></g><g><g><path class="cls-6" d="M208.29,333.83c0,5.27-10.74,9.55-23.98,9.55s-23.98-4.27-23.98-9.55,10.74-9.55,23.98-9.55,23.98,4.27,23.98,9.55Z"/><g><path class="cls-19" d="M224.54,184.34c0,22.22-18.01,40.23-40.23,40.23s-40.23-18.01-40.23-40.23,18.01-40.23,40.23-40.23,40.23,18.01,40.23,40.23Z"/><path class="cls-10" d="M171.29,213.59c0,3.16,.37,6.23,1.06,9.18,3.78,1.17,7.79,1.81,11.95,1.81,22.22,0,40.23-18.01,40.23-40.23,0-3.16-.38-6.23-1.06-9.17-3.78-1.17-7.79-1.81-11.95-1.81-22.22,0-40.23,18.01-40.23,40.23Z"/><path class="cls-18" d="M153.99,166.85c-2.09,0-4.14,.16-6.14,.47-2.42,5.17-3.78,10.94-3.78,17.02,0,22.22,18.01,40.23,40.23,40.23,2.09,0,4.14-.16,6.14-.47,2.42-5.17,3.78-10.94,3.78-17.02,0-22.22-18.01-40.23-40.23-40.23Z"/><path class="cls-11" d="M190.86,327.27c0,3.62-2.94,6.56-6.56,6.56h0c-3.62,0-6.56-2.94-6.56-6.56v-56.66c0-3.62,2.94-6.56,6.56-6.56h0c3.62,0,6.56,2.94,6.56,6.56v56.66Z"/><path class="cls-17" d="M184.31,264.05c-3.62,0-6.56,2.94-6.56,6.56v25.94c2.15,.29,4.33,.45,6.56,.45s4.41-.16,6.56-.45v-25.94c0-3.62-2.94-6.56-6.56-6.56Z"/><path class="cls-19" d="M233.46,237.98c0,27.15-22.01,49.15-49.15,49.15s-49.15-22.01-49.15-49.15,22.01-49.15,49.15-49.15,49.15,22.01,49.15,49.15Z"/><path class="cls-10" d="M168.41,273.72c0,3.86,.46,7.61,1.3,11.21,4.61,1.43,9.52,2.21,14.6,2.21,27.15,0,49.15-22.01,49.15-49.15,0-3.86-.46-7.61-1.3-11.21-4.61-1.43-9.52-2.21-14.6-2.21-27.15,0-49.15,22.01-49.15,49.15Z"/><path class="cls-18" d="M147.27,216.62c-2.55,0-5.05,.19-7.5,.57-2.96,6.32-4.62,13.36-4.62,20.8,0,27.15,22.01,49.15,49.15,49.15,2.55,0,5.05-.19,7.5-.57,2.96-6.32,4.62-13.36,4.62-20.8,0-27.15-22.01-49.15-49.15-49.15Z"/></g></g><path class="cls-22" d="M184.31,144.11c-16.87,0-31.3,10.39-37.28,25.11-.03,.07-.05,.13-.08,.2-.23,.57-.45,1.15-.65,1.74-.04,.12-.08,.24-.12,.36-.18,.53-.35,1.07-.51,1.62-.05,.16-.09,.32-.14,.48-.14,.51-.27,1.02-.39,1.53-.04,.19-.09,.39-.13,.58-.11,.49-.2,.98-.29,1.47-.04,.22-.08,.44-.12,.66-.08,.48-.14,.97-.2,1.46-.03,.23-.06,.46-.09,.69-.05,.51-.09,1.02-.13,1.53-.01,.21-.04,.42-.05,.63-.04,.72-.06,1.45-.06,2.18,0,7.04,1.81,13.65,4.99,19.4-3.8,3.91-6.95,8.45-9.29,13.44h0s0,0,0,0c-.36,.76-.69,1.53-1.01,2.31-.03,.08-.06,.16-.1,.24-.28,.7-.54,1.41-.79,2.13-.05,.14-.1,.28-.14,.43-.22,.66-.43,1.32-.62,1.99-.05,.19-.11,.38-.16,.57-.17,.62-.33,1.25-.48,1.89-.05,.23-.11,.46-.16,.69-.13,.6-.25,1.21-.36,1.82-.05,.26-.1,.52-.14,.79-.1,.59-.18,1.19-.25,1.79-.04,.28-.08,.55-.11,.83-.07,.62-.11,1.25-.16,1.88-.02,.26-.04,.51-.06,.77-.05,.88-.08,1.77-.08,2.66,0,22.06,14.54,40.73,34.55,46.95h0c.69,.21,1.39,.41,2.09,.59,.21,.06,.42,.11,.63,.16,.52,.13,1.05,.25,1.58,.37,.22,.05,.43,.09,.65,.14,.71,.14,1.42,.27,2.13,.38,.02,0,.03,0,.04,0,.31,.05,.61,.08,.92,.12v40.58c0,3.62,2.94,6.56,6.56,6.56V144.11Z"/></g><g><g><path class="cls-6" d="M504.55,317.45c0,5.27-10.74,9.55-23.98,9.55s-23.98-4.28-23.98-9.55,10.74-9.55,23.98-9.55,23.98,4.27,23.98,9.55Z"/><g><path class="cls-11" d="M487.12,312.01c0,3.62-2.94,6.56-6.56,6.56h0c-3.62,0-6.56-2.94-6.56-6.56v-117.62c0-3.62,2.94-6.56,6.56-6.56h0c3.62,0,6.56,2.94,6.56,6.56v117.62Z"/><path class="cls-17" d="M483.64,276.87c1.52,1.52,1.52,3.97,0,5.49h0c-1.51,1.51-3.97,1.51-5.48,0l-49.38-49.38c-1.51-1.51-1.51-3.97,0-5.48h0c1.51-1.52,3.97-1.52,5.48,0l49.38,49.38Z"/><path class="cls-17" d="M479.43,255.61c-1.52,1.52-1.52,3.97,0,5.48h0c1.51,1.51,3.97,1.51,5.48,0l40.77-40.77c1.52-1.51,1.52-3.97,0-5.48h0c-1.51-1.52-3.97-1.52-5.48,0l-40.77,40.77Z"/><path class="cls-15" d="M518.66,162.53c0,22.22-18.01,40.23-40.23,40.23s-40.23-18.01-40.23-40.23,18.01-40.23,40.23-40.23,40.23,18.01,40.23,40.23Z"/><path class="cls-12" d="M465.41,191.78c0,3.16,.37,6.23,1.06,9.18,3.78,1.17,7.79,1.8,11.95,1.8,22.22,0,40.23-18.01,40.23-40.23,0-3.16-.37-6.23-1.06-9.17-3.78-1.17-7.79-1.81-11.95-1.81-22.22,0-40.23,18.01-40.23,40.23Z"/><path class="cls-20" d="M448.11,145.04c-2.09,0-4.14,.16-6.14,.47-2.42,5.17-3.78,10.94-3.78,17.02,0,22.22,18.01,40.23,40.23,40.23,2.09,0,4.14-.16,6.14-.46,2.42-5.17,3.78-10.94,3.78-17.02,0-22.22-18.01-40.23-40.23-40.23Z"/><path class="cls-15" d="M455.81,232.85c0,13.14-10.65,23.79-23.79,23.79s-23.79-10.65-23.79-23.79,10.65-23.79,23.79-23.79,23.79,10.65,23.79,23.79Z"/><path class="cls-12" d="M424.33,250.15c0,1.87,.22,3.68,.63,5.43,2.23,.69,4.61,1.07,7.07,1.07,13.14,0,23.79-10.65,23.79-23.79,0-1.87-.22-3.68-.63-5.42-2.23-.7-4.61-1.07-7.07-1.07-13.14,0-23.79,10.65-23.79,23.79Z"/><path class="cls-20" d="M414.1,222.51c-1.24,0-2.45,.09-3.63,.28-1.43,3.06-2.23,6.47-2.23,10.07,0,13.14,10.65,23.79,23.79,23.79,1.23,0,2.45-.09,3.63-.28,1.43-3.06,2.23-6.47,2.23-10.07,0-13.14-10.65-23.79-23.79-23.79Z"/><path class="cls-15" d="M543.24,222.53c0,13.14-10.65,23.79-23.79,23.79s-23.79-10.65-23.79-23.79,10.65-23.79,23.79-23.79,23.79,10.65,23.79,23.79Z"/><path class="cls-12" d="M511.75,239.83c0,1.87,.22,3.68,.63,5.42,2.23,.7,4.61,1.07,7.07,1.07,13.14,0,23.79-10.65,23.79-23.79,0-1.87-.22-3.68-.63-5.42-2.23-.69-4.6-1.07-7.07-1.07-13.14,0-23.79,10.65-23.79,23.79Z"/><path class="cls-20" d="M501.52,212.19c-1.23,0-2.45,.09-3.63,.28-1.43,3.06-2.24,6.47-2.24,10.07,0,13.14,10.65,23.79,23.79,23.79,1.23,0,2.45-.1,3.63-.28,1.43-3.06,2.23-6.47,2.23-10.06,0-13.14-10.65-23.79-23.79-23.79Z"/></g></g><path class="cls-22" d="M478.43,122.3c-16.87,0-31.31,10.39-37.28,25.11-.03,.06-.05,.12-.07,.18-.23,.58-.45,1.16-.66,1.75-.04,.11-.08,.23-.12,.34-.18,.54-.35,1.09-.51,1.64-.05,.15-.09,.31-.13,.46-.14,.51-.27,1.03-.39,1.55-.04,.19-.09,.38-.13,.57-.11,.49-.2,.99-.29,1.49-.04,.21-.08,.43-.12,.64-.08,.49-.14,.98-.21,1.47-.03,.23-.06,.45-.09,.68-.05,.51-.09,1.02-.13,1.54-.01,.21-.04,.41-.05,.62-.04,.72-.06,1.45-.06,2.18,0,18.06,11.9,33.34,28.28,38.43h0c.57,.18,1.15,.34,1.73,.49,.15,.04,.3,.08,.46,.11,.45,.11,.91,.22,1.36,.31,.16,.03,.32,.07,.48,.1,1.15,.23,2.32,.41,3.5,.54v64.72l-21.8-21.8c2.28-3.65,3.61-7.96,3.61-12.59,0-.45-.02-.89-.04-1.33,0-.09-.01-.18-.02-.26-.02-.37-.06-.73-.1-1.1,0-.06-.02-.12-.02-.19-.05-.4-.11-.79-.18-1.19,0-.02,0-.05-.01-.07-1.96-11.16-11.7-19.65-23.42-19.65-9.98,0-18.52,6.15-22.05,14.86-.01,.03-.02,.06-.04,.09-.14,.35-.27,.7-.39,1.06-.02,.06-.04,.12-.06,.18-.11,.33-.21,.66-.31,.99-.02,.09-.05,.17-.07,.25-.09,.31-.16,.62-.24,.94-.02,.11-.05,.21-.07,.32-.06,.29-.12,.6-.18,.9-.02,.12-.04,.24-.06,.37-.05,.29-.09,.58-.12,.88-.02,.13-.04,.26-.05,.39-.03,.3-.06,.61-.08,.91,0,.12-.02,.24-.03,.37-.02,.43-.04,.86-.04,1.29,0,11.23,7.78,20.63,18.25,23.13,.12,.03,.24,.06,.36,.08,1.03,.23,2.08,.39,3.16,.48,.13,0,.26,.02,.4,.03,.54,.04,1.08,.06,1.63,.06s1.1-.03,1.64-.06c.13,0,.26-.02,.39-.03,4.92-.42,9.42-2.32,13.03-5.28l26.94,26.94v33.8c0,3.62,2.94,6.56,6.56,6.56l-2.14-196.26Z"/></g><g><ellipse class="cls-6" cx="695.73" cy="328.35" rx="23.54" ry="7.94"/><g><path class="cls-9" d="M699.67,323.43s.01,.12,.01,.31c0,.58-.1,1.87-.91,2.82-1.07,1.27-1.08,2.84,.05,3.11,1.13,.27,3.84-.09,3.84-.09,0,0,.61-1.21,.19-4.43-.42-3.22-.66-6.75-.66-6.75l-3.08-.55,.55,5.56Z"/><path class="cls-16" d="M699.07,324.8s-1.14,1.76-1.41,2.5c-.27,.73-.21,2.56,0,2.75,1.85,1.66,5.36,.17,5.36,.17,0,0,.24-1.21,.36-2.71,.12-1.49,.05-2.88-.36-2.88s-.49,.78-1.44,.56c-.95-.22-1.53-.61-2.51-.39Z"/><path class="cls-5" d="M703.3,328.25c-.71,.32-1.68,.69-2.58,.83-.96,.16-2.25-.33-3.23-.82-.05,.78,.02,1.66,.16,1.78,1.85,1.66,5.36,.17,5.36,.17,0,0,.17-.83,.29-1.96Z"/><path class="cls-9" d="M690.77,321.3c.4,1.43,0,3-1.02,3.94-.35,.33-.77,.63-1.23,.86-1.8,.89-4.12,.69-4.45,2.52-.32,1.83,11.39-.51,11.39-.51,0,0-.81-4.45-.87-5.2-.05-.75,.07-3.48,.07-3.48l-4.52-.37,.63,2.24Z"/><path class="cls-16" d="M694.99,324.97s.14,.71,.47,1.9c.33,1.2,.12,2.33,.12,2.33,0,0-10.97,.59-11.42,.2-.44-.39-.22-1.83-.1-1.96,.11-.13,1.5-.55,2.22-1.05,.71-.5,3.15-2.39,3.98-2.31,.82,.08,1.2,.77,2.77,.85,1.56,.08,1.57-.29,1.96,.05Z"/><path class="cls-5" d="M684.17,329.39c.44,.39,11.42-.2,11.42-.2,0,0,.13-.74,.01-1.66-5.73,1.2-11.53-.1-11.53-.1-.11,.13-.34,1.56,.1,1.96Z"/><path class="cls-13" d="M695.59,327.54c-3.91,.89-8.25,.7-11.53-.1,5.97,1.02,10.79,.23,10.45,.27,.01,0,1.15-.18,1.08-.17Z"/><path class="cls-16" d="M704.2,277.56l-1.03,45.06-4.93-.71s-1.56-36.16-2.48-37.23c-.91-1.07-1.28,.07-1.28,.07,0,0-3.93,15.04-3.2,18.04,.73,3,4,19.08,4,19.08l-4.73,.21s-5.4-12.32-5.4-20.9c0-8.57,3.33-22.83,3.33-22.83l15.71-.8Z"/><rect class="cls-3" x="689.77" y="320.73" width="5.69" height="1.33"/><rect class="cls-3" x="697.86" y="320.94" width="5.75" height="1.67"/><path class="cls-3" d="M702.11,321.6s-.02,0-.03,0c-.08-.02-.13-.11-.11-.2,.91-4.77,.97-35.78,.97-36.09,0-.09,.07-.17,.15-.17h0c.08,0,.15,.08,.15,.17,0,1.28-.06,31.36-.98,36.16-.02,.08-.08,.13-.14,.13Z"/><path class="cls-3" d="M694.48,321.6c-.06,0-.12-.04-.14-.11-.22-.71-5.42-17.35-5.12-19.65,.29-2.26,3.61-16.53,3.75-17.14,.02-.09,.1-.14,.18-.12,.08,.02,.12,.12,.1,.21-.03,.15-3.46,14.85-3.74,17.1-.28,2.21,5.06,19.31,5.11,19.48,.03,.09-.01,.19-.09,.22-.02,0-.03,.01-.05,.01Z"/><polygon class="cls-8" points="689.36 246.01 682.48 255.09 690.59 258.04 689.36 246.01"/><path class="cls-7" d="M707.28,243.07c-1.05-1.05-3.48-1.81-5.07-2.23-.91-.24-1.86-.29-2.79-.16l-3.57,.48s-4.64,2.98-6.38,4.72c-1.74,1.74-3.31,12.63-3.31,12.63l.79,4.15-.91,18.28c.4,0,12.38,1.46,19.03-.53,0,0,0-9.75,.18-15.67,.78-4.5,3.41-20.29,2.03-21.68Z"/><path class="cls-4" d="M707.21,243c-.55-.51-1.39-.92-2.08-1.21,0,0,0,0,0,0,0,0-1.32-.72-2.52,4.21-1.2,4.93,.32,10.94-.21,11.47-.53,.53-12.18-.07-12.18-.07,0,0,6.81,3.91,10.13,6.77,1.33,1.14,4.87,1.75,4.87,1.71,0-.39,.02-.76,.03-1.13,.38-2.17,3.56-20.25,1.95-21.75Z"/><path class="cls-2" d="M677.8,253.4l5.85,11.06c.14,.26,.41,.42,.7,.4l6.95-.41c.5-.03,.83-.54,.66-1.01l-3.59-10.09c-.1-.28-.36-.48-.66-.5l-9.22-.55c-.58-.04-.98,.59-.7,1.11Z"/><path class="cls-14" d="M692.52,263.38l-3.63-10c-.1-.28-.36-.48-.67-.49l-.36-.02c.21,.07,.38,.24,.46,.46l3.63,10.09c.16,.43-.11,.89-.54,.99l.44-.03c.5-.03,.84-.53,.67-1Z"/><path class="cls-1" d="M705.62,256.52l-.55,1.99s-11.76-3.04-13.15-3.7c-1.12-.54-5.56-1.72-7.21-1.61-.27,.02-.3,.4-.04,.46,1.04,.25,3.11,.77,3.11,.98,0,.28-2.08,.68-1.93,1.02,.3,.68,1.33,1.08,1.52,1.71,.19,.64,2.31,.14,3.03,.14s14.15,8.15,18.21,6.21c4.06-1.93,1.6-10.51,1.6-10.51l-4.58,3.3Z"/><path class="cls-1" d="M683.56,260.77c-.27-.27-.26-.93-.57-1.24-.31-.31-.65,.32-.73-.39-.08-.7,.41-1.8-.07-1.74-.48,.06-1.15,2.04-1.15,2.04-.35,.81,1.22,3.84,2.04,3.63,.83-.21,1.15-1.19,1.15-1.64s-.41-.39-.68-.66Z"/><path class="cls-5" d="M695.84,241.17s0,0,0,0c0,0,0,0-.02,.01,0,0,0,0,0,0,0,0,0,0-.01,0,0,0,0,0,0,0,0,0-.02,.01-.03,.02,0,0,0,0-.01,0-.01,0-.02,.01-.03,.02,0,0,0,0,0,0,0,0,0,0,0,0,0,0,0,0,0,0,0,0-.01,0-.02,.01,0,0,0,0,0,0-.02,.01-.05,.03-.07,.05,0,0,0,0-.01,0-.44,.29-1.38,.91-2.43,1.65h0s-.44,1.74-.23,2.86c.21,1.12,.64,1.47,1.26,1.22,.62-.25,1.79-1.9,2.05-1.81,.27,.09,2.07,2.35,2.94,2,.58-.24,2.34-4.08,3.22-6.36-.06-.02-.13-.03-.19-.05-.91-.24-1.86-.29-2.79-.16l-3.57,.48h0s0,0,0,0Z"/><path class="cls-1" d="M693.97,238.34c.28,1.47,.41,3.05,.16,3.97,0,0,.58,2.51,2.02,2.63,1.44,.12,4.18-4.32,4.18-4.32l-3.01-4.73-3.36,2.45Z"/><path class="cls-23" d="M694.25,240.64c1.73-.3,3.36-1.63,3.81-3.6l-.73-1.15-3.36,2.45c.15,.77,.25,1.58,.28,2.3Z"/><path class="cls-1" d="M690.89,229.47s-1.42,8.88,1.12,9.91c2.53,1.02,5.96-.62,6.21-3.63,.25-3.01-.39-9.16-7.33-6.27Z"/><path class="cls-21" d="M693.46,227.65s-4.83-1.43-5.11-.02c-.29,1.41,1.3,2.46,2.41,2.55,1.11,.09,3.94-.05,4.8,.97,.86,1.02,2.4,5.73,2.4,5.73l.87,1.36s.35-2.48,1.6-4c1.25-1.52,.55-4.13-.65-5.91-1.2-1.79-5.22-.59-6.31-.69Z"/><path class="cls-1" d="M696.54,233.6s.46-1.24,1.14-1.07c1.54,.4,.41,3.15-.1,3.23-1.03,.15-1.45-.66-1.04-2.16Z"/><path class="cls-7" d="M702.92,246.88c-.05,2.95,1.54,11.64,1.54,11.64,0,0,6.19-.12,6.68-.62,.5-.5-1.1-13.61-3.83-15.45-3.26-2.2-4.35,1.59-4.4,4.44Z"/></g></g></g></g></svg>