<?xml version="1.0" encoding="UTF-8"?><svg xmlns="http://www.w3.org/2000/svg" viewBox="0 0 800 402.15"><defs><style>.cls-1{fill:#f7a491;}.cls-2{fill:#f48c7f;}.cls-3{fill:#f47458;}.cls-4{fill:#e8e8e8;}.cls-5{fill:#658a00;}.cls-6{fill:#995900;}.cls-7{fill:#98b300;}.cls-8{fill:#8cbf00;}.cls-9{fill:#abc900;}.cls-10{fill:#13375b;}.cls-11{fill:#355389;}.cls-12{fill:#184655;}.cls-13{fill:#3c8f7c;}.cls-14{fill:#466eb6;}.cls-15{fill:#704100;}.cls-16{fill:#637500;}.cls-17{fill:#79a500;}.cls-18{fill:#829900;}.cls-19{fill:#50bfa5;}.cls-20{fill:#687a00;mix-blend-mode:multiply;opacity:.2;}.cls-21{isolation:isolate;}</style></defs><g class="cls-21"><g id="OBJECTS"><g><g><path class="cls-4" d="M771.72,236.15c0,5.27-10.74,9.55-23.98,9.55s-23.98-4.28-23.98-9.55,10.74-9.55,23.98-9.55,23.98,4.28,23.98,9.55Z"/><g><path class="cls-6" d="M754.3,229.59c0,3.62-2.94,6.56-6.56,6.56h0c-3.62,0-6.56-2.94-6.56-6.56v-48.31c0-3.62,2.94-6.56,6.56-6.56h0c3.62,0,6.56,2.94,6.56,6.56v48.31Z"/><path class="cls-15" d="M747.74,197.64c2.29,0,4.46-.09,6.56-.25v-16.11c0-3.62-2.94-6.56-6.56-6.56s-6.56,2.94-6.56,6.56v16.12c2.09,.16,4.28,.24,6.56,.24Z"/><path class="cls-17" d="M786.06,109.07c14.74,55.07,4.25,82.33-38.32,82.33h0c-42.57,0-53.06-27.25-38.32-82.33l16.18-51.62c3.06-11.44,12.66-18.62,22.14-18.62h0c9.47,0,19.08,7.19,22.14,18.62l16.18,51.62Z"/><path class="cls-5" d="M791.71,158.72c-5.18-10.91-14.34-22.97-27.28-36.3l-39.29-37.19c-2.04-2.1-4.3-3.77-6.67-5.04l-9.05,28.87c-14.73,55.07-4.25,82.33,38.32,82.33,26.85,0,40.92-10.85,43.97-32.67Z"/><path class="cls-16" d="M783.94,108.43c-8.81-3.48-20.38-.32-27.43,9.19l-34.01,42.07c-4.52,6.11-8.44,11.91-11.75,17.43,7.09,9.51,19.24,14.26,36.99,14.26,42.46,0,52.99-27.11,38.43-81.88-.72-.4-1.46-.77-2.23-1.07Z"/></g></g><path class="cls-20" d="M747.74,38.82c-9.47,0-19.08,7.19-22.14,18.62l-16.18,51.62c-8.59,32.12-8.59,54.76,1.33,68.06h0s0,0,0,0c.42,.57,.87,1.12,1.33,1.65,.04,.05,.09,.1,.13,.15,.46,.53,.93,1.04,1.43,1.53,.02,.02,.04,.04,.05,.05,2,1.98,4.29,3.68,6.87,5.12,.16,.09,.33,.19,.5,.28,.52,.28,1.05,.54,1.6,.8,.25,.12,.5,.23,.76,.35,.52,.23,1.05,.46,1.59,.67,.3,.12,.62,.23,.93,.35,.53,.19,1.05,.39,1.6,.56,.37,.12,.76,.22,1.13,.34,.85,.25,1.72,.48,2.61,.69,.55,.13,1.09,.26,1.65,.38,.45,.09,.91,.17,1.36,.25,.58,.1,1.16,.2,1.75,.29,.45,.07,.92,.13,1.38,.19,.64,.08,1.28,.15,1.94,.22,.44,.04,.89,.09,1.34,.12,.16,.01,.32,.03,.48,.04v38.44c0,3.62,2.94,6.56,6.56,6.56V38.82Z"/></g><g><g><ellipse class="cls-4" cx="620.69" cy="210.55" rx="23.98" ry="9.55"/><g><path class="cls-6" d="M627.25,205.1c0,3.62-2.93,6.56-6.56,6.56h0c-3.62,0-6.56-2.94-6.56-6.56v-60.84c0-3.62,2.94-6.56,6.56-6.56h0c3.62,0,6.56,2.94,6.56,6.56v60.84Z"/><path class="cls-15" d="M627.25,163.04v-18.78c0-3.62-2.93-6.56-6.56-6.56s-6.56,2.94-6.56,6.56v18.78h13.12Z"/><path class="cls-16" d="M599.1,22.22h43.18c24.69,0,44.74,20.05,44.74,44.74v43.18c0,24.69-20.05,44.74-44.74,44.74h-43.18c-24.69,0-44.74-20.05-44.74-44.74v-43.18c0-24.69,20.05-44.74,44.74-44.74Z"/><path class="cls-5" d="M620.49,54.2c-16.39-18.37-44.52-20.03-62.96-3.78-2.04,5.12-3.17,10.7-3.17,16.55v43.18c0,24.71,20.03,44.74,44.74,44.74h40.6l5.94-5.29c18.44-16.45,20.05-44.73,3.6-63.17l-28.74-32.22Z"/><path class="cls-17" d="M671.63,82.71c-22.52-10.17-49.02-.16-59.19,22.36l-17.77,39.35c-1.45,3.21-2.48,6.51-3.13,9.82,2.46,.42,4.99,.65,7.57,.65h43.18c24.71,0,44.74-20.03,44.74-44.74v-20.48l-15.39-6.95Z"/></g></g><path class="cls-20" d="M618.92,22.22h-19.83c-19.59,0-36.23,12.6-42.29,30.13,0,0,0,.01,0,.02-.22,.64-.43,1.29-.62,1.94-.01,.04-.02,.07-.03,.11-.18,.62-.35,1.25-.51,1.88-.02,.08-.04,.17-.06,.26-.14,.59-.27,1.18-.39,1.78-.03,.15-.05,.31-.08,.46-.1,.54-.2,1.08-.28,1.62-.04,.24-.06,.49-.09,.73-.06,.46-.12,.93-.17,1.4-.04,.38-.06,.75-.08,1.13-.03,.35-.06,.7-.08,1.05-.04,.74-.06,1.48-.06,2.23v43.18c0,22.72,16.94,41.47,38.88,44.35,.11,.02,.23,.03,.34,.04,.5,.06,.99,.12,1.49,.16,.28,.03,.55,.04,.83,.06,.37,.03,.75,.06,1.12,.07,.69,.03,1.38,.05,2.08,.05h15.03v50.22c0,3.01,2.03,5.54,4.79,6.31V22.22Z"/></g><g><g><ellipse class="cls-4" cx="702.92" cy="339.02" rx="23.98" ry="9.55"/><g><path class="cls-6" d="M709.48,333.57c0,3.62-2.94,6.56-6.56,6.56h0c-3.62,0-6.56-2.94-6.56-6.56v-62.28c0-3.62,2.94-6.56,6.56-6.56h0c3.62,0,6.56,2.94,6.56,6.56v62.28Z"/><path class="cls-15" d="M702.92,287.47c2.27,0,4.46-.3,6.56-.84v-15.34c0-3.62-2.94-6.56-6.56-6.56s-6.56,2.94-6.56,6.56v15.34c2.09,.55,4.29,.84,6.56,.84Z"/><path class="cls-18" d="M742.65,212.46c10.12-3.52,17.39-13.14,17.39-24.46,0-14.3-11.59-25.9-25.9-25.9-2.22,0-4.38,.28-6.44,.81-3.22-10.63-13.1-18.38-24.78-18.38s-21.56,7.74-24.78,18.38c-2.06-.53-4.22-.81-6.44-.81-14.3,0-25.9,11.59-25.9,25.9,0,11.32,7.27,20.94,17.39,24.46-10.12,3.52-17.39,13.14-17.39,24.46,0,14.3,11.59,25.9,25.9,25.9,2.2,0,4.33-.28,6.37-.79,3.13,10.77,13.08,18.65,24.86,18.65s21.73-7.88,24.86-18.65c2.04,.51,4.17,.79,6.37,.79,14.3,0,25.9-11.6,25.9-25.9,0-11.32-7.27-20.94-17.39-24.46Z"/><path class="cls-7" d="M739.04,262.35c4.13-10.85,.48-22.77-8.22-29.59,1.24-1.73,2.28-3.64,3.08-5.71,5.17-13.33-1.44-28.34-14.78-33.51-10.55-4.09-22.15-.8-29.09,7.37,.38-10.71-5.96-20.96-16.52-25.06-9.41-3.65-19.65-1.42-26.67,4.89-.67,2.31-1.04,4.75-1.04,7.27,0,11.32,7.27,20.94,17.39,24.46-10.12,3.52-17.39,13.14-17.39,24.46,0,14.3,11.59,25.9,25.9,25.9,2.2,0,4.33-.28,6.37-.79,3.13,10.77,13.08,18.65,24.86,18.65s21.73-7.88,24.86-18.65c2.04,.51,4.17,.79,6.37,.79,1.67,0,3.31-.16,4.89-.47Z"/><path class="cls-9" d="M760.04,236.92c0-11.32-7.27-20.94-17.39-24.46,4.48-1.56,8.4-4.31,11.37-7.88-7.66-5.4-18-6.45-26.89-1.82-10.04,5.23-15.22,16.12-13.66,26.72-7.8-7.35-19.68-9.36-29.73-4.13-12.68,6.6-17.62,22.24-11.01,34.93,.44,.84,.92,1.63,1.43,2.41,1.33-.13,2.63-.34,3.89-.66,3.13,10.77,13.08,18.65,24.86,18.65s21.73-7.88,24.86-18.65c2.04,.51,4.17,.79,6.37,.79,14.3,0,25.9-11.6,25.9-25.9Z"/></g></g><path class="cls-20" d="M702.92,144.54c-11.69,0-21.56,7.74-24.78,18.38-2.06-.53-4.22-.81-6.44-.81-13.03,0-23.81,9.63-25.62,22.16,0,.03,0,.06-.01,.09-.07,.52-.13,1.04-.17,1.56-.01,.13-.02,.26-.03,.39-.04,.56-.06,1.13-.06,1.7,0,11.32,7.27,20.94,17.39,24.46-10.12,3.52-17.39,13.14-17.39,24.46,0,14.3,11.59,25.9,25.9,25.9,.83,0,1.66-.05,2.47-.13h.01c.63-.06,1.25-.14,1.87-.25,.05,0,.09-.01,.14-.02,.63-.11,1.26-.24,1.88-.39,2.53,8.7,9.51,15.51,18.3,17.8v53.74c0,3.62,2.94,6.56,6.56,6.56V144.54Z"/></g><g><g><path class="cls-4" d="M424.53,209.29c0,5.27-10.74,9.55-23.98,9.55s-23.98-4.28-23.98-9.55,10.74-9.55,23.98-9.55,23.98,4.28,23.98,9.55Z"/><g><path class="cls-15" d="M398.14,153.45c-1.23,2.01-.6,4.64,1.41,5.87h0c2.01,1.23,4.64,.6,5.87-1.41l33.14-54.13c1.23-2.01,.6-4.64-1.41-5.87h0c-2.01-1.23-4.64-.6-5.87,1.41l-33.14,54.13Z"/><path class="cls-15" d="M401.46,156.19c1.21,2.02,.55,4.65-1.47,5.86h0c-2.02,1.21-4.65,.55-5.86-1.47l-50.22-79.42c-1.21-2.02-.55-4.64,1.47-5.86h0c2.02-1.21,4.65-.55,5.86,1.47l50.22,79.42Z"/><path class="cls-6" d="M407.63,202.74c0,3.62-2.93,6.56-6.56,6.56h0c-3.62,0-6.56-2.94-6.56-6.56V98.94c0-3.62,2.94-6.55,6.56-6.55h0c3.62,0,6.56,2.94,6.56,6.55v103.8Z"/><path class="cls-15" d="M401.08,92.38c-3.62,0-6.56,2.94-6.56,6.55v31.43c2.81-1.46,5.37-3.34,7.59-5.56,1.74,1.04,3.59,1.9,5.53,2.59v-28.46c0-3.62-2.93-6.55-6.56-6.55Z"/><g><path class="cls-9" d="M428.3,37.25c0,17-13.79,30.79-30.79,30.79s-30.79-13.78-30.79-30.79,13.78-30.79,30.79-30.79,30.79,13.79,30.79,30.79Z"/><path class="cls-7" d="M387.55,59.64c0,2.42,.29,4.77,.81,7.02,2.89,.9,5.96,1.38,9.15,1.38,17,0,30.79-13.78,30.79-30.79,0-2.42-.29-4.77-.81-7.02-2.89-.9-5.96-1.38-9.15-1.38-17,0-30.79,13.78-30.79,30.79Z"/><path class="cls-18" d="M374.31,23.87c-1.6,0-3.17,.12-4.7,.36-1.85,3.96-2.89,8.37-2.89,13.03,0,17,13.78,30.79,30.79,30.79,1.6,0,3.17-.12,4.7-.35,1.85-3.96,2.89-8.37,2.89-13.03,0-17-13.78-30.79-30.79-30.79Z"/></g><g><circle class="cls-8" cx="354.91" cy="63.97" r="30.79"/><path class="cls-17" d="M344.95,86.35c0,2.42,.29,4.77,.81,7.03,2.89,.9,5.96,1.38,9.15,1.38,17,0,30.79-13.78,30.79-30.79,0-2.42-.29-4.77-.81-7.02-2.89-.9-5.96-1.38-9.15-1.38-17,0-30.79,13.78-30.79,30.79Z"/><path class="cls-5" d="M331.71,50.58c-1.6,0-3.17,.12-4.7,.36-1.85,3.95-2.89,8.37-2.89,13.03,0,17.01,13.78,30.79,30.79,30.79,1.6,0,3.16-.12,4.7-.36,1.85-3.96,2.89-8.37,2.89-13.03,0-17-13.79-30.79-30.79-30.79Z"/></g><g><path class="cls-8" d="M475.91,57.81c0,17.01-13.78,30.79-30.79,30.79s-30.79-13.78-30.79-30.79,13.78-30.79,30.79-30.79,30.79,13.79,30.79,30.79Z"/><path class="cls-17" d="M435.16,80.2c0,2.42,.29,4.77,.81,7.02,2.89,.9,5.96,1.38,9.15,1.38,17,0,30.79-13.78,30.79-30.79,0-2.42-.29-4.76-.81-7.02-2.89-.9-5.96-1.38-9.15-1.38-17,0-30.79,13.79-30.79,30.79Z"/><path class="cls-5" d="M421.92,44.42c-1.6,0-3.17,.12-4.7,.36-1.85,3.96-2.89,8.37-2.89,13.03,0,17.01,13.78,30.79,30.79,30.79,1.6,0,3.16-.12,4.7-.36,1.85-3.96,2.89-8.37,2.89-13.03,0-17.01-13.78-30.79-30.79-30.79Z"/></g><g><circle class="cls-9" cx="417.88" cy="90.08" r="30.79" transform="translate(58.7 321.87) rotate(-45)"/><path class="cls-7" d="M407.92,112.46c0,2.42,.29,4.77,.81,7.02,2.89,.9,5.96,1.38,9.15,1.38,17.01,0,30.79-13.78,30.79-30.79,0-2.42-.29-4.77-.81-7.02-2.89-.9-5.96-1.38-9.15-1.38-17,0-30.79,13.78-30.79,30.79Z"/><path class="cls-18" d="M394.68,76.7c-1.6,0-3.17,.12-4.7,.36-1.85,3.96-2.89,8.37-2.89,13.03,0,17.01,13.78,30.79,30.79,30.79,1.6,0,3.17-.12,4.7-.36,1.85-3.96,2.89-8.37,2.89-13.03,0-17-13.79-30.79-30.79-30.79Z"/></g><g><path class="cls-9" d="M411.12,94.76c0,17-13.78,30.79-30.79,30.79s-30.79-13.78-30.79-30.79,13.79-30.79,30.79-30.79,30.79,13.79,30.79,30.79Z"/><path class="cls-7" d="M370.37,117.14c0,2.42,.29,4.77,.81,7.02,2.89,.9,5.96,1.38,9.15,1.38,17.01,0,30.79-13.78,30.79-30.79,0-2.42-.29-4.77-.81-7.02-2.89-.9-5.96-1.38-9.15-1.38-17,0-30.79,13.78-30.79,30.79Z"/><path class="cls-18" d="M357.13,81.37c-1.6,0-3.17,.12-4.7,.36-1.85,3.96-2.89,8.37-2.89,13.03,0,17,13.79,30.79,30.79,30.79,1.6,0,3.17-.12,4.7-.35,1.85-3.96,2.89-8.37,2.89-13.03,0-17-13.79-30.79-30.79-30.79Z"/></g></g></g><path class="cls-20" d="M397.51,6.46c-12.35,0-22.99,7.27-27.9,17.76h0s0,0,0,0c-.22,.48-.43,.96-.63,1.45-.02,.05-.04,.1-.06,.16-.17,.44-.34,.88-.5,1.33-.03,.09-.06,.18-.09,.27-.14,.41-.27,.82-.39,1.24-.04,.12-.07,.24-.1,.36-.11,.39-.21,.78-.3,1.18-.03,.15-.07,.29-.1,.44-.08,.38-.16,.75-.22,1.13-.03,.17-.06,.33-.09,.49-.06,.37-.11,.75-.16,1.12-.02,.17-.05,.35-.07,.52-.04,.39-.07,.78-.1,1.18-.01,.15-.03,.3-.04,.45-3.65-1.53-7.66-2.37-11.86-2.37-12.91,0-23.96,7.95-28.53,19.21-.02,.05-.04,.11-.06,.16-.18,.44-.34,.88-.5,1.32-.03,.09-.06,.18-.09,.28-.14,.41-.27,.82-.39,1.24-.04,.12-.07,.24-.1,.37-.11,.39-.21,.78-.3,1.17-.03,.15-.07,.3-.1,.44-.08,.38-.16,.75-.22,1.13-.03,.16-.06,.33-.09,.5-.06,.37-.11,.74-.16,1.12-.02,.17-.05,.35-.07,.52-.04,.39-.07,.78-.1,1.18-.01,.16-.03,.32-.04,.48-.03,.55-.05,1.11-.05,1.67,0,13.82,9.1,25.51,21.64,29.41h0s.07,.02,.1,.03c.6,.18,1.21,.35,1.82,.49,.18,.04,.36,.09,.54,.12,.44,.1,.88,.18,1.32,.26,0,.16-.01,.31-.01,.47,0,13.79,9.06,25.45,21.54,29.38l23.05,36.45c.11,.19,.25,.36,.39,.52v41.63c0,3.62,2.94,6.56,6.56,6.56l-3.57-202.83Zm-1.41,61.85c-.2-.12-.4-.23-.6-.35,.31,.02,.61,.04,.92,.05-.1,.1-.21,.2-.32,.3Zm-14.06,57.18c.13,0,.26-.02,.39-.03,.18-.01,.35-.03,.53-.04,.66-.06,1.32-.13,1.97-.22,.03,0,.06,0,.09,0t0,0c3.38-.52,6.57-1.59,9.49-3.11v23.14l-12.47-19.73Z"/></g><g><g><path class="cls-4" d="M116.32,206.81c0,5.27-10.74,9.55-23.98,9.55s-23.98-4.27-23.98-9.55,10.74-9.55,23.98-9.55,23.98,4.27,23.98,9.55Z"/><g><path class="cls-6" d="M98.89,200.26c0,3.62-2.93,6.56-6.56,6.56h0c-3.62,0-6.56-2.94-6.56-6.56v-56.66c0-3.62,2.94-6.56,6.56-6.56h0c3.62,0,6.56,2.94,6.56,6.56v56.66Z"/><path class="cls-15" d="M98.89,169.94v-26.34c0-3.62-2.93-6.56-6.56-6.56s-6.56,2.94-6.56,6.56v26.34h13.12Z"/><polygon class="cls-16" points="92.34 72.01 141.49 160.36 43.19 160.36 92.34 72.01"/><polygon class="cls-5" points="92.34 29.6 149.35 132.09 35.32 132.09 92.34 29.6"/><polygon class="cls-17" points="92.34 10.87 131.27 80.84 53.41 80.84 92.34 10.87"/></g></g><path class="cls-20" d="M92.34,10.87L53.41,80.84h10.42l-28.51,51.24h23.59l-15.73,28.27h42.59v39.9c0,3.62,2.94,6.56,6.56,6.56V10.87Z"/></g><g><g><ellipse class="cls-4" cx="228.34" cy="226.55" rx="23.98" ry="9.55"/><g><path class="cls-6" d="M234.89,221.1c0,3.62-2.94,6.56-6.56,6.56h0c-3.62,0-6.56-2.94-6.56-6.56v-62.28c0-3.62,2.94-6.56,6.56-6.56h0c3.62,0,6.56,2.94,6.56,6.56v62.28Z"/><path class="cls-15" d="M228.34,175c2.27,0,4.46-.3,6.56-.84v-15.34c0-3.62-2.94-6.56-6.56-6.56s-6.56,2.94-6.56,6.56v15.34c2.09,.55,4.29,.84,6.56,.84Z"/><path class="cls-18" d="M268.07,99.99c10.12-3.52,17.39-13.14,17.39-24.46,0-14.3-11.59-25.9-25.9-25.9-2.22,0-4.38,.28-6.44,.81-3.22-10.63-13.1-18.38-24.78-18.38s-21.56,7.74-24.78,18.38c-2.06-.53-4.22-.81-6.44-.81-14.3,0-25.9,11.59-25.9,25.9,0,11.32,7.27,20.94,17.39,24.46-10.12,3.52-17.39,13.14-17.39,24.46,0,14.3,11.59,25.9,25.9,25.9,2.2,0,4.33-.28,6.37-.79,3.13,10.77,13.08,18.65,24.86,18.65s21.73-7.88,24.86-18.65c2.04,.51,4.17,.79,6.37,.79,14.3,0,25.9-11.6,25.9-25.9,0-11.32-7.27-20.94-17.39-24.46Z"/><path class="cls-7" d="M264.46,149.88c4.13-10.85,.48-22.77-8.22-29.59,1.24-1.73,2.28-3.64,3.08-5.71,5.17-13.33-1.44-28.34-14.78-33.51-10.55-4.09-22.15-.8-29.09,7.37,.38-10.71-5.96-20.96-16.52-25.06-9.41-3.65-19.65-1.42-26.67,4.89-.67,2.31-1.04,4.75-1.04,7.27,0,11.32,7.27,20.94,17.39,24.46-10.12,3.52-17.39,13.14-17.39,24.46,0,14.3,11.59,25.9,25.9,25.9,2.2,0,4.33-.28,6.37-.79,3.13,10.77,13.08,18.65,24.86,18.65s21.73-7.88,24.86-18.65c2.04,.51,4.17,.79,6.37,.79,1.67,0,3.31-.16,4.89-.47Z"/><path class="cls-9" d="M285.46,124.45c0-11.32-7.27-20.94-17.39-24.46,4.48-1.56,8.4-4.31,11.37-7.88-7.66-5.4-18-6.45-26.89-1.82-10.04,5.23-15.22,16.12-13.66,26.72-7.8-7.35-19.68-9.36-29.73-4.13-12.68,6.6-17.62,22.24-11.01,34.93,.44,.84,.92,1.63,1.43,2.41,1.33-.13,2.63-.34,3.89-.66,3.13,10.77,13.08,18.65,24.86,18.65s21.73-7.88,24.86-18.65c2.04,.51,4.17,.79,6.37,.79,14.3,0,25.9-11.6,25.9-25.9Z"/></g></g><path class="cls-20" d="M228.34,32.07c-11.69,0-21.56,7.74-24.78,18.38-2.06-.53-4.22-.81-6.44-.81-13.03,0-23.81,9.63-25.62,22.16,0,.03,0,.06-.01,.09-.07,.52-.13,1.04-.17,1.56-.01,.13-.02,.26-.03,.39-.04,.56-.06,1.13-.06,1.7,0,11.32,7.27,20.94,17.39,24.46-10.12,3.52-17.39,13.14-17.39,24.46,0,14.3,11.59,25.9,25.9,25.9,.83,0,1.66-.05,2.47-.13h.01c.63-.06,1.25-.14,1.87-.25,.05,0,.09-.01,.14-.02,.63-.11,1.26-.24,1.88-.39,2.53,8.7,9.51,15.51,18.3,17.8v53.74c0,3.62,2.94,6.56,6.56,6.56V32.07Z"/></g><g><g><path class="cls-4" d="M551.65,254.9c0,5.27-10.74,9.55-23.98,9.55s-23.98-4.28-23.98-9.55,10.74-9.55,23.98-9.55,23.98,4.28,23.98,9.55Z"/><g><path class="cls-6" d="M534.23,248.35c0,3.62-2.93,6.56-6.56,6.56h0c-3.62,0-6.56-2.94-6.56-6.56V101.02c0-3.62,2.94-6.56,6.56-6.56h0c3.62,0,6.56,2.94,6.56,6.56V248.35Z"/><path class="cls-15" d="M521.11,211.05c2.12,1.63,4.3,3.19,6.56,4.63,2.26-1.45,4.44-2.99,6.56-4.62v-72.6c-4.32-.96-8.7-1.6-13.12-1.92v74.52Z"/><g><path class="cls-9" d="M485.43,130.63c0,32.4,16.84,60.86,42.24,77.12,25.4-16.26,42.24-44.72,42.24-77.12s-16.84-60.86-42.24-77.12c-25.4,16.26-42.24,44.72-42.24,77.12Z"/><path class="cls-7" d="M557.66,84.88c-28.48,4.53-54.37,22.4-67.96,50.3-1.27,2.62-2.41,5.27-3.41,7.94,3.71,27.14,19.31,50.49,41.39,64.62,25.4-16.26,42.24-44.72,42.24-77.12,0-16.67-4.47-32.29-12.25-45.74Z"/><path class="cls-18" d="M568.61,146.06c-16.25-11.92-35.93-18.05-55.78-17.71-8.72,19.78-10.31,42.34-3.91,63.47,5.5,6.11,11.81,11.48,18.76,15.93,21.28-13.62,36.54-35.8,40.94-61.68Z"/></g></g></g><path class="cls-20" d="M527.67,53.51c-25.4,16.26-42.24,44.72-42.24,77.12,0,4.24,.3,8.41,.85,12.49h0s0,0,0,0c.34,2.51,.79,4.98,1.33,7.41,.01,.04,.02,.09,.03,.13,.16,.7,.32,1.38,.49,2.07,.04,.18,.09,.36,.13,.54,.16,.64,.34,1.29,.51,1.93,.06,.21,.12,.42,.18,.63,.18,.63,.37,1.25,.56,1.88,.06,.21,.13,.41,.19,.62,.2,.63,.41,1.26,.62,1.89,.05,.16,.11,.31,.16,.46,1,2.88,2.14,5.69,3.41,8.43,.09,.18,.17,.37,.25,.55,.26,.55,.53,1.1,.8,1.64,.12,.25,.24,.49,.37,.74,.26,.52,.53,1.03,.8,1.54,.14,.27,.28,.53,.43,.79,.27,.49,.54,.99,.82,1.48,.15,.27,.31,.53,.46,.8,.28,.49,.57,.97,.86,1.45,.15,.25,.3,.49,.45,.73,1.02,1.64,2.09,3.25,3.2,4.82,.19,.27,.38,.54,.58,.81,.29,.4,.59,.79,.89,1.19,.23,.31,.47,.62,.7,.93,.29,.38,.59,.74,.88,1.12,.26,.32,.52,.64,.78,.96,.29,.35,.58,.71,.88,1.05,.28,.33,.56,.65,.84,.98,.29,.33,.58,.67,.88,1,.3,.34,.61,.67,.92,1.01,.28,.31,.56,.62,.85,.92,.37,.39,.74,.77,1.12,1.15,.24,.24,.47,.49,.71,.73,.22,.22,.45,.44,.68,.66,.08,.08,.16,.16,.25,.24,.3,.29,.6,.59,.91,.87,.24,.23,.49,.45,.73,.67,.1,.1,.21,.19,.31,.29,.08,.08,.17,.15,.25,.23,.22,.2,.44,.4,.67,.6,.27,.24,.55,.48,.83,.72,.39,.34,.79,.68,1.19,1.01,.29,.24,.58,.48,.87,.72,.31,.26,.62,.51,.94,.76,.11,.09,.22,.18,.34,.26,.25,.2,.51,.4,.76,.6v45.22c0,3.62,2.94,6.56,6.56,6.56V53.51Z"/></g><g><g><path class="cls-4" d="M334.05,293.87c0,5.27-10.74,9.55-23.98,9.55s-23.98-4.28-23.98-9.55,10.74-9.55,23.98-9.55,23.98,4.27,23.98,9.55Z"/><g><path class="cls-6" d="M316.63,288.43c0,3.62-2.94,6.56-6.56,6.56h0c-3.62,0-6.56-2.94-6.56-6.56v-117.62c0-3.62,2.94-6.56,6.56-6.56h0c3.62,0,6.56,2.94,6.56,6.56v117.62Z"/><path class="cls-15" d="M313.14,253.29c1.52,1.52,1.52,3.97,0,5.49h0c-1.51,1.51-3.97,1.51-5.48,0l-49.38-49.38c-1.51-1.51-1.51-3.97,0-5.48h0c1.51-1.52,3.97-1.52,5.48,0l49.38,49.38Z"/><path class="cls-15" d="M308.94,232.03c-1.52,1.52-1.52,3.97,0,5.48h0c1.51,1.51,3.97,1.51,5.48,0l40.77-40.77c1.52-1.51,1.52-3.97,0-5.48h0c-1.51-1.52-3.97-1.52-5.48,0l-40.77,40.77Z"/><path class="cls-9" d="M348.16,138.95c0,22.22-18.01,40.23-40.23,40.23s-40.23-18.01-40.23-40.23,18.01-40.23,40.23-40.23,40.23,18.01,40.23,40.23Z"/><path class="cls-7" d="M294.92,168.2c0,3.16,.37,6.23,1.06,9.18,3.78,1.17,7.79,1.8,11.95,1.8,22.22,0,40.23-18.01,40.23-40.23,0-3.16-.37-6.23-1.06-9.17-3.78-1.17-7.79-1.81-11.95-1.81-22.22,0-40.23,18.01-40.23,40.23Z"/><path class="cls-18" d="M277.62,121.47c-2.09,0-4.14,.16-6.14,.47-2.42,5.17-3.78,10.94-3.78,17.02,0,22.22,18.01,40.23,40.23,40.23,2.09,0,4.14-.16,6.14-.46,2.42-5.17,3.78-10.94,3.78-17.02,0-22.22-18.01-40.23-40.23-40.23Z"/><path class="cls-9" d="M285.32,209.27c0,13.14-10.65,23.79-23.79,23.79s-23.79-10.65-23.79-23.79,10.65-23.79,23.79-23.79,23.79,10.65,23.79,23.79Z"/><path class="cls-7" d="M253.83,226.57c0,1.87,.22,3.68,.63,5.43,2.23,.69,4.61,1.07,7.07,1.07,13.14,0,23.79-10.65,23.79-23.79,0-1.87-.22-3.68-.63-5.42-2.23-.7-4.61-1.07-7.07-1.07-13.14,0-23.79,10.65-23.79,23.79Z"/><path class="cls-18" d="M243.6,198.93c-1.24,0-2.45,.09-3.63,.28-1.43,3.06-2.23,6.47-2.23,10.07,0,13.14,10.65,23.79,23.79,23.79,1.23,0,2.45-.09,3.63-.28,1.43-3.06,2.23-6.47,2.23-10.07,0-13.14-10.65-23.79-23.79-23.79Z"/><path class="cls-9" d="M372.74,198.95c0,13.14-10.65,23.79-23.79,23.79s-23.79-10.65-23.79-23.79,10.65-23.79,23.79-23.79,23.79,10.65,23.79,23.79Z"/><path class="cls-7" d="M341.25,216.25c0,1.87,.22,3.68,.63,5.42,2.23,.7,4.61,1.07,7.07,1.07,13.14,0,23.79-10.65,23.79-23.79,0-1.87-.22-3.68-.63-5.42-2.23-.69-4.6-1.07-7.07-1.07-13.14,0-23.79,10.65-23.79,23.79Z"/><path class="cls-18" d="M331.02,188.61c-1.23,0-2.45,.09-3.63,.28-1.43,3.06-2.24,6.47-2.24,10.07,0,13.14,10.65,23.79,23.79,23.79,1.23,0,2.45-.1,3.63-.28,1.43-3.06,2.23-6.47,2.23-10.06,0-13.14-10.65-23.79-23.79-23.79Z"/></g></g><path class="cls-20" d="M307.93,98.72c-16.87,0-31.31,10.39-37.28,25.11-.03,.06-.05,.12-.07,.18-.23,.58-.45,1.16-.66,1.75-.04,.11-.08,.23-.12,.34-.18,.54-.35,1.09-.51,1.64-.05,.15-.09,.31-.13,.46-.14,.51-.27,1.03-.39,1.55-.04,.19-.09,.38-.13,.57-.11,.49-.2,.99-.29,1.49-.04,.21-.08,.43-.12,.64-.08,.49-.14,.98-.21,1.47-.03,.23-.06,.45-.09,.68-.05,.51-.09,1.02-.13,1.54-.01,.21-.04,.41-.05,.62-.04,.72-.06,1.45-.06,2.18,0,18.06,11.9,33.34,28.28,38.43h0c.57,.18,1.15,.34,1.73,.49,.15,.04,.3,.08,.46,.11,.45,.11,.91,.22,1.36,.31,.16,.03,.32,.07,.48,.1,1.15,.23,2.32,.41,3.5,.54v64.72l-21.8-21.8c2.28-3.65,3.61-7.96,3.61-12.59,0-.45-.02-.89-.04-1.33,0-.09-.01-.18-.02-.26-.02-.37-.06-.73-.1-1.1,0-.06-.02-.12-.02-.19-.05-.4-.11-.79-.18-1.19,0-.02,0-.05-.01-.07-1.96-11.16-11.7-19.65-23.42-19.65-9.98,0-18.52,6.15-22.05,14.86-.01,.03-.02,.06-.04,.09-.14,.35-.27,.7-.39,1.06-.02,.06-.04,.12-.06,.18-.11,.33-.21,.66-.31,.99-.02,.09-.05,.17-.07,.25-.09,.31-.16,.62-.24,.94-.02,.11-.05,.21-.07,.32-.06,.29-.12,.6-.18,.9-.02,.12-.04,.24-.06,.37-.05,.29-.09,.58-.12,.88-.02,.13-.04,.26-.05,.39-.03,.3-.06,.61-.08,.91,0,.12-.02,.24-.03,.37-.02,.43-.04,.86-.04,1.29,0,11.23,7.78,20.63,18.25,23.13,.12,.03,.24,.06,.36,.08,1.03,.23,2.08,.39,3.16,.48,.13,0,.26,.02,.4,.03,.54,.04,1.08,.06,1.63,.06s1.1-.03,1.64-.06c.13,0,.26-.02,.39-.03,4.92-.42,9.42-2.32,13.03-5.28l26.94,26.94v33.8c0,3.62,2.94,6.56,6.56,6.56l-2.14-196.26Z"/></g><g><g><path class="cls-4" d="M474.52,295.97c0,5.27-10.74,9.55-23.98,9.55s-23.98-4.27-23.98-9.55,10.74-9.55,23.98-9.55,23.98,4.27,23.98,9.55Z"/><g><path class="cls-6" d="M457.09,289.42c0,3.62-2.93,6.56-6.56,6.56h0c-3.62,0-6.56-2.94-6.56-6.56v-56.66c0-3.62,2.94-6.56,6.56-6.56h0c3.62,0,6.56,2.94,6.56,6.56v56.66Z"/><path class="cls-15" d="M457.09,259.1v-26.34c0-3.62-2.93-6.56-6.56-6.56s-6.56,2.94-6.56,6.56v26.34h13.12Z"/><polygon class="cls-16" points="450.53 161.17 499.69 249.52 401.38 249.52 450.53 161.17"/><polygon class="cls-5" points="450.53 118.76 507.55 221.25 393.52 221.25 450.53 118.76"/><polygon class="cls-17" points="450.53 100.03 489.46 170 411.61 170 450.53 100.03"/></g></g><path class="cls-20" d="M450.53,100.03l-38.93,69.98h10.42l-28.51,51.24h23.59l-15.73,28.27h42.59v39.9c0,3.62,2.94,6.56,6.56,6.56V100.03Z"/></g><g><g><path class="cls-4" d="M581.54,353.89c0,5.27-10.74,9.55-23.98,9.55s-23.98-4.28-23.98-9.55,10.74-9.55,23.98-9.55,23.98,4.28,23.98,9.55Z"/><g><path class="cls-6" d="M564.11,347.33c0,3.62-2.93,6.56-6.56,6.56h0c-3.62,0-6.56-2.94-6.56-6.56v-117.62c0-3.62,2.94-6.56,6.56-6.56h0c3.62,0,6.56,2.94,6.56,6.56v117.62Z"/><path class="cls-15" d="M551,231.44v68.72c2.15-.19,4.34-.3,6.56-.3s4.4,.11,6.56,.3v-68.72c-2.14-.3-4.33-.46-6.56-.46s-4.41,.17-6.56,.46Z"/><path class="cls-18" d="M557.56,292.04c13.17,0,25.32,3.52,35.08,9.46,7.43-8.32,11.95-19.28,11.95-31.31,0-25.97-21.06-47.03-47.03-47.03s-47.03,21.06-47.03,47.03c0,12.03,4.52,22.99,11.95,31.31,9.76-5.94,21.91-9.46,35.08-9.46Z"/><path class="cls-7" d="M557.56,244.04c16.84,0,32.37,4.5,44.86,12.09,9.49-10.63,15.27-24.65,15.27-40.03,0-33.21-26.92-60.13-60.13-60.13s-60.13,26.92-60.13,60.13c0,15.38,5.78,29.4,15.27,40.03,12.48-7.59,28.02-12.09,44.86-12.09Z"/></g></g><path class="cls-20" d="M557.56,155.97c-33.21,0-60.13,26.92-60.13,60.13,0,15.36,5.77,29.37,15.25,40-1.4,4.45-2.15,9.18-2.15,14.08,0,12.03,4.52,22.99,11.95,31.31,8.12-4.94,17.89-8.19,28.53-9.15v54.99c0,3.62,2.94,6.56,6.56,6.56V155.97Z"/></g><g><g><path class="cls-4" d="M659.77,381.92c0,5.27-10.74,9.55-23.98,9.55s-23.98-4.27-23.98-9.55,10.74-9.55,23.98-9.55,23.98,4.27,23.98,9.55Z"/><g><path class="cls-17" d="M676.02,232.43c0,22.22-18.01,40.23-40.23,40.23s-40.23-18.01-40.23-40.23,18.01-40.23,40.23-40.23,40.23,18.01,40.23,40.23Z"/><path class="cls-5" d="M622.78,261.68c0,3.16,.37,6.23,1.06,9.18,3.78,1.17,7.79,1.81,11.95,1.81,22.22,0,40.23-18.01,40.23-40.23,0-3.16-.38-6.23-1.06-9.17-3.78-1.17-7.79-1.81-11.95-1.81-22.22,0-40.23,18.01-40.23,40.23Z"/><path class="cls-16" d="M605.48,214.94c-2.09,0-4.14,.16-6.14,.47-2.42,5.17-3.78,10.94-3.78,17.02,0,22.22,18.01,40.23,40.23,40.23,2.09,0,4.14-.16,6.14-.47,2.42-5.17,3.78-10.94,3.78-17.02,0-22.22-18.01-40.23-40.23-40.23Z"/><path class="cls-6" d="M642.35,375.37c0,3.62-2.94,6.56-6.56,6.56h0c-3.62,0-6.56-2.94-6.56-6.56v-56.66c0-3.62,2.94-6.56,6.56-6.56h0c3.62,0,6.56,2.94,6.56,6.56v56.66Z"/><path class="cls-15" d="M635.79,312.15c-3.62,0-6.56,2.94-6.56,6.56v25.94c2.15,.29,4.33,.45,6.56,.45s4.41-.16,6.56-.45v-25.94c0-3.62-2.94-6.56-6.56-6.56Z"/><path class="cls-17" d="M684.95,286.08c0,27.15-22.01,49.15-49.15,49.15s-49.15-22.01-49.15-49.15,22.01-49.15,49.15-49.15,49.15,22.01,49.15,49.15Z"/><path class="cls-5" d="M619.89,321.81c0,3.86,.46,7.61,1.3,11.21,4.61,1.43,9.52,2.21,14.6,2.21,27.15,0,49.15-22.01,49.15-49.15,0-3.86-.46-7.61-1.3-11.21-4.61-1.43-9.52-2.21-14.6-2.21-27.15,0-49.15,22.01-49.15,49.15Z"/><path class="cls-16" d="M598.76,264.71c-2.55,0-5.05,.19-7.5,.57-2.96,6.32-4.62,13.36-4.62,20.8,0,27.15,22.01,49.15,49.15,49.15,2.55,0,5.05-.19,7.5-.57,2.96-6.32,4.62-13.36,4.62-20.8,0-27.15-22.01-49.15-49.15-49.15Z"/></g></g><path class="cls-20" d="M635.79,192.2c-16.87,0-31.3,10.39-37.28,25.11-.03,.07-.05,.13-.08,.2-.23,.57-.45,1.15-.65,1.74-.04,.12-.08,.24-.12,.36-.18,.53-.35,1.07-.51,1.62-.05,.16-.09,.32-.14,.48-.14,.51-.27,1.02-.39,1.53-.04,.19-.09,.39-.13,.58-.11,.49-.2,.98-.29,1.47-.04,.22-.08,.44-.12,.66-.08,.48-.14,.97-.2,1.46-.03,.23-.06,.46-.09,.69-.05,.51-.09,1.02-.13,1.53-.01,.21-.04,.42-.05,.63-.04,.72-.06,1.45-.06,2.18,0,7.04,1.81,13.65,4.99,19.4-3.8,3.91-6.95,8.45-9.29,13.44h0s0,0,0,0c-.36,.76-.69,1.53-1.01,2.31-.03,.08-.06,.16-.1,.24-.28,.7-.54,1.41-.79,2.13-.05,.14-.1,.28-.14,.43-.22,.66-.43,1.32-.62,1.99-.05,.19-.11,.38-.16,.57-.17,.62-.33,1.25-.48,1.89-.05,.23-.11,.46-.16,.69-.13,.6-.25,1.21-.36,1.82-.05,.26-.1,.52-.14,.79-.1,.59-.18,1.19-.25,1.79-.04,.28-.08,.55-.11,.83-.07,.62-.11,1.25-.16,1.88-.02,.26-.04,.51-.06,.77-.05,.88-.08,1.77-.08,2.66,0,22.06,14.54,40.73,34.55,46.95h0c.69,.21,1.39,.41,2.09,.59,.21,.06,.42,.11,.63,.16,.52,.13,1.05,.25,1.58,.37,.22,.05,.43,.09,.65,.14,.71,.14,1.42,.27,2.13,.38,.02,0,.03,0,.04,0,.31,.05,.61,.08,.92,.12v40.58c0,3.62,2.94,6.56,6.56,6.56V192.2Z"/></g><g><g><path class="cls-4" d="M396.72,370.77c0,5.27-10.74,9.55-23.98,9.55s-23.98-4.27-23.98-9.55,10.74-9.55,23.98-9.55,23.98,4.27,23.98,9.55Z"/><g><path class="cls-17" d="M412.97,221.27c0,22.22-18.01,40.23-40.23,40.23s-40.23-18.01-40.23-40.23,18.01-40.23,40.23-40.23,40.23,18.01,40.23,40.23Z"/><path class="cls-5" d="M359.73,250.52c0,3.16,.37,6.23,1.06,9.18,3.78,1.17,7.79,1.81,11.95,1.81,22.22,0,40.23-18.01,40.23-40.23,0-3.16-.38-6.23-1.06-9.17-3.78-1.17-7.79-1.81-11.95-1.81-22.22,0-40.23,18.01-40.23,40.23Z"/><path class="cls-16" d="M342.43,203.78c-2.09,0-4.14,.16-6.14,.47-2.42,5.17-3.78,10.94-3.78,17.02,0,22.22,18.01,40.23,40.23,40.23,2.09,0,4.14-.16,6.14-.47,2.42-5.17,3.78-10.94,3.78-17.02,0-22.22-18.01-40.23-40.23-40.23Z"/><path class="cls-6" d="M379.3,364.21c0,3.62-2.94,6.56-6.56,6.56h0c-3.62,0-6.56-2.94-6.56-6.56v-56.66c0-3.62,2.94-6.56,6.56-6.56h0c3.62,0,6.56,2.94,6.56,6.56v56.66Z"/><path class="cls-15" d="M372.74,300.99c-3.62,0-6.56,2.94-6.56,6.56v25.94c2.15,.29,4.33,.45,6.56,.45s4.41-.16,6.56-.45v-25.94c0-3.62-2.94-6.56-6.56-6.56Z"/><path class="cls-17" d="M421.89,274.92c0,27.15-22.01,49.15-49.15,49.15s-49.15-22.01-49.15-49.15,22.01-49.15,49.15-49.15,49.15,22.01,49.15,49.15Z"/><path class="cls-5" d="M356.84,310.65c0,3.86,.46,7.61,1.3,11.21,4.61,1.43,9.52,2.21,14.6,2.21,27.15,0,49.15-22.01,49.15-49.15,0-3.86-.46-7.61-1.3-11.21-4.61-1.43-9.52-2.21-14.6-2.21-27.15,0-49.15,22.01-49.15,49.15Z"/><path class="cls-16" d="M335.7,253.55c-2.55,0-5.05,.19-7.5,.57-2.96,6.32-4.62,13.36-4.62,20.8,0,27.15,22.01,49.15,49.15,49.15,2.55,0,5.05-.19,7.5-.57,2.96-6.32,4.62-13.36,4.62-20.8,0-27.15-22.01-49.15-49.15-49.15Z"/></g></g><path class="cls-20" d="M372.74,181.04c-16.87,0-31.3,10.39-37.28,25.11-.03,.07-.05,.13-.08,.2-.23,.57-.45,1.15-.65,1.74-.04,.12-.08,.24-.12,.36-.18,.53-.35,1.07-.51,1.62-.05,.16-.09,.32-.14,.48-.14,.51-.27,1.02-.39,1.53-.04,.19-.09,.39-.13,.58-.11,.49-.2,.98-.29,1.47-.04,.22-.08,.44-.12,.66-.08,.48-.14,.97-.2,1.46-.03,.23-.06,.46-.09,.69-.05,.51-.09,1.02-.13,1.53-.01,.21-.04,.42-.05,.63-.04,.72-.06,1.45-.06,2.18,0,7.04,1.81,13.65,4.99,19.4-3.8,3.91-6.95,8.45-9.29,13.44h0s0,0,0,0c-.36,.76-.69,1.53-1.01,2.31-.03,.08-.06,.16-.1,.24-.28,.7-.54,1.41-.79,2.13-.05,.14-.1,.28-.14,.43-.22,.66-.43,1.32-.62,1.99-.05,.19-.11,.38-.16,.57-.17,.62-.33,1.25-.48,1.89-.05,.23-.11,.46-.16,.69-.13,.6-.25,1.21-.36,1.82-.05,.26-.1,.52-.14,.79-.1,.59-.18,1.19-.25,1.79-.04,.28-.08,.55-.11,.83-.07,.62-.11,1.25-.16,1.88-.02,.26-.04,.51-.06,.77-.05,.88-.08,1.77-.08,2.66,0,22.06,14.54,40.73,34.55,46.95h0c.69,.21,1.39,.41,2.09,.59,.21,.06,.42,.11,.63,.16,.52,.13,1.05,.25,1.58,.37,.22,.05,.43,.09,.65,.14,.71,.14,1.42,.27,2.13,.38,.02,0,.03,0,.04,0,.31,.05,.61,.08,.92,.12v40.58c0,3.62,2.94,6.56,6.56,6.56V181.04Z"/></g><g><g><ellipse class="cls-4" cx="174.9" cy="321.54" rx="23.98" ry="9.55"/><g><path class="cls-6" d="M181.46,316.09c0,3.62-2.93,6.56-6.56,6.56h0c-3.62,0-6.56-2.94-6.56-6.56v-60.84c0-3.62,2.94-6.56,6.56-6.56h0c3.62,0,6.56,2.94,6.56,6.56v60.84Z"/><path class="cls-15" d="M181.46,274.02v-18.78c0-3.62-2.93-6.56-6.56-6.56s-6.56,2.94-6.56,6.56v18.78h13.12Z"/><path class="cls-16" d="M153.31,133.21h43.18c24.69,0,44.74,20.05,44.74,44.74v43.18c0,24.69-20.05,44.74-44.74,44.74h-43.18c-24.69,0-44.74-20.05-44.74-44.74v-43.18c0-24.69,20.05-44.74,44.74-44.74Z"/><path class="cls-5" d="M174.71,165.18c-16.39-18.37-44.52-20.03-62.96-3.78-2.04,5.12-3.17,10.7-3.17,16.55v43.18c0,24.71,20.03,44.74,44.74,44.74h40.6l5.94-5.29c18.44-16.45,20.05-44.73,3.6-63.17l-28.74-32.22Z"/><path class="cls-17" d="M225.84,193.7c-22.52-10.17-49.02-.16-59.19,22.36l-17.77,39.35c-1.45,3.21-2.48,6.51-3.13,9.82,2.46,.42,4.99,.65,7.57,.65h43.18c24.71,0,44.74-20.03,44.74-44.74v-20.48l-15.39-6.95Z"/></g></g><path class="cls-20" d="M173.14,133.21h-19.83c-19.59,0-36.23,12.6-42.29,30.13,0,0,0,.01,0,.02-.22,.64-.43,1.29-.62,1.94-.01,.04-.02,.07-.03,.11-.18,.62-.35,1.25-.51,1.88-.02,.08-.04,.17-.06,.26-.14,.59-.27,1.18-.39,1.78-.03,.15-.05,.31-.08,.46-.1,.54-.2,1.08-.28,1.62-.04,.24-.06,.49-.09,.73-.06,.46-.12,.93-.17,1.4-.04,.38-.06,.75-.08,1.13-.03,.35-.06,.7-.08,1.05-.04,.74-.06,1.48-.06,2.23v43.18c0,22.72,16.94,41.47,38.88,44.35,.11,.02,.23,.03,.34,.04,.5,.06,.99,.12,1.49,.16,.28,.03,.55,.04,.83,.06,.37,.03,.75,.06,1.12,.07,.69,.03,1.38,.05,2.08,.05h15.03v50.22c0,3.01,2.03,5.54,4.79,6.31V133.21Z"/></g><g><g><path class="cls-4" d="M95.96,363.86c0,5.27-10.74,9.55-23.98,9.55s-23.98-4.27-23.98-9.55,10.74-9.55,23.98-9.55,23.98,4.27,23.98,9.55Z"/><g><path class="cls-6" d="M78.53,357.3c0,3.62-2.94,6.56-6.56,6.56h0c-3.62,0-6.56-2.94-6.56-6.56v-40.22c0-3.62,2.94-6.56,6.56-6.56h0c3.62,0,6.56,2.94,6.56,6.56v40.22Z"/><path class="cls-15" d="M71.97,325.48c2.23,0,4.42-.18,6.56-.53v-7.87c0-3.62-2.94-6.56-6.56-6.56s-6.56,2.94-6.56,6.56v7.86c2.14,.34,4.32,.54,6.56,.54Z"/><path class="cls-9" d="M113.05,278.3c0,22.68-18.39,41.07-41.08,41.07h0c-22.68,0-41.07-18.39-41.07-41.07v-65.31c0-22.68,18.39-41.08,41.07-41.08h0c22.69,0,41.08,18.39,41.08,41.08v65.31Z"/><path class="cls-7" d="M76.83,253.58l-17.05-63.04c-1.41-5.2-3.76-9.89-6.81-13.95-13.11,6.86-22.06,20.58-22.06,36.41v65.31c0,10.29,3.79,19.69,10.05,26.9,2.31-.22,4.64-.62,6.95-1.25,21.9-5.92,34.85-28.48,28.93-50.37Z"/><path class="cls-18" d="M75.23,226l-31,57.48c-3.38,6.27-4.96,13.04-4.93,19.69,7.5,9.84,19.35,16.2,32.68,16.2,22.69,0,41.08-18.39,41.08-41.07v-65.31c0-2.93-.31-5.79-.9-8.55-14.87-.27-29.38,7.57-36.92,21.57Z"/></g></g><path class="cls-20" d="M71.97,171.92c-6.86,0-13.33,1.69-19.01,4.67h0c-.4,.21-.79,.43-1.19,.65-.03,.02-.06,.04-.09,.05-1.15,.66-2.27,1.37-3.35,2.13-.06,.04-.11,.08-.17,.12-1.04,.74-2.05,1.54-3.02,2.37-.08,.07-.15,.13-.23,.2-.31,.27-.62,.55-.92,.83-.02,.02-.04,.04-.06,.05-.58,.55-1.15,1.11-1.7,1.69-.09,.1-.19,.19-.28,.29-.25,.27-.5,.55-.75,.83-.11,.13-.22,.26-.33,.39-.41,.48-.81,.96-1.2,1.46-.12,.15-.24,.3-.36,.46-.2,.26-.39,.53-.59,.79-.14,.2-.28,.4-.42,.6-.18,.25-.36,.51-.53,.76-.27,.4-.53,.81-.78,1.22-.15,.24-.28,.47-.42,.71-.16,.26-.31,.53-.46,.8-.13,.23-.26,.47-.39,.7-.23,.44-.46,.88-.68,1.33-.1,.2-.19,.4-.29,.61-.16,.35-.32,.7-.48,1.05-.09,.21-.18,.42-.27,.64-.17,.41-.33,.83-.49,1.25-.06,.15-.12,.3-.17,.46-.18,.5-.35,1.01-.51,1.51-.06,.19-.12,.38-.18,.57-.13,.43-.25,.86-.37,1.3-.04,.15-.08,.29-.12,.44-.14,.56-.27,1.13-.39,1.71-.03,.16-.06,.32-.09,.48-.09,.46-.17,.93-.25,1.4-.03,.16-.05,.32-.08,.48-.09,.6-.17,1.2-.23,1.8-.01,.11-.02,.22-.03,.33-.05,.52-.09,1.04-.12,1.56,0,.17-.02,.34-.03,.51-.03,.63-.05,1.25-.05,1.88v65.31c0,.68,.02,1.35,.05,2.02,.01,.23,.03,.46,.05,.69,.03,.43,.06,.87,.1,1.3,.03,.28,.06,.56,.1,.84,.04,.37,.09,.74,.14,1.11,.05,.31,.1,.62,.15,.92,.06,.33,.11,.66,.18,.99,.06,.33,.13,.65,.21,.98,.07,.3,.13,.6,.21,.89,.08,.35,.17,.69,.26,1.03,.07,.26,.15,.52,.22,.78,.11,.37,.22,.73,.34,1.1,.07,.22,.14,.43,.22,.65,.14,.4,.27,.79,.42,1.19,.06,.15,.12,.3,.17,.45,.18,.45,.36,.9,.55,1.35,0,0,0,.02,0,.02,1.63,3.75,3.8,7.22,6.42,10.29,.06,.07,.12,.14,.18,.21,.02,.03,.05,.06,.07,.09,0,0,0,0,0,0h0c.41,.47,.82,.92,1.25,1.37,.08,.08,.15,.16,.23,.24,.46,.48,.94,.95,1.43,1.41,.06,.05,.11,.11,.17,.16,1.66,1.54,3.43,2.94,5.33,4.19,.1,.07,.2,.13,.3,.19,.51,.33,1.03,.66,1.56,.97,.16,.09,.31,.18,.47,.27,.49,.28,.98,.54,1.48,.8,.17,.09,.35,.18,.53,.27,.51,.26,1.03,.5,1.55,.73,.16,.07,.31,.15,.47,.21,.66,.29,1.33,.56,2,.81,.02,0,.04,.01,.06,.02,.71,.26,1.43,.5,2.16,.73,.15,.05,.3,.08,.45,.13,.56,.16,1.12,.32,1.69,.46,.24,.06,.49,.11,.74,.17,.49,.11,.97,.21,1.46,.31,.27,.05,.55,.1,.82,.15,.11,.02,.22,.04,.33,.06v38.45c0,3.62,2.94,6.56,6.56,6.56V171.92Z"/></g><g><g><path class="cls-4" d="M264.9,356.92c0,5.27-10.74,9.55-23.98,9.55s-23.98-4.28-23.98-9.55,10.74-9.55,23.98-9.55,23.98,4.28,23.98,9.55Z"/><g><path class="cls-6" d="M247.48,350.36c0,3.62-2.94,6.56-6.56,6.56h0c-3.62,0-6.56-2.94-6.56-6.56v-48.31c0-3.62,2.94-6.56,6.56-6.56h0c3.62,0,6.56,2.94,6.56,6.56v48.31Z"/><path class="cls-15" d="M240.92,318.41c2.29,0,4.46-.09,6.56-.25v-16.11c0-3.62-2.94-6.56-6.56-6.56s-6.56,2.94-6.56,6.56v16.12c2.09,.16,4.28,.24,6.56,.24Z"/><path class="cls-17" d="M279.24,229.83c14.74,55.07,4.25,82.33-38.32,82.33h0c-42.57,0-53.06-27.25-38.32-82.33l16.18-51.62c3.06-11.44,12.66-18.62,22.14-18.62h0c9.47,0,19.08,7.19,22.14,18.62l16.18,51.62Z"/><path class="cls-5" d="M284.89,279.49c-5.18-10.91-14.34-22.97-27.28-36.3l-39.29-37.19c-2.04-2.1-4.3-3.77-6.67-5.04l-9.05,28.87c-14.73,55.07-4.25,82.33,38.32,82.33,26.85,0,40.92-10.85,43.97-32.67Z"/><path class="cls-16" d="M277.13,229.2c-8.81-3.48-20.38-.32-27.43,9.19l-34.01,42.07c-4.52,6.11-8.44,11.91-11.75,17.43,7.09,9.51,19.24,14.26,36.99,14.26,42.46,0,52.99-27.11,38.43-81.88-.72-.4-1.46-.77-2.23-1.07Z"/></g></g><path class="cls-20" d="M240.92,159.59c-9.47,0-19.08,7.19-22.14,18.62l-16.18,51.62c-8.59,32.12-8.59,54.76,1.33,68.06h0s0,0,0,0c.42,.57,.87,1.12,1.33,1.65,.04,.05,.09,.1,.13,.15,.46,.53,.93,1.04,1.43,1.53,.02,.02,.04,.04,.05,.05,2,1.98,4.29,3.68,6.87,5.12,.16,.09,.33,.19,.5,.28,.52,.28,1.05,.54,1.6,.8,.25,.12,.5,.23,.76,.35,.52,.23,1.05,.46,1.59,.67,.3,.12,.62,.23,.93,.35,.53,.19,1.05,.39,1.6,.56,.37,.12,.76,.22,1.13,.34,.85,.25,1.72,.48,2.61,.69,.55,.13,1.09,.26,1.65,.38,.45,.09,.91,.17,1.36,.25,.58,.1,1.16,.2,1.75,.29,.45,.07,.92,.13,1.38,.19,.64,.08,1.28,.15,1.94,.22,.44,.04,.89,.09,1.34,.12,.16,.01,.32,.03,.48,.04v38.44c0,3.62,2.94,6.56,6.56,6.56V159.59Z"/></g><g><ellipse class="cls-4" cx="471.57" cy="367.52" rx="21.04" ry="8.43"/><g><path class="cls-2" d="M458.74,308.39c1.61-.47,1.66-.18,1.86-.24,.24-.08,2.19-2.72,2.19-2.72,0,0,5.81-7.75,6.11-8.18l1.83-10.03,5.51-.04s-2.3,10.83-2.53,11.37-9.44,10.01-10.22,10.87c0,0-.5,1.4-.85,2.27-.35,.87-1.09,1.5-1.23,1.72-.02,.03-.53,.75-1.42,1.46-.76,.6-.36-.34-.36-.34,0,0,1.18-1.39,1.04-1.47-.11-.06-.7,.74-1.54,1.41-.22,.17-.43,.35-.63,.5-.52,.41-.96,.19-.49-.33,.16-.18,.44-.48,.68-.66,.25-.2,.41-.46,.59-.66,.36-.39,.63-.68,.61-.68-.03,0-.02-.14-.26,.04-.28,.21-.77,.81-1.21,1.09-.25,.16-.75,.52-.75,.52,0,0-.88,.4-.93,.36-.25-.24,.25-.69,.63-.86,.17-.23,.71-.6,.71-.6,0,0,.9-1,.74-1.14-.07-.06-.7,.48-1.42,.91-.67,.4-1.42,.69-1.53,.56-.19-.21,.49-.73,.49-.73,0,0,.5-.34,.66-.47,.18-.15,.69-.63,.69-.63,0,0,1.68-1.78,1.52-1.9-.16-.12-.68-.28-.83-.21-.15,.07-.33,.35-.48,.42-.15,.07-.42,.04-.54-.14-.12-.18,.43-.8,.43-.8,0,0,.45-.5,.92-.64Z"/><path class="cls-1" d="M467.88,358.72s.2,3.46,.2,3.47c.07,.44,.36,1.53,.36,1.92,0,1.5-6.68-1.27-5.18-1.94,.14-.06,.85-.52,.89-1.03,.07-.79,.24-2.38,.24-2.38l3.5-.05Z"/><path class="cls-12" d="M463.27,362.15s1.57,.46,2.37,.57c.8,.11,1.86-.85,2.43-.59,.63,.29,.56,3.12,.56,3.12,0,0-8.37,.49-10.73-.27-.94-.3,2.17-1.76,5.37-2.83Z"/><path class="cls-1" d="M482.59,359.05s.2,3.46,.2,3.47c.07,.44,.36,1.53,.36,1.92,0,1.5-6.68-1.27-5.18-1.94,.14-.06,1.06-.86,1.1-1.37,.07-.79,.03-2.04,.03-2.04l3.5-.05Z"/><path class="cls-12" d="M477.98,362.49s1.57,.46,2.37,.57c.8,.11,1.86-.85,2.43-.59,.63,.29,.65,2.87,.65,2.87,0,0-8.95,.65-11.05,.04-.95-.27,2.39-1.83,5.6-2.9Z"/><path class="cls-11" d="M472.01,309.08l-2.82,1.22-5.94,28.36,.24,21.26,4.76,.11s2.21-18.6,2.21-20.04,10.26-25.22,10.26-25.22l-8.71-5.69Z"/><path class="cls-14" d="M474.19,310.65s2.08,21.85,2.08,25.53,1.69,24.3,1.69,24.3l4.77-.03s.34-6.28,.86-15.53c.08-1.45-.1-4.37,0-5.87,.74-10.78,2.21-20.93,1.51-24.95-.11-.65-.32-2.34-.74-2.77-3.12-3.23-10.16-.69-10.16-.69Z"/><path class="cls-13" d="M468.37,293.4l5.77-.39s.28-5.16,.28-7.62c0-2.99,.91-7.39,.55-7.31-1,.23-2.72,1.15-3.52,2.27-2.77,3.86-3.09,13.05-3.09,13.05Z"/><path class="cls-19" d="M482.05,277.97s3.29,.46,4.16,1.09c.98,.72,2.06,2.32,2.06,2.32,0,0-4.04,19.11-4.05,22.32,0,2.49,.88,8.6,.88,8.6,0,0-12.22,.77-16.84-1.06,0,0,1.46-7.26,1.46-9.17s1.75-19.25,2.15-20.47c.36-1.1,1.02-3.07,3.25-3.56,2.23-.49,6.94-.08,6.94-.08Z"/><path class="cls-1" d="M481.15,272.83l.82,5.34s-2.98,6.35-4.75,5.8c-1.49-.46-.57-6.08-.57-6.08,0,0,.81-3.02,.57-4.53-.24-1.51,3.94-.52,3.94-.52Z"/><path class="cls-3" d="M477.2,273.35c-.24-1.51,3.94-.52,3.94-.52l.07,.44c-.12,.3-.27,.55-.45,.74-.94,1-2.4,1.6-3.66,1.65,.13-.81,.2-1.69,.1-2.31Z"/><g><path class="cls-1" d="M481.83,265.28c.12-.04,.95,6.08-.63,7.76-1.58,1.68-4.64,2.24-5.75,.91-1.22-1.47-1.16-8.04,1.29-9.78,2.45-1.73,5.08,1.11,5.08,1.11Z"/><path class="cls-10" d="M477.69,260.9c1.89,.38,3.12,1.53,3.57,2.02,.86,.1,2.03,.57,3.23,2.56,1.48,2.44,.39,5.14-1.34,6.47-1.73,1.33-1.71,2.87-1.71,2.87l-.27-.8c-.2-.6-.28-1.24-.22-1.87,.04-.38,.12-.79,.28-1.12,.42-.89-.89-1.47-1.26-2.21-.28-.57-.3-1.87-.74-2.8l-.53-.72s-1.23-.95-2.42-.68c-1.2,.27-1.03-4.21,1.4-3.72Z"/><path class="cls-1" d="M480.06,269.9c-.01,.75,.33,1.36,.76,1.37,.43,0,.8-.59,.81-1.34,.01-.75-.33-1.36-.76-1.37-.43,0-.8,.59-.81,1.34Z"/></g><rect class="cls-10" x="467.8" y="291.52" width="1.32" height="10.44" rx=".43" ry=".43" transform="translate(96.09 707.66) rotate(-80.17)"/><path class="cls-1" d="M487.03,280.43c-1.11-.03-2.09,7.28-1.39,8,.7,.72,.84,9.72,.84,9.72l-10.45-.26h0c-.2-.13-2.39-1.6-2.71-1.92-.33-.34-1.92-.17-2.35,.29-.42,.46,.94,.08,1.31,.34,.38,.25-.28,.89-.28,.89,0,0-2.65,.38-3.16-.16-.52-.55-1.9-1.48-2.08-.93-.1,.28,.61,1.14,1.02,1.5-.5-.37-1.1-.77-1.3-.7-.38,.13-.22,.6-.02,.74,.2,.14,2.31,1.75,2.63,1.86,.32,.11,5.21,.23,6.06,.42,0,0,13.78,3.14,14.57,2.94,.69-.17,1.37-4.58,1.37-7.96s-.59-14.66-4.06-14.76Z"/><path class="cls-19" d="M485.6,278.76s1.93,.44,3.92,2.68c1.81,2.04,2.95,13.43,2.95,13.43l-6.25,1.01-.5-5.51-1.67-2.52,1.55-9.09Z"/></g></g></g></g></svg>