<?xml version="1.0" encoding="UTF-8"?><svg xmlns="http://www.w3.org/2000/svg" viewBox="0 0 800 402.15"><defs><style>.cls-1{fill:#f7a491;}.cls-2{fill:#f48c7f;}.cls-3{fill:#f47458;}.cls-4{fill:#e8e8e8;}.cls-5{fill:#658a00;}.cls-6{fill:#995900;}.cls-7{fill:#98b300;}.cls-8{fill:#8cbf00;}.cls-9{fill:#abc900;}.cls-10{fill:#13375b;}.cls-11{fill:#184655;}.cls-12{fill:#3c8f7c;}.cls-13{fill:#704100;}.cls-14{fill:#8140ff;}.cls-15{fill:#637500;}.cls-16{fill:#79a500;}.cls-17{fill:#829900;}.cls-18{fill:#50bfa5;}.cls-19{fill:#687a00;mix-blend-mode:multiply;opacity:.2;}.cls-20{isolation:isolate;}</style></defs><g class="cls-20"><g id="OBJECTS"><g><g><path class="cls-4" d="M370.8,222.18c0,5.27-10.74,9.55-23.98,9.55s-23.98-4.28-23.98-9.55,10.74-9.55,23.98-9.55,23.98,4.28,23.98,9.55Z"/><g><path class="cls-13" d="M344.41,166.34c-1.23,2.01-.6,4.64,1.41,5.87h0c2.01,1.23,4.64,.6,5.87-1.41l33.14-54.13c1.23-2.01,.6-4.64-1.41-5.87h0c-2.01-1.23-4.64-.6-5.87,1.41l-33.14,54.13Z"/><path class="cls-13" d="M347.72,169.08c1.21,2.02,.55,4.65-1.47,5.86h0c-2.02,1.21-4.65,.55-5.86-1.47l-50.22-79.42c-1.21-2.02-.55-4.64,1.47-5.86h0c2.02-1.21,4.65-.55,5.86,1.47l50.22,79.42Z"/><path class="cls-6" d="M353.9,215.62c0,3.62-2.93,6.56-6.56,6.56h0c-3.62,0-6.56-2.94-6.56-6.56V111.83c0-3.62,2.94-6.55,6.56-6.55h0c3.62,0,6.56,2.94,6.56,6.55v103.8Z"/><path class="cls-13" d="M347.34,105.27c-3.62,0-6.56,2.94-6.56,6.55v31.43c2.81-1.46,5.37-3.34,7.59-5.56,1.74,1.04,3.59,1.9,5.53,2.59v-28.46c0-3.62-2.93-6.55-6.56-6.55Z"/><g><path class="cls-9" d="M374.57,50.14c0,17-13.79,30.79-30.79,30.79s-30.79-13.78-30.79-30.79,13.78-30.79,30.79-30.79,30.79,13.79,30.79,30.79Z"/><path class="cls-7" d="M333.82,72.53c0,2.42,.29,4.77,.81,7.02,2.89,.9,5.96,1.38,9.15,1.38,17,0,30.79-13.78,30.79-30.79,0-2.42-.29-4.77-.81-7.02-2.89-.9-5.96-1.38-9.15-1.38-17,0-30.79,13.78-30.79,30.79Z"/><path class="cls-17" d="M320.58,36.76c-1.6,0-3.17,.12-4.7,.36-1.85,3.96-2.89,8.37-2.89,13.03,0,17,13.78,30.79,30.79,30.79,1.6,0,3.17-.12,4.7-.35,1.85-3.96,2.89-8.37,2.89-13.03,0-17-13.78-30.79-30.79-30.79Z"/></g><g><circle class="cls-8" cx="301.17" cy="76.86" r="30.79"/><path class="cls-16" d="M291.21,99.24c0,2.42,.29,4.77,.81,7.03,2.89,.9,5.96,1.38,9.15,1.38,17,0,30.79-13.78,30.79-30.79,0-2.42-.29-4.77-.81-7.02-2.89-.9-5.96-1.38-9.15-1.38-17,0-30.79,13.78-30.79,30.79Z"/><path class="cls-5" d="M277.97,63.47c-1.6,0-3.17,.12-4.7,.36-1.85,3.95-2.89,8.37-2.89,13.03,0,17.01,13.78,30.79,30.79,30.79,1.6,0,3.16-.12,4.7-.36,1.85-3.96,2.89-8.37,2.89-13.03,0-17-13.79-30.79-30.79-30.79Z"/></g><g><path class="cls-8" d="M422.18,70.7c0,17.01-13.78,30.79-30.79,30.79s-30.79-13.78-30.79-30.79,13.78-30.79,30.79-30.79,30.79,13.79,30.79,30.79Z"/><path class="cls-16" d="M381.43,93.08c0,2.42,.29,4.77,.81,7.02,2.89,.9,5.96,1.38,9.15,1.38,17,0,30.79-13.78,30.79-30.79,0-2.42-.29-4.76-.81-7.02-2.89-.9-5.96-1.38-9.15-1.38-17,0-30.79,13.79-30.79,30.79Z"/><path class="cls-5" d="M368.19,57.31c-1.6,0-3.17,.12-4.7,.36-1.85,3.96-2.89,8.37-2.89,13.03,0,17.01,13.78,30.79,30.79,30.79,1.6,0,3.16-.12,4.7-.36,1.85-3.96,2.89-8.37,2.89-13.03,0-17.01-13.78-30.79-30.79-30.79Z"/></g><g><circle class="cls-9" cx="364.15" cy="102.97" r="30.79" transform="translate(33.85 287.65) rotate(-45)"/><path class="cls-7" d="M354.19,125.35c0,2.42,.29,4.77,.81,7.02,2.89,.9,5.96,1.38,9.15,1.38,17.01,0,30.79-13.78,30.79-30.79,0-2.42-.29-4.77-.81-7.02-2.89-.9-5.96-1.38-9.15-1.38-17,0-30.79,13.78-30.79,30.79Z"/><path class="cls-17" d="M340.95,89.58c-1.6,0-3.17,.12-4.7,.36-1.85,3.96-2.89,8.37-2.89,13.03,0,17.01,13.78,30.79,30.79,30.79,1.6,0,3.17-.12,4.7-.36,1.85-3.96,2.89-8.37,2.89-13.03,0-17-13.79-30.79-30.79-30.79Z"/></g><g><path class="cls-9" d="M357.38,107.64c0,17-13.78,30.79-30.79,30.79s-30.79-13.78-30.79-30.79,13.79-30.79,30.79-30.79,30.79,13.79,30.79,30.79Z"/><path class="cls-7" d="M316.64,130.03c0,2.42,.29,4.77,.81,7.02,2.89,.9,5.96,1.38,9.15,1.38,17.01,0,30.79-13.78,30.79-30.79,0-2.42-.29-4.77-.81-7.02-2.89-.9-5.96-1.38-9.15-1.38-17,0-30.79,13.78-30.79,30.79Z"/><path class="cls-17" d="M303.4,94.26c-1.6,0-3.17,.12-4.7,.36-1.85,3.96-2.89,8.37-2.89,13.03,0,17,13.79,30.79,30.79,30.79,1.6,0,3.17-.12,4.7-.35,1.85-3.96,2.89-8.37,2.89-13.03,0-17-13.79-30.79-30.79-30.79Z"/></g></g></g><path class="cls-19" d="M343.78,19.35c-12.35,0-22.99,7.27-27.9,17.76h0s0,0,0,0c-.22,.48-.43,.96-.63,1.45-.02,.05-.04,.1-.06,.16-.17,.44-.34,.88-.5,1.33-.03,.09-.06,.18-.09,.27-.14,.41-.27,.82-.39,1.24-.04,.12-.07,.24-.1,.36-.11,.39-.21,.78-.3,1.18-.03,.15-.07,.29-.1,.44-.08,.38-.16,.75-.22,1.13-.03,.17-.06,.33-.09,.49-.06,.37-.11,.75-.16,1.12-.02,.17-.05,.35-.07,.52-.04,.39-.07,.78-.1,1.18-.01,.15-.03,.3-.04,.45-3.65-1.53-7.66-2.37-11.86-2.37-12.91,0-23.96,7.95-28.53,19.21-.02,.05-.04,.11-.06,.16-.18,.44-.34,.88-.5,1.32-.03,.09-.06,.18-.09,.28-.14,.41-.27,.82-.39,1.24-.04,.12-.07,.24-.1,.37-.11,.39-.21,.78-.3,1.17-.03,.15-.07,.3-.1,.44-.08,.38-.16,.75-.22,1.13-.03,.16-.06,.33-.09,.5-.06,.37-.11,.74-.16,1.12-.02,.17-.05,.35-.07,.52-.04,.39-.07,.78-.1,1.18-.01,.16-.03,.32-.04,.48-.03,.55-.05,1.11-.05,1.67,0,13.82,9.1,25.51,21.64,29.41h0s.07,.02,.1,.03c.6,.18,1.21,.35,1.82,.49,.18,.04,.36,.09,.54,.12,.44,.1,.88,.18,1.32,.26,0,.16-.01,.31-.01,.47,0,13.79,9.06,25.45,21.54,29.38l23.05,36.45c.11,.19,.25,.36,.39,.52v41.63c0,3.62,2.94,6.56,6.56,6.56l-3.57-202.83Zm-1.41,61.85c-.2-.12-.4-.23-.6-.35,.31,.02,.61,.04,.92,.05-.1,.1-.21,.2-.32,.3Zm-14.06,57.18c.13,0,.26-.02,.39-.03,.18-.01,.35-.03,.53-.04,.66-.06,1.32-.13,1.97-.22,.03,0,.06,0,.09,0t0,0c3.38-.52,6.57-1.59,9.49-3.11v23.14l-12.47-19.73Z"/></g><g><g><path class="cls-4" d="M110.79,242.68c0,5.27-10.74,9.55-23.98,9.55s-23.98-4.27-23.98-9.55,10.74-9.55,23.98-9.55,23.98,4.27,23.98,9.55Z"/><g><path class="cls-6" d="M93.37,236.13c0,3.62-2.94,6.56-6.56,6.56h0c-3.62,0-6.56-2.94-6.56-6.56v-40.22c0-3.62,2.94-6.56,6.56-6.56h0c3.62,0,6.56,2.94,6.56,6.56v40.22Z"/><path class="cls-13" d="M86.81,204.31c2.23,0,4.42-.18,6.56-.53v-7.87c0-3.62-2.94-6.56-6.56-6.56s-6.56,2.94-6.56,6.56v7.86c2.14,.34,4.32,.54,6.56,.54Z"/><path class="cls-9" d="M127.88,157.13c0,22.68-18.39,41.07-41.08,41.07h0c-22.68,0-41.07-18.39-41.07-41.07V91.82c0-22.68,18.39-41.08,41.07-41.08h0c22.69,0,41.08,18.39,41.08,41.08v65.31Z"/><path class="cls-7" d="M91.66,132.41l-17.05-63.04c-1.41-5.2-3.76-9.89-6.81-13.95-13.11,6.86-22.06,20.58-22.06,36.41v65.31c0,10.29,3.79,19.69,10.05,26.9,2.31-.22,4.64-.62,6.95-1.25,21.9-5.92,34.85-28.48,28.93-50.37Z"/><path class="cls-17" d="M90.06,104.83l-31,57.48c-3.38,6.27-4.96,13.04-4.93,19.69,7.5,9.84,19.35,16.2,32.68,16.2,22.69,0,41.08-18.39,41.08-41.07V91.82c0-2.93-.31-5.79-.9-8.55-14.87-.27-29.38,7.57-36.92,21.57Z"/></g></g><path class="cls-19" d="M86.81,50.75c-6.86,0-13.33,1.69-19.01,4.67h0c-.4,.21-.79,.43-1.19,.65-.03,.02-.06,.04-.09,.05-1.15,.66-2.27,1.37-3.35,2.13-.06,.04-.11,.08-.17,.12-1.04,.74-2.05,1.54-3.02,2.37-.08,.07-.15,.13-.23,.2-.31,.27-.62,.55-.92,.83-.02,.02-.04,.04-.06,.05-.58,.55-1.15,1.11-1.7,1.69-.09,.1-.19,.19-.28,.29-.25,.27-.5,.55-.75,.83-.11,.13-.22,.26-.33,.39-.41,.48-.81,.96-1.2,1.46-.12,.15-.24,.3-.36,.46-.2,.26-.39,.53-.59,.79-.14,.2-.28,.4-.42,.6-.18,.25-.36,.51-.53,.76-.27,.4-.53,.81-.78,1.22-.15,.24-.28,.47-.42,.71-.16,.26-.31,.53-.46,.8-.13,.23-.26,.47-.39,.7-.23,.44-.46,.88-.68,1.33-.1,.2-.19,.4-.29,.61-.16,.35-.32,.7-.48,1.05-.09,.21-.18,.42-.27,.64-.17,.41-.33,.83-.49,1.25-.06,.15-.12,.3-.17,.46-.18,.5-.35,1.01-.51,1.51-.06,.19-.12,.38-.18,.57-.13,.43-.25,.86-.37,1.3-.04,.15-.08,.29-.12,.44-.14,.56-.27,1.13-.39,1.71-.03,.16-.06,.32-.09,.48-.09,.46-.17,.93-.25,1.4-.03,.16-.05,.32-.08,.48-.09,.6-.17,1.2-.23,1.8-.01,.11-.02,.22-.03,.33-.05,.52-.09,1.04-.12,1.56,0,.17-.02,.34-.03,.51-.03,.63-.05,1.25-.05,1.88v65.31c0,.68,.02,1.35,.05,2.02,.01,.23,.03,.46,.05,.69,.03,.43,.06,.87,.1,1.3,.03,.28,.06,.56,.1,.84,.04,.37,.09,.74,.14,1.11,.05,.31,.1,.62,.15,.92,.06,.33,.11,.66,.18,.99,.06,.33,.13,.65,.21,.98,.07,.3,.13,.6,.21,.89,.08,.35,.17,.69,.26,1.03,.07,.26,.15,.52,.22,.78,.11,.37,.22,.73,.34,1.1,.07,.22,.14,.43,.22,.65,.14,.4,.27,.79,.42,1.19,.06,.15,.12,.3,.17,.45,.18,.45,.36,.9,.55,1.35,0,0,0,.02,0,.02,1.63,3.75,3.8,7.22,6.42,10.29,.06,.07,.12,.14,.18,.21,.02,.03,.05,.06,.07,.09,0,0,0,0,0,0h0c.41,.47,.82,.92,1.25,1.37,.08,.08,.15,.16,.23,.24,.46,.48,.94,.95,1.43,1.41,.06,.05,.11,.11,.17,.16,1.66,1.54,3.43,2.94,5.33,4.19,.1,.07,.2,.13,.3,.19,.51,.33,1.03,.66,1.56,.97,.16,.09,.31,.18,.47,.27,.49,.28,.98,.54,1.48,.8,.17,.09,.35,.18,.53,.27,.51,.26,1.03,.5,1.55,.73,.16,.07,.31,.15,.47,.21,.66,.29,1.33,.56,2,.81,.02,0,.04,.01,.06,.02,.71,.26,1.43,.5,2.16,.73,.15,.05,.3,.08,.45,.13,.56,.16,1.12,.32,1.69,.46,.24,.06,.49,.11,.74,.17,.49,.11,.97,.21,1.46,.31,.27,.05,.55,.1,.82,.15,.11,.02,.22,.04,.33,.06v38.45c0,3.62,2.94,6.56,6.56,6.56V50.75Z"/></g><g><g><path class="cls-4" d="M489.71,234.26c0,5.27-10.74,9.55-23.98,9.55s-23.98-4.27-23.98-9.55,10.74-9.55,23.98-9.55,23.98,4.27,23.98,9.55Z"/><g><path class="cls-6" d="M472.29,227.71c0,3.62-2.93,6.56-6.56,6.56h0c-3.62,0-6.56-2.94-6.56-6.56v-56.66c0-3.62,2.94-6.56,6.56-6.56h0c3.62,0,6.56,2.94,6.56,6.56v56.66Z"/><path class="cls-13" d="M472.29,197.39v-26.34c0-3.62-2.93-6.56-6.56-6.56s-6.56,2.94-6.56,6.56v26.34h13.12Z"/><polygon class="cls-15" points="465.73 99.45 514.89 187.81 416.58 187.81 465.73 99.45"/><polygon class="cls-5" points="465.73 57.05 522.75 159.54 408.72 159.54 465.73 57.05"/><polygon class="cls-16" points="465.73 38.31 504.66 108.29 426.81 108.29 465.73 38.31"/></g></g><path class="cls-19" d="M465.73,38.31l-38.93,69.98h10.42l-28.51,51.24h23.59l-15.73,28.27h42.59v39.9c0,3.62,2.94,6.56,6.56,6.56V38.31Z"/></g><g><g><ellipse class="cls-4" cx="227.6" cy="234.57" rx="23.98" ry="9.55"/><g><path class="cls-6" d="M234.16,229.12c0,3.62-2.94,6.56-6.56,6.56h0c-3.62,0-6.56-2.94-6.56-6.56v-62.28c0-3.62,2.94-6.56,6.56-6.56h0c3.62,0,6.56,2.94,6.56,6.56v62.28Z"/><path class="cls-13" d="M227.6,183.02c2.27,0,4.46-.3,6.56-.84v-15.34c0-3.62-2.94-6.56-6.56-6.56s-6.56,2.94-6.56,6.56v15.34c2.09,.55,4.29,.84,6.56,.84Z"/><path class="cls-17" d="M267.33,108.01c10.12-3.52,17.39-13.14,17.39-24.46,0-14.3-11.59-25.9-25.9-25.9-2.22,0-4.38,.28-6.44,.81-3.22-10.63-13.1-18.38-24.78-18.38s-21.56,7.74-24.78,18.38c-2.06-.53-4.22-.81-6.44-.81-14.3,0-25.9,11.59-25.9,25.9,0,11.32,7.27,20.94,17.39,24.46-10.12,3.52-17.39,13.14-17.39,24.46,0,14.3,11.59,25.9,25.9,25.9,2.2,0,4.33-.28,6.37-.79,3.13,10.77,13.08,18.65,24.86,18.65s21.73-7.88,24.86-18.65c2.04,.51,4.17,.79,6.37,.79,14.3,0,25.9-11.6,25.9-25.9,0-11.32-7.27-20.94-17.39-24.46Z"/><path class="cls-7" d="M263.72,157.9c4.13-10.85,.48-22.77-8.22-29.59,1.24-1.73,2.28-3.64,3.08-5.71,5.17-13.33-1.44-28.34-14.78-33.51-10.55-4.09-22.15-.8-29.09,7.37,.38-10.71-5.96-20.96-16.52-25.06-9.41-3.65-19.65-1.42-26.67,4.89-.67,2.31-1.04,4.75-1.04,7.27,0,11.32,7.27,20.94,17.39,24.46-10.12,3.52-17.39,13.14-17.39,24.46,0,14.3,11.59,25.9,25.9,25.9,2.2,0,4.33-.28,6.37-.79,3.13,10.77,13.08,18.65,24.86,18.65s21.73-7.88,24.86-18.65c2.04,.51,4.17,.79,6.37,.79,1.67,0,3.31-.16,4.89-.47Z"/><path class="cls-9" d="M284.72,132.47c0-11.32-7.27-20.94-17.39-24.46,4.48-1.56,8.4-4.31,11.37-7.88-7.66-5.4-18-6.45-26.89-1.82-10.04,5.23-15.22,16.12-13.66,26.72-7.8-7.35-19.68-9.36-29.73-4.13-12.68,6.6-17.62,22.24-11.01,34.93,.44,.84,.92,1.63,1.43,2.41,1.33-.13,2.63-.34,3.89-.66,3.13,10.77,13.08,18.65,24.86,18.65s21.73-7.88,24.86-18.65c2.04,.51,4.17,.79,6.37,.79,14.3,0,25.9-11.6,25.9-25.9Z"/></g></g><path class="cls-19" d="M227.6,40.09c-11.69,0-21.56,7.74-24.78,18.38-2.06-.53-4.22-.81-6.44-.81-13.03,0-23.81,9.63-25.62,22.16,0,.03,0,.06-.01,.09-.07,.52-.13,1.04-.17,1.56-.01,.13-.02,.26-.03,.39-.04,.56-.06,1.13-.06,1.7,0,11.32,7.27,20.94,17.39,24.46-10.12,3.52-17.39,13.14-17.39,24.46,0,14.3,11.59,25.9,25.9,25.9,.83,0,1.66-.05,2.47-.13h.01c.63-.06,1.25-.14,1.87-.25,.05,0,.09-.01,.14-.02,.63-.11,1.26-.24,1.88-.39,2.53,8.7,9.51,15.51,18.3,17.8v53.74c0,3.62,2.94,6.56,6.56,6.56V40.09Z"/></g><g><g><ellipse class="cls-4" cx="595.12" cy="263.06" rx="23.98" ry="9.55"/><g><path class="cls-6" d="M601.67,257.61c0,3.62-2.93,6.56-6.56,6.56h0c-3.62,0-6.56-2.94-6.56-6.56v-60.84c0-3.62,2.94-6.56,6.56-6.56h0c3.62,0,6.56,2.94,6.56,6.56v60.84Z"/><path class="cls-13" d="M601.67,215.55v-18.78c0-3.62-2.93-6.56-6.56-6.56s-6.56,2.94-6.56,6.56v18.78h13.12Z"/><path class="cls-15" d="M573.53,74.73h43.18c24.69,0,44.74,20.05,44.74,44.74v43.18c0,24.69-20.05,44.74-44.74,44.74h-43.18c-24.69,0-44.74-20.05-44.74-44.74v-43.18c0-24.69,20.05-44.74,44.74-44.74Z"/><path class="cls-5" d="M594.92,106.71c-16.39-18.37-44.52-20.03-62.96-3.78-2.04,5.12-3.17,10.7-3.17,16.55v43.18c0,24.71,20.03,44.74,44.74,44.74h40.6l5.94-5.29c18.44-16.45,20.05-44.73,3.6-63.17l-28.74-32.22Z"/><path class="cls-16" d="M646.06,135.22c-22.52-10.17-49.02-.16-59.19,22.36l-17.77,39.35c-1.45,3.21-2.48,6.51-3.13,9.82,2.46,.42,4.99,.65,7.57,.65h43.18c24.71,0,44.74-20.03,44.74-44.74v-20.48l-15.39-6.95Z"/></g></g><path class="cls-19" d="M593.35,74.73h-19.83c-19.59,0-36.23,12.6-42.29,30.13,0,0,0,.01,0,.02-.22,.64-.43,1.29-.62,1.94-.01,.04-.02,.07-.03,.11-.18,.62-.35,1.25-.51,1.88-.02,.08-.04,.17-.06,.26-.14,.59-.27,1.18-.39,1.78-.03,.15-.05,.31-.08,.46-.1,.54-.2,1.08-.28,1.62-.04,.24-.06,.49-.09,.73-.06,.46-.12,.93-.17,1.4-.04,.38-.06,.75-.08,1.13-.03,.35-.06,.7-.08,1.05-.04,.74-.06,1.48-.06,2.23v43.18c0,22.72,16.94,41.47,38.88,44.35,.11,.02,.23,.03,.34,.04,.5,.06,.99,.12,1.49,.16,.28,.03,.55,.04,.83,.06,.37,.03,.75,.06,1.12,.07,.69,.03,1.38,.05,2.08,.05h15.03v50.22c0,3.01,2.03,5.54,4.79,6.31V74.73Z"/></g><g><g><path class="cls-4" d="M524.39,355.61c0,5.27-10.74,9.55-23.98,9.55s-23.98-4.28-23.98-9.55,10.74-9.55,23.98-9.55,23.98,4.28,23.98,9.55Z"/><g><path class="cls-6" d="M506.96,349.05c0,3.62-2.93,6.56-6.56,6.56h0c-3.62,0-6.56-2.94-6.56-6.56V201.72c0-3.62,2.94-6.56,6.56-6.56h0c3.62,0,6.56,2.94,6.56,6.56v147.33Z"/><path class="cls-13" d="M493.85,311.75c2.12,1.63,4.3,3.19,6.56,4.63,2.26-1.45,4.44-2.99,6.56-4.62v-72.6c-4.32-.96-8.7-1.6-13.12-1.92v74.52Z"/><g><path class="cls-9" d="M458.16,231.33c0,32.4,16.84,60.86,42.24,77.12,25.4-16.26,42.24-44.72,42.24-77.12s-16.84-60.86-42.24-77.12c-25.4,16.26-42.24,44.72-42.24,77.12Z"/><path class="cls-7" d="M530.39,185.59c-28.48,4.53-54.37,22.4-67.96,50.3-1.27,2.62-2.41,5.27-3.41,7.94,3.71,27.14,19.31,50.49,41.39,64.62,25.4-16.26,42.24-44.72,42.24-77.12,0-16.67-4.47-32.29-12.25-45.74Z"/><path class="cls-17" d="M541.34,246.77c-16.25-11.92-35.93-18.05-55.78-17.71-8.72,19.78-10.31,42.34-3.91,63.47,5.5,6.11,11.81,11.48,18.76,15.93,21.28-13.62,36.54-35.8,40.94-61.68Z"/></g></g></g><path class="cls-19" d="M500.4,154.22c-25.4,16.26-42.24,44.72-42.24,77.12,0,4.24,.3,8.41,.85,12.49h0s0,0,0,0c.34,2.51,.79,4.98,1.33,7.41,.01,.04,.02,.09,.03,.13,.16,.7,.32,1.38,.49,2.07,.04,.18,.09,.36,.13,.54,.16,.64,.34,1.29,.51,1.93,.06,.21,.12,.42,.18,.63,.18,.63,.37,1.25,.56,1.88,.06,.21,.13,.41,.19,.62,.2,.63,.41,1.26,.62,1.89,.05,.16,.11,.31,.16,.46,1,2.88,2.14,5.69,3.41,8.43,.09,.18,.17,.37,.25,.55,.26,.55,.53,1.1,.8,1.64,.12,.25,.24,.49,.37,.74,.26,.52,.53,1.03,.8,1.54,.14,.27,.28,.53,.43,.79,.27,.49,.54,.99,.82,1.48,.15,.27,.31,.53,.46,.8,.28,.49,.57,.97,.86,1.45,.15,.25,.3,.49,.45,.73,1.02,1.64,2.09,3.25,3.2,4.82,.19,.27,.38,.54,.58,.81,.29,.4,.59,.79,.89,1.19,.23,.31,.47,.62,.7,.93,.29,.38,.59,.74,.88,1.12,.26,.32,.52,.64,.78,.96,.29,.35,.58,.71,.88,1.05,.28,.33,.56,.65,.84,.98,.29,.33,.58,.67,.88,1,.3,.34,.61,.67,.92,1.01,.28,.31,.56,.62,.85,.92,.37,.39,.74,.77,1.12,1.15,.24,.24,.47,.49,.71,.73,.22,.22,.45,.44,.68,.66,.08,.08,.16,.16,.25,.24,.3,.29,.6,.59,.91,.87,.24,.23,.49,.45,.73,.67,.1,.1,.21,.19,.31,.29,.08,.08,.17,.15,.25,.23,.22,.2,.44,.4,.67,.6,.27,.24,.55,.48,.83,.72,.39,.34,.79,.68,1.19,1.01,.29,.24,.58,.48,.87,.72,.31,.26,.62,.51,.94,.76,.11,.09,.22,.18,.34,.26,.25,.2,.51,.4,.76,.6v45.22c0,3.62,2.94,6.56,6.56,6.56V154.22Z"/></g><g><g><path class="cls-4" d="M309.75,350.79c0,5.27-10.74,9.55-23.98,9.55s-23.98-4.28-23.98-9.55,10.74-9.55,23.98-9.55,23.98,4.27,23.98,9.55Z"/><g><path class="cls-6" d="M292.33,345.34c0,3.62-2.94,6.56-6.56,6.56h0c-3.62,0-6.56-2.94-6.56-6.56v-117.62c0-3.62,2.94-6.56,6.56-6.56h0c3.62,0,6.56,2.94,6.56,6.56v117.62Z"/><path class="cls-13" d="M288.84,310.2c1.52,1.52,1.52,3.97,0,5.49h0c-1.51,1.51-3.97,1.51-5.48,0l-49.38-49.38c-1.51-1.51-1.51-3.97,0-5.48h0c1.51-1.52,3.97-1.52,5.48,0l49.38,49.38Z"/><path class="cls-13" d="M284.64,288.94c-1.52,1.52-1.52,3.97,0,5.48h0c1.51,1.51,3.97,1.51,5.48,0l40.77-40.77c1.52-1.51,1.52-3.97,0-5.48h0c-1.51-1.52-3.97-1.52-5.48,0l-40.77,40.77Z"/><path class="cls-9" d="M323.86,195.87c0,22.22-18.01,40.23-40.23,40.23s-40.23-18.01-40.23-40.23,18.01-40.23,40.23-40.23,40.23,18.01,40.23,40.23Z"/><path class="cls-7" d="M270.62,225.12c0,3.16,.37,6.23,1.06,9.18,3.78,1.17,7.79,1.8,11.95,1.8,22.22,0,40.23-18.01,40.23-40.23,0-3.16-.37-6.23-1.06-9.17-3.78-1.17-7.79-1.81-11.95-1.81-22.22,0-40.23,18.01-40.23,40.23Z"/><path class="cls-17" d="M253.32,178.38c-2.09,0-4.14,.16-6.14,.47-2.42,5.17-3.78,10.94-3.78,17.02,0,22.22,18.01,40.23,40.23,40.23,2.09,0,4.14-.16,6.14-.46,2.42-5.17,3.78-10.94,3.78-17.02,0-22.22-18.01-40.23-40.23-40.23Z"/><path class="cls-9" d="M261.02,266.18c0,13.14-10.65,23.79-23.79,23.79s-23.79-10.65-23.79-23.79,10.65-23.79,23.79-23.79,23.79,10.65,23.79,23.79Z"/><path class="cls-7" d="M229.53,283.48c0,1.87,.22,3.68,.63,5.43,2.23,.69,4.61,1.07,7.07,1.07,13.14,0,23.79-10.65,23.79-23.79,0-1.87-.22-3.68-.63-5.42-2.23-.7-4.61-1.07-7.07-1.07-13.14,0-23.79,10.65-23.79,23.79Z"/><path class="cls-17" d="M219.3,255.84c-1.24,0-2.45,.09-3.63,.28-1.43,3.06-2.23,6.47-2.23,10.07,0,13.14,10.65,23.79,23.79,23.79,1.23,0,2.45-.09,3.63-.28,1.43-3.06,2.23-6.47,2.23-10.07,0-13.14-10.65-23.79-23.79-23.79Z"/><path class="cls-9" d="M348.44,255.86c0,13.14-10.65,23.79-23.79,23.79s-23.79-10.65-23.79-23.79,10.65-23.79,23.79-23.79,23.79,10.65,23.79,23.79Z"/><path class="cls-7" d="M316.95,273.16c0,1.87,.22,3.68,.63,5.42,2.23,.7,4.61,1.07,7.07,1.07,13.14,0,23.79-10.65,23.79-23.79,0-1.87-.22-3.68-.63-5.42-2.23-.69-4.6-1.07-7.07-1.07-13.14,0-23.79,10.65-23.79,23.79Z"/><path class="cls-17" d="M306.72,245.52c-1.23,0-2.45,.09-3.63,.28-1.43,3.06-2.24,6.47-2.24,10.07,0,13.14,10.65,23.79,23.79,23.79,1.23,0,2.45-.1,3.63-.28,1.43-3.06,2.23-6.47,2.23-10.06,0-13.14-10.65-23.79-23.79-23.79Z"/></g></g><path class="cls-19" d="M283.63,155.64c-16.87,0-31.31,10.39-37.28,25.11-.03,.06-.05,.12-.07,.18-.23,.58-.45,1.16-.66,1.75-.04,.11-.08,.23-.12,.34-.18,.54-.35,1.09-.51,1.64-.05,.15-.09,.31-.13,.46-.14,.51-.27,1.03-.39,1.55-.04,.19-.09,.38-.13,.57-.11,.49-.2,.99-.29,1.49-.04,.21-.08,.43-.12,.64-.08,.49-.14,.98-.21,1.47-.03,.23-.06,.45-.09,.68-.05,.51-.09,1.02-.13,1.54-.01,.21-.04,.41-.05,.62-.04,.72-.06,1.45-.06,2.18,0,18.06,11.9,33.34,28.28,38.43h0c.57,.18,1.15,.34,1.73,.49,.15,.04,.3,.08,.46,.11,.45,.11,.91,.22,1.36,.31,.16,.03,.32,.07,.48,.1,1.15,.23,2.32,.41,3.5,.54v64.72l-21.8-21.8c2.28-3.65,3.61-7.96,3.61-12.59,0-.45-.02-.89-.04-1.33,0-.09-.01-.18-.02-.26-.02-.37-.06-.73-.1-1.1,0-.06-.02-.12-.02-.19-.05-.4-.11-.79-.18-1.19,0-.02,0-.05-.01-.07-1.96-11.16-11.7-19.65-23.42-19.65-9.98,0-18.52,6.15-22.05,14.86-.01,.03-.02,.06-.04,.09-.14,.35-.27,.7-.39,1.06-.02,.06-.04,.12-.06,.18-.11,.33-.21,.66-.31,.99-.02,.09-.05,.17-.07,.25-.09,.31-.16,.62-.24,.94-.02,.11-.05,.21-.07,.32-.06,.29-.12,.6-.18,.9-.02,.12-.04,.24-.06,.37-.05,.29-.09,.58-.12,.88-.02,.13-.04,.26-.05,.39-.03,.3-.06,.61-.08,.91,0,.12-.02,.24-.03,.37-.02,.43-.04,.86-.04,1.29,0,11.23,7.78,20.63,18.25,23.13,.12,.03,.24,.06,.36,.08,1.03,.23,2.08,.39,3.16,.48,.13,0,.26,.02,.4,.03,.54,.04,1.08,.06,1.63,.06s1.1-.03,1.64-.06c.13,0,.26-.02,.39-.03,4.92-.42,9.42-2.32,13.03-5.28l26.94,26.94v33.8c0,3.62,2.94,6.56,6.56,6.56l-2.14-196.26Z"/></g><g><g><path class="cls-4" d="M175.39,318.67c0,5.27-10.74,9.55-23.98,9.55s-23.98-4.27-23.98-9.55,10.74-9.55,23.98-9.55,23.98,4.27,23.98,9.55Z"/><g><path class="cls-16" d="M191.64,169.18c0,22.22-18.01,40.23-40.23,40.23s-40.23-18.01-40.23-40.23,18.01-40.23,40.23-40.23,40.23,18.01,40.23,40.23Z"/><path class="cls-5" d="M138.4,198.43c0,3.16,.37,6.23,1.06,9.18,3.78,1.17,7.79,1.81,11.95,1.81,22.22,0,40.23-18.01,40.23-40.23,0-3.16-.38-6.23-1.06-9.17-3.78-1.17-7.79-1.81-11.95-1.81-22.22,0-40.23,18.01-40.23,40.23Z"/><path class="cls-15" d="M121.1,151.69c-2.09,0-4.14,.16-6.14,.47-2.42,5.17-3.78,10.94-3.78,17.02,0,22.22,18.01,40.23,40.23,40.23,2.09,0,4.14-.16,6.14-.47,2.42-5.17,3.78-10.94,3.78-17.02,0-22.22-18.01-40.23-40.23-40.23Z"/><path class="cls-6" d="M157.97,312.11c0,3.62-2.94,6.56-6.56,6.56h0c-3.62,0-6.56-2.94-6.56-6.56v-56.66c0-3.62,2.94-6.56,6.56-6.56h0c3.62,0,6.56,2.94,6.56,6.56v56.66Z"/><path class="cls-13" d="M151.41,248.89c-3.62,0-6.56,2.94-6.56,6.56v25.94c2.15,.29,4.33,.45,6.56,.45s4.41-.16,6.56-.45v-25.94c0-3.62-2.94-6.56-6.56-6.56Z"/><path class="cls-16" d="M200.57,222.82c0,27.15-22.01,49.15-49.15,49.15s-49.15-22.01-49.15-49.15,22.01-49.15,49.15-49.15,49.15,22.01,49.15,49.15Z"/><path class="cls-5" d="M135.51,258.56c0,3.86,.46,7.61,1.3,11.21,4.61,1.43,9.52,2.21,14.6,2.21,27.15,0,49.15-22.01,49.15-49.15,0-3.86-.46-7.61-1.3-11.21-4.61-1.43-9.52-2.21-14.6-2.21-27.15,0-49.15,22.01-49.15,49.15Z"/><path class="cls-15" d="M114.38,201.45c-2.55,0-5.05,.19-7.5,.57-2.96,6.32-4.62,13.36-4.62,20.8,0,27.15,22.01,49.15,49.15,49.15,2.55,0,5.05-.19,7.5-.57,2.96-6.32,4.62-13.36,4.62-20.8,0-27.15-22.01-49.15-49.15-49.15Z"/></g></g><path class="cls-19" d="M151.41,128.95c-16.87,0-31.3,10.39-37.28,25.11-.03,.07-.05,.13-.08,.2-.23,.57-.45,1.15-.65,1.74-.04,.12-.08,.24-.12,.36-.18,.53-.35,1.07-.51,1.62-.05,.16-.09,.32-.14,.48-.14,.51-.27,1.02-.39,1.53-.04,.19-.09,.39-.13,.58-.11,.49-.2,.98-.29,1.47-.04,.22-.08,.44-.12,.66-.08,.48-.14,.97-.2,1.46-.03,.23-.06,.46-.09,.69-.05,.51-.09,1.02-.13,1.53-.01,.21-.04,.42-.05,.63-.04,.72-.06,1.45-.06,2.18,0,7.04,1.81,13.65,4.99,19.4-3.8,3.91-6.95,8.45-9.29,13.44h0s0,0,0,0c-.36,.76-.69,1.53-1.01,2.31-.03,.08-.06,.16-.1,.24-.28,.7-.54,1.41-.79,2.13-.05,.14-.1,.28-.14,.43-.22,.66-.43,1.32-.62,1.99-.05,.19-.11,.38-.16,.57-.17,.62-.33,1.25-.48,1.89-.05,.23-.11,.46-.16,.69-.13,.6-.25,1.21-.36,1.82-.05,.26-.1,.52-.14,.79-.1,.59-.18,1.19-.25,1.79-.04,.28-.08,.55-.11,.83-.07,.62-.11,1.25-.16,1.88-.02,.26-.04,.51-.06,.77-.05,.88-.08,1.77-.08,2.66,0,22.06,14.54,40.73,34.55,46.95h0c.69,.21,1.39,.41,2.09,.59,.21,.06,.42,.11,.63,.16,.52,.13,1.05,.25,1.58,.37,.22,.05,.43,.09,.65,.14,.71,.14,1.42,.27,2.13,.38,.02,0,.03,0,.04,0,.31,.05,.61,.08,.92,.12v40.58c0,3.62,2.94,6.56,6.56,6.56V128.95Z"/></g><g><g><path class="cls-4" d="M424.32,353.58c0,5.27-10.74,9.55-23.98,9.55s-23.98-4.28-23.98-9.55,10.74-9.55,23.98-9.55,23.98,4.28,23.98,9.55Z"/><g><path class="cls-6" d="M406.9,347.02c0,3.62-2.94,6.56-6.56,6.56h0c-3.62,0-6.56-2.94-6.56-6.56v-48.31c0-3.62,2.94-6.56,6.56-6.56h0c3.62,0,6.56,2.94,6.56,6.56v48.31Z"/><path class="cls-13" d="M400.34,315.07c2.29,0,4.46-.09,6.56-.25v-16.11c0-3.62-2.94-6.56-6.56-6.56s-6.56,2.94-6.56,6.56v16.12c2.09,.16,4.28,.24,6.56,.24Z"/><path class="cls-16" d="M438.66,226.49c14.74,55.07,4.25,82.33-38.32,82.33h0c-42.57,0-53.06-27.25-38.32-82.33l16.18-51.62c3.06-11.44,12.66-18.62,22.14-18.62h0c9.47,0,19.08,7.19,22.14,18.62l16.18,51.62Z"/><path class="cls-5" d="M444.31,276.15c-5.18-10.91-14.34-22.97-27.28-36.3l-39.29-37.19c-2.04-2.1-4.3-3.77-6.67-5.04l-9.05,28.87c-14.73,55.07-4.25,82.33,38.32,82.33,26.85,0,40.92-10.85,43.97-32.67Z"/><path class="cls-15" d="M436.55,225.86c-8.81-3.48-20.38-.32-27.43,9.19l-34.01,42.07c-4.52,6.11-8.44,11.91-11.75,17.43,7.09,9.51,19.24,14.26,36.99,14.26,42.46,0,52.99-27.11,38.43-81.88-.72-.4-1.46-.77-2.23-1.07Z"/></g></g><path class="cls-19" d="M400.34,156.25c-9.47,0-19.08,7.19-22.14,18.62l-16.18,51.62c-8.59,32.12-8.59,54.76,1.33,68.06h0s0,0,0,0c.42,.57,.87,1.12,1.33,1.65,.04,.05,.09,.1,.13,.15,.46,.53,.93,1.04,1.43,1.53,.02,.02,.04,.04,.05,.05,2,1.98,4.29,3.68,6.87,5.12,.16,.09,.33,.19,.5,.28,.52,.28,1.05,.54,1.6,.8,.25,.12,.5,.23,.76,.35,.52,.23,1.05,.46,1.59,.67,.3,.12,.62,.23,.93,.35,.53,.19,1.05,.39,1.6,.56,.37,.12,.76,.22,1.13,.34,.85,.25,1.72,.48,2.61,.69,.55,.13,1.09,.26,1.65,.38,.45,.09,.91,.17,1.36,.25,.58,.1,1.16,.2,1.75,.29,.45,.07,.92,.13,1.38,.19,.64,.08,1.28,.15,1.94,.22,.44,.04,.89,.09,1.34,.12,.16,.01,.32,.03,.48,.04v38.44c0,3.62,2.94,6.56,6.56,6.56V156.25Z"/></g><g><ellipse class="cls-4" cx="695.73" cy="330.5" rx="21.04" ry="8.43"/><g><path class="cls-2" d="M688.29,249.25l-.53-2.39s-1.72,1.09-2.73,2.65c-1,1.56-1.48,5.72-1.77,5.88-.29,.16-3.47-4.74-4.02-5.51-.69-.95-.94-2.05-1.37-2.88-.43-.83-1.95-1.12-2.52-1.01-.57,.1,.79,2.54,.79,2.54,0,0,3.44,5.98,4.59,9.26,1.15,3.28,4.74,4.84,5.31,4.37,.57-.47,2.25-12.91,2.25-12.91Z"/><path class="cls-1" d="M677.83,247.45s-.14-.63-.53-.76c-.39-.13-1.06-.01-1.1,0-.04,.01-.79-.39-.79-.39l.62,1.15s1.2,1.42,1.6,.89c.4-.53,.2-.89,.2-.89Z"/><path class="cls-2" d="M675.2,246.36s-.43,2.21-.32,2.67c.11,.46,.39,.22,.44,.11,.21-.42,.36-1.83,.36-1.83l-.48-.95Z"/><path class="cls-2" d="M676.13,248.19s-.21,1.37-.42,1.53c-.14,.11-.32,.04-.37-.23-.06-.28,.28-1.97,.28-1.97l.52,.67Z"/><path class="cls-11" d="M677.4,252.08l.72-.35-3.06-6.28h0c-.4,.19-.56,.67-.37,1.07l2.71,5.56Z"/><path class="cls-10" d="M685.09,239.4c-.43-1.96-.86-3.94,.28-6.1,.92-1.75,2.52-2.75,4.36-2.97,5.23-.62,4.11,4.26,11.41,5.32,2.27,.33,4.38,.64,6.27,1.77,3.42,2.04,4.71,5.31,2.44,10.64-5.56,13.04-19.2,1.97-20.88-.6-1.25-1.91-3.62-6.79-3.89-8.06Z"/><path class="cls-1" d="M705.99,321.8s.37,3.78,1.33,4.47c.96,.69,2.23,3.26,1.59,4.65-.2,.43-.6,.68-1.05,.82-1.34,.41-2.77-.28-3.35-1.57-.32-.72-.6-1.68-.66-2.88-.14-3.07-1.1-4.63-1.1-4.63l3.23-.86Z"/><path class="cls-1" d="M691.29,323.35s-.3,3.81-.06,5.05c.13,.66,.86,2.03,.53,2.65-.33,.62-.72,.78-.72,.78l-8.68,.14c-.47,0-.16-.3,.22-.58,.62-.46,1.13-.76,3.12-1.72,.13-.06,.6-.36,.77-.47,.43-.26,.87-.68,1.24-1.09,.62-.69,.68-4.05,.68-4.05l2.89-.72Z"/><path class="cls-12" d="M684.51,272.66s-1.09,6.19-.38,10.25c.72,4.06,4.16,41.68,4.16,41.68l3.83,.22s.8-15.71,.66-17.9c-.14-2.19-1.28-5.84-1.28-5.84l.38-12.69-4.83-16.67-2.54,.96Z"/><path class="cls-18" d="M695.76,271.36s3.01,4.53,3.73,8.27c.72,3.75-.53,15.26,.85,20.17,.75,2.66,3.58,6.76,4.01,10.2,.43,3.43,2.12,12.43,2.12,12.43l-3.83,.76-8.89-22.47-6.97-20.31-1.79-10.46,10.76,1.4Z"/><path class="cls-14" d="M693.32,245.61s2.64,.3,4.22,2.02c1.58,1.72-2.55,15.52-2.84,17.71-.29,2.19,2.35,7.28,2.35,7.28,0,0-9.86,1.82-12.54,.05,0,0-.29-15.72,0-17.28,.29-1.56,2.68-7.91,3.25-8.53,.57-.62,5.56-1.25,5.56-1.25Z"/><path class="cls-1" d="M697.05,248.92c-.25-.77-1.13-1.14-1.87-.82-1.02,.44-2.43,1.28-3.11,2.71-1.15,2.39-5.17,10.62-6.41,10.93-1.24,.31-6.31-8.53-6.31-8.53,0,0,.14-1.56-.29-2.45-.43-.88-1.72-1.82-1.91-1.51-.19,.31,.72,1.09,.72,1.25s-.38,.26-.91-.05c-.53-.31-.81-.94-.81-.94,0,0-.86,1.57,.05,2.97,.91,1.4,1.29,1.98,1.29,1.98,0,0,5.88,13.06,8.04,13.22,2,.15,13.55-12.66,11.54-18.75Z"/><path class="cls-1" d="M691.99,240.28s.02,.12,.06,.32c.18,.96,.86,4.13,1.33,5.01,.56,1.06-1.91,4.42-4.3,4.01-.71-.12,.6-3.09,.54-3.41-.12-.6-.28-1.42-.45-2.27-.09-.48-.19-.96-.28-1.41-.25-1.29-.46-2.34-.46-2.34l3.57,.09Z"/><path class="cls-3" d="M692.05,240.6c-.04-.2-.06-.32-.06-.32l-3.57-.09s.21,1.05,.46,2.34c.09,.45,.18,.93,.28,1.4,.55-.08,1.13-.35,1.7-.85,.63-.55,1.04-1.21,1.29-1.92-.04-.23-.08-.42-.11-.57Z"/><path class="cls-1" d="M689.84,231.8s1.46,.2,2.51,1.56c1.05,1.36,2.19,5.57-.43,7.86-2.62,2.29-5.21-.3-5.59-3.05-.38-2.75-.31-6.47,3.51-6.37Z"/><path class="cls-1" d="M685.5,237.24c.31,.61,.84,.94,1.17,.75,.33-.19,.35-.84,.04-1.45-.31-.61-.84-.94-1.17-.75-.33,.19-.35,.84-.04,1.45Z"/><path class="cls-10" d="M689.4,231.74s2.25,4,3.85,4.19c1.61,.18,1.82,2.31,1.82,2.31,0,0-.57-4.9-2.17-5.84-1.59-.94-3.51-.65-3.51-.65Z"/><path class="cls-1" d="M692.73,236.88c-.13,.71,.13,1.36,.59,1.46,.46,.09,.93-.41,1.06-1.12,.13-.71-.13-1.36-.59-1.46-.46-.09-.93,.41-1.06,1.12Z"/><path class="cls-12" d="M704.26,329.5c2.08,.38,3.47-.84,4.19-1.75,.53,1.03,.85,2.32,.46,3.17-.34,.75-1.28,.95-2.07,.98-.84,.03-1.62-.41-2.03-1.13-.19-.34-.39-.76-.56-1.27Z"/><path class="cls-12" d="M686.48,329.21c2.3,.59,3.99,.19,4.94-.19,.24,.69,.57,1.56,.4,2.06-.21,.61-.51,.75-.78,.76-2.1,.05-7.68,.13-9.28,.15-.22,0-.35-.26-.2-.43,.4-.47,4.75-2.24,4.92-2.35Z"/></g></g></g></g></svg>