<?xml version="1.0" encoding="UTF-8"?><svg xmlns="http://www.w3.org/2000/svg" xmlns:xlink="http://www.w3.org/1999/xlink" viewBox="0 0 800 500"><defs><style>.cls-1{fill:url(#linear-gradient);}.cls-2{fill:#68741b;}.cls-3{fill:#eae8ed;}.cls-4{fill:#e6e6e6;}.cls-5{fill:#e8acd5;}.cls-6{fill:#fcffff;}.cls-7{fill:#ff73b5;}.cls-8{fill:#654310;}.cls-9{fill:#987cfe;}.cls-10{fill:#9eb02a;}.cls-11{fill:#85a226;}.cls-12{fill:#a68efe;}.cls-13{fill:#b2c72f;}.cls-14{fill:#d22e72;}.cls-15{fill:#d2448d;}.cls-16{fill:#dcd3fe;}.cls-17{fill:#403d54;}.cls-18{fill:#090000;}.cls-19{fill:#1c1a2a;}.cls-20{fill:#1a2738;}.cls-21{fill:#717f90;}.cls-22{fill:#718820;}.cls-23{fill:#885915;}.cls-24{fill:#879724;}.cls-25{fill:#8140ff;}.cls-26{fill:#2f2d3d;}.cls-27{fill:#596876;}.cls-28{fill:#585858;}.cls-29{fill:#6d791c;mix-blend-mode:multiply;opacity:.2;}.cls-30{opacity:.27;}.cls-31{isolation:isolate;}</style><linearGradient id="linear-gradient" x1="379.12" y1="329.36" x2="696.27" y2="329.36" gradientUnits="userSpaceOnUse"><stop offset="0" stop-color="#c4b8e9"/><stop offset=".42" stop-color="#b2cfde"/><stop offset="1" stop-color="#ffcade"/></linearGradient></defs><g class="cls-31"><g id="Layer_1"><g><g><path class="cls-4" d="M720.84,198.1c0,4.59-9.34,8.31-20.86,8.31s-20.86-3.72-20.86-8.31,9.34-8.31,20.86-8.31,20.86,3.72,20.86,8.31Z"/><g><path class="cls-23" d="M705.69,192.39c0,3.15-2.55,5.7-5.7,5.7h0c-3.15,0-5.7-2.55-5.7-5.7V64.25c0-3.15,2.55-5.7,5.7-5.7h0c3.15,0,5.7,2.55,5.7,5.7V192.39Z"/><path class="cls-8" d="M694.28,159.95c1.84,1.42,3.74,2.77,5.7,4.03,1.96-1.26,3.86-2.6,5.7-4.02v-63.14c-3.75-.83-7.57-1.39-11.41-1.67v64.81Z"/><g><path class="cls-13" d="M663.24,90.01c0,28.18,14.64,52.93,36.74,67.07,22.09-14.14,36.74-38.89,36.74-67.07s-14.65-52.93-36.74-67.07c-22.09,14.14-36.74,38.89-36.74,67.07Z"/><path class="cls-10" d="M726.06,50.22c-24.77,3.94-47.29,19.49-59.11,43.75-1.11,2.28-2.09,4.58-2.97,6.91,3.22,23.61,16.79,43.92,36,56.21,22.09-14.14,36.74-38.89,36.74-67.07,0-14.5-3.89-28.08-10.66-39.79Z"/><path class="cls-24" d="M735.59,103.44c-14.13-10.37-31.25-15.7-48.52-15.41-7.58,17.2-8.96,36.82-3.4,55.2,4.78,5.31,10.27,9.98,16.31,13.85,18.5-11.84,31.78-31.13,35.6-53.65Z"/></g></g></g><path class="cls-29" d="M699.98,22.94c-22.09,14.14-36.74,38.89-36.74,67.07,0,3.69,.26,7.31,.74,10.86h0s0,0,0,0c.3,2.18,.68,4.33,1.15,6.45,0,.04,.02,.08,.02,.11,.14,.6,.28,1.2,.43,1.8,.04,.16,.08,.31,.12,.47,.14,.56,.29,1.12,.45,1.67,.05,.18,.1,.37,.16,.55,.16,.55,.32,1.09,.48,1.63,.06,.18,.11,.36,.17,.54,.17,.55,.35,1.1,.54,1.64,.05,.14,.09,.27,.14,.4,.87,2.5,1.86,4.95,2.97,7.33,.08,.16,.15,.32,.22,.48,.23,.48,.46,.95,.7,1.43,.11,.21,.21,.43,.32,.64,.23,.45,.46,.89,.7,1.34,.12,.23,.25,.46,.37,.69,.23,.43,.47,.86,.72,1.29,.13,.23,.27,.46,.4,.69,.25,.42,.49,.84,.75,1.26,.13,.21,.26,.42,.39,.63,.89,1.43,1.82,2.82,2.79,4.19,.17,.24,.33,.47,.5,.71,.25,.35,.51,.69,.77,1.03,.2,.27,.41,.54,.61,.81,.25,.33,.51,.65,.77,.97,.22,.28,.45,.56,.68,.84,.25,.31,.51,.61,.77,.92,.24,.29,.48,.57,.73,.85,.25,.29,.51,.58,.76,.87,.26,.3,.53,.59,.8,.88,.25,.27,.49,.54,.74,.8,.32,.34,.65,.67,.97,1,.21,.21,.41,.42,.62,.63,.2,.19,.4,.38,.59,.57,.07,.07,.14,.14,.21,.21,.26,.25,.52,.51,.79,.76,.21,.2,.42,.39,.63,.58,.09,.08,.18,.17,.27,.25,.07,.07,.14,.13,.22,.2,.19,.17,.39,.35,.58,.52,.24,.21,.48,.42,.72,.63,.34,.3,.68,.59,1.03,.88,.25,.21,.5,.42,.75,.62,.27,.22,.54,.44,.82,.66,.1,.08,.19,.15,.29,.23,.22,.17,.44,.35,.66,.52v39.33c0,3.15,2.55,5.7,5.7,5.7V22.94Z"/></g><g><g><path class="cls-4" d="M127.68,226.36c0,5.27-10.74,9.55-23.98,9.55s-23.98-4.27-23.98-9.55,10.74-9.55,23.98-9.55,23.98,4.27,23.98,9.55Z"/><g><path class="cls-11" d="M143.93,76.87c0,22.22-18.01,40.23-40.23,40.23s-40.23-18.01-40.23-40.23,18.01-40.23,40.23-40.23,40.23,18.01,40.23,40.23Z"/><path class="cls-22" d="M90.69,106.12c0,3.16,.37,6.23,1.06,9.18,3.78,1.17,7.79,1.81,11.95,1.81,22.22,0,40.23-18.01,40.23-40.23,0-3.16-.38-6.23-1.06-9.17-3.78-1.17-7.79-1.81-11.95-1.81-22.22,0-40.23,18.01-40.23,40.23Z"/><path class="cls-2" d="M73.38,59.38c-2.09,0-4.14,.16-6.14,.47-2.42,5.17-3.78,10.94-3.78,17.02,0,22.22,18.01,40.23,40.23,40.23,2.09,0,4.14-.16,6.14-.47,2.42-5.17,3.78-10.94,3.78-17.02,0-22.22-18.01-40.23-40.23-40.23Z"/><path class="cls-23" d="M110.26,219.8c0,3.62-2.94,6.56-6.56,6.56h0c-3.62,0-6.56-2.94-6.56-6.56v-56.66c0-3.62,2.94-6.56,6.56-6.56h0c3.62,0,6.56,2.94,6.56,6.56v56.66Z"/><path class="cls-8" d="M103.7,156.58c-3.62,0-6.56,2.94-6.56,6.56v25.94c2.15,.29,4.33,.45,6.56,.45s4.41-.16,6.56-.45v-25.94c0-3.62-2.94-6.56-6.56-6.56Z"/><path class="cls-11" d="M152.85,130.51c0,27.15-22.01,49.15-49.15,49.15s-49.15-22.01-49.15-49.15,22.01-49.15,49.15-49.15,49.15,22.01,49.15,49.15Z"/><path class="cls-22" d="M87.8,166.25c0,3.86,.46,7.61,1.3,11.21,4.61,1.43,9.52,2.21,14.6,2.21,27.15,0,49.15-22.01,49.15-49.15,0-3.86-.46-7.61-1.3-11.21-4.61-1.43-9.52-2.21-14.6-2.21-27.15,0-49.15,22.01-49.15,49.15Z"/><path class="cls-2" d="M66.66,109.14c-2.55,0-5.05,.19-7.5,.57-2.96,6.32-4.62,13.36-4.62,20.8,0,27.15,22.01,49.15,49.15,49.15,2.55,0,5.05-.19,7.5-.57,2.96-6.32,4.62-13.36,4.62-20.8,0-27.15-22.01-49.15-49.15-49.15Z"/></g></g><path class="cls-29" d="M103.7,36.64c-16.87,0-31.3,10.39-37.28,25.11-.03,.07-.05,.13-.08,.2-.23,.57-.45,1.15-.65,1.74-.04,.12-.08,.24-.12,.36-.18,.53-.35,1.07-.51,1.62-.05,.16-.09,.32-.14,.48-.14,.51-.27,1.02-.39,1.53-.04,.19-.09,.39-.13,.58-.11,.49-.2,.98-.29,1.47-.04,.22-.08,.44-.12,.66-.08,.48-.14,.97-.2,1.46-.03,.23-.06,.46-.09,.69-.05,.51-.09,1.02-.13,1.53-.01,.21-.04,.42-.05,.63-.04,.72-.06,1.45-.06,2.18,0,7.04,1.81,13.65,4.99,19.4-3.8,3.91-6.95,8.45-9.29,13.44h0s0,0,0,0c-.36,.76-.69,1.53-1.01,2.31-.03,.08-.06,.16-.1,.24-.28,.7-.54,1.41-.79,2.13-.05,.14-.1,.28-.14,.43-.22,.66-.43,1.32-.62,1.99-.05,.19-.11,.38-.16,.57-.17,.62-.33,1.25-.48,1.89-.05,.23-.11,.46-.16,.69-.13,.6-.25,1.21-.36,1.82-.05,.26-.1,.52-.14,.79-.1,.59-.18,1.19-.25,1.79-.04,.28-.08,.55-.11,.83-.07,.62-.11,1.25-.16,1.88-.02,.26-.04,.51-.06,.77-.05,.88-.08,1.77-.08,2.66,0,22.06,14.54,40.73,34.55,46.95h0c.69,.21,1.39,.41,2.09,.59,.21,.06,.42,.11,.63,.16,.52,.13,1.05,.25,1.58,.37,.22,.05,.43,.09,.65,.14,.71,.14,1.42,.27,2.13,.38,.02,0,.03,0,.04,0,.31,.05,.61,.08,.92,.12v40.58c0,3.62,2.94,6.56,6.56,6.56V36.64Z"/></g><g><g><path class="cls-3" d="M381.96,384.01l-66.2,38.22c-2.15,1.24-5.64,1.24-7.79,0h0c-2.15-1.24-2.15-3.25,0-4.5l66.2-38.22c2.15-1.24,5.64-1.24,7.79,0h0c2.15,1.24,2.15,3.25,0,4.5Z"/><path class="cls-3" d="M433.1,354.48l-34.99,20.2c-2.15,1.24-5.64,1.24-7.79,0h0c-2.15-1.24-2.15-3.25,0-4.5l34.99-20.2c2.15-1.24,5.64-1.24,7.79,0h0c2.15,1.24,2.15,3.25,0,4.5Z"/></g><path class="cls-3" d="M401.58,352.62l-66.2,38.22c-2.15,1.24-5.64,1.24-7.79,0h0c-2.15-1.24-2.15-3.25,0-4.5l66.2-38.22c2.15-1.24,5.64-1.24,7.79,0h0c2.15,1.24,2.15,3.25,0,4.5Z"/><path class="cls-3" d="M486.24,303.75l-66.2,38.22c-2.15,1.24-5.64,1.24-7.79,0h0c-2.15-1.24-2.15-3.25,0-4.5l66.2-38.22c2.15-1.24,5.64-1.24,7.79,0h0c2.15,1.24,2.15,3.25,0,4.5Z"/><path class="cls-3" d="M524.25,321.91l-66.2,38.22c-2.15,1.24-5.64,1.24-7.79,0h0c-2.15-1.24-2.15-3.25,0-4.5l66.2-38.22c2.15-1.24,5.64-1.24,7.79,0h0c2.15,1.24,2.15,3.25,0,4.5Z"/><path class="cls-3" d="M399.33,394.04l-19.38,11.19c-2.15,1.24-5.64,1.24-7.79,0h0c-2.15-1.24-2.15-3.25,0-4.5l19.38-11.19c2.15-1.24,5.64-1.24,7.79,0h0c2.15,1.24,2.15,3.25,0,4.5Z"/><path class="cls-3" d="M565.46,298.12l-19.38,11.19c-2.15,1.24-5.64,1.24-7.79,0h0c-2.15-1.24-2.15-3.25,0-4.5l19.38-11.19c2.15-1.24,5.64-1.24,7.79,0h0c2.15,1.24,2.15,3.25,0,4.5Z"/><path class="cls-3" d="M414.75,324.97l-66.2,38.22c-2.15,1.24-5.64,1.24-7.79,0h0c-2.15-1.24-2.15-3.25,0-4.5l66.2-38.22c2.15-1.24,5.64-1.24,7.79,0h0c2.15,1.24,2.15,3.25,0,4.5Z"/><path class="cls-3" d="M455.96,301.17l-19.38,11.19c-2.15,1.24-5.64,1.24-7.79,0h0c-2.15-1.24-2.15-3.25,0-4.5l19.38-11.19c2.15-1.24,5.64-1.24,7.79,0h0c2.15,1.24,2.15,3.25,0,4.5Z"/></g><g><g><path class="cls-3" d="M532.49,375.14l-66.2,38.22c-2.15,1.24-5.64,1.24-7.79,0h0c-2.15-1.24-2.15-3.25,0-4.5l66.2-38.22c2.15-1.24,5.64-1.24,7.79,0h0c2.15,1.24,2.15,3.25,0,4.5Z"/><path class="cls-3" d="M583.64,345.61l-34.99,20.2c-2.15,1.24-5.64,1.24-7.79,0h0c-2.15-1.24-2.15-3.25,0-4.5l34.99-20.2c2.15-1.24,5.64-1.24,7.79,0h0c2.15,1.24,2.15,3.25,0,4.5Z"/></g><path class="cls-3" d="M552.12,343.75l-66.2,38.22c-2.15,1.24-5.64,1.24-7.79,0h0c-2.15-1.24-2.15-3.25,0-4.5l66.2-38.22c2.15-1.24,5.64-1.24,7.79,0h0c2.15,1.24,2.15,3.25,0,4.5Z"/><path class="cls-3" d="M636.77,294.88l-66.2,38.22c-2.15,1.24-5.64,1.24-7.79,0h0c-2.15-1.24-2.15-3.25,0-4.5l66.2-38.22c2.15-1.24,5.64-1.24,7.79,0h0c2.15,1.24,2.15,3.25,0,4.5Z"/><path class="cls-3" d="M674.79,313.04l-66.2,38.22c-2.15,1.24-5.64,1.24-7.79,0h0c-2.15-1.24-2.15-3.25,0-4.5l66.2-38.22c2.15-1.24,5.64-1.24,7.79,0h0c2.15,1.24,2.15,3.25,0,4.5Z"/><path class="cls-3" d="M549.86,385.17l-19.38,11.19c-2.15,1.24-5.64,1.24-7.79,0h0c-2.15-1.24-2.15-3.25,0-4.5l19.38-11.19c2.15-1.24,5.64-1.24,7.79,0h0c2.15,1.24,2.15,3.25,0,4.5Z"/><path class="cls-3" d="M716,289.25l-19.38,11.19c-2.15,1.24-5.64,1.24-7.79,0h0c-2.15-1.24-2.15-3.25,0-4.5l19.38-11.19c2.15-1.24,5.64-1.24,7.79,0h0c2.15,1.24,2.15,3.25,0,4.5Z"/><path class="cls-3" d="M565.29,316.1l-66.2,38.22c-2.15,1.24-5.64,1.24-7.79,0h0c-2.15-1.24-2.15-3.25,0-4.5l66.2-38.22c2.15-1.24,5.64-1.24,7.79,0h0c2.15,1.24,2.15,3.25,0,4.5Z"/><path class="cls-3" d="M606.5,292.3l-19.38,11.19c-2.15,1.24-5.64,1.24-7.79,0h0c-2.15-1.24-2.15-3.25,0-4.5l19.38-11.19c2.15-1.24,5.64-1.24,7.79,0h0c2.15,1.24,2.15,3.25,0,4.5Z"/></g><g><g><path class="cls-27" d="M377.1,305.5c1.13,1.47,2.65,2.59,4.24,3.51l191.61,110.62c2.22,1.29,4.62,2.2,7.21,2.76,2.47,.52,5.11,.82,7.75,.83,5.28,.02,10.64-1.08,14.98-3.58l91.18-52.63c2.57-1.48,5.37-4.05,6.04-6.94,.11-.48,.16-.98,.16-1.47v13.59c0,3.73-2.89,6.73-6.2,8.64l-91.18,52.64c-2.22,1.28-4.62,2.2-7.21,2.75-7.4,1.58-16.21,1.02-22.73-2.75l-191.61-110.63c-.83-.48-1.63-1.02-2.4-1.63-2.08-1.65-3.79-4.41-3.79-7.07h0v-13.76h0c.05,1.83,.82,3.66,1.95,5.14Z"/><path class="cls-19" d="M656.19,393.09c.59-.33,1.11-.38,1.51-.19,.45,.21,.74,.73,.74,1.49v.97c0,1.44-1.02,3.19-2.25,3.9l-15.42,8.9c-.63,.36-1.18,.39-1.58,.16-.41-.23-.67-.74-.67-1.45v-.98c0-1.43,1.02-3.18,2.25-3.89l15.42-8.91Z"/><path class="cls-19" d="M621.95,412.61c2.15-2.18,4.21-1.31,4.15,.94-.09,3.38-3.44,6.68-5.26,5.55-.24-.15-.44-.37-.63-.68-.3-.52-.31-1.17-.24-1.79,.09-.75,.31-1.46,.64-2.13,0,0,0-.01,0-.01,.17-.26,.33-.53,.47-.83,.25-.38,.54-.74,.86-1.06Z"/><path class="cls-21" d="M380.82,304.65c1.57,1.9,2.84,2.4,8.35,5.62,.1,.06,186.73,107.84,187.7,108.32,3.17,1.54,7.12,2.32,11.06,2.32l-.02,2.3c-2.64-.01-5.28-.3-7.75-.83-2.58-.56-4.99-1.46-7.21-2.76l-191.61-110.62c-1.58-.92-3.11-2.04-4.24-3.51-1.13-1.47-1.9-3.31-1.95-5.14-.03-.58,.02-1.14,.15-1.7,.68-2.9,3.46-5.46,6.04-6.94l91.18-52.63c4.34-2.5,9.69-3.59,14.97-3.58l-.02,2.3c-1.95,0-3.95,.19-5.89,.61-3.95,.84-5.85,2.04-8.79,3.8-2.98,1.79,6.77-3.97-34.23,19.7-6.67,3.86-13.31,7.78-19.98,11.63-6.67,3.84-13.37,7.62-20.03,11.52-2.78,1.62-5.54,3.27-8.33,4.84-3.26,1.84-6.3,3.44-7.85,4.68-3.47,2.79-4.38,6.65-1.53,10.07Z"/><g><polygon class="cls-17" points="426.8 342.56 428.33 341.68 411.52 331.97 409.99 332.86 426.8 342.56"/><polygon class="cls-26" points="428.33 343.8 428.33 341.68 426.8 342.56 426.8 344.68 428.33 343.8"/><polygon class="cls-28" points="426.8 344.68 426.8 342.56 409.99 332.86 409.99 334.98 426.8 344.68"/></g><path class="cls-19" d="M612.12,421.57h0c.33-.19,.59-.64,.59-1h0c0-.36-.27-.5-.59-.32h0c-.33,.19-.59,.64-.59,1h0c0,.36,.27,.5,.59,.32Z"/><g><path class="cls-19" d="M689.17,380.26h0c.5-.29,.92-.99,.92-1.55v-4.37c0-.56-.41-.78-.92-.49h0c-.5,.29-.92,.99-.92,1.55v4.37c0,.56,.41,.78,.92,.49Z"/><path class="cls-19" d="M685.51,382.38h0c.5-.29,.92-.99,.92-1.55v-4.37c0-.56-.41-.78-.92-.49h0c-.5,.29-.92,.99-.92,1.55v4.37c0,.56,.41,.78,.92,.49Z"/><path class="cls-19" d="M681.84,384.5h0c.5-.29,.92-.99,.92-1.55v-4.37c0-.56-.41-.78-.92-.49h0c-.5,.29-.92,.99-.92,1.55v4.37c0,.56,.41,.78,.92,.49Z"/><path class="cls-19" d="M678.17,386.62h0c.5-.29,.92-.99,.92-1.55v-4.37c0-.56-.41-.78-.92-.49h0c-.5,.29-.92,.99-.92,1.55v4.37c0,.56,.41,.78,.92,.49Z"/><path class="cls-19" d="M674.5,388.74h0c.5-.29,.92-.99,.92-1.55v-4.37c0-.56-.41-.78-.92-.49h0c-.5,.29-.92,.99-.92,1.55v4.37c0,.56,.41,.78,.92,.49Z"/><path class="cls-19" d="M670.83,390.85h0c.5-.29,.92-.99,.92-1.55v-4.37c0-.56-.41-.78-.92-.49h0c-.5,.29-.92,.99-.92,1.55v4.37c0,.56,.41,.78,.92,.49Z"/></g><path class="cls-21" d="M694.07,366.99l-91.18,52.63c-4.34,2.5-9.7,3.6-14.98,3.58l.02-2.3c3.51,0,7.05-.63,10.04-1.88,1.77-.74,3.08-1.58,4.65-2.52,2.98-1.79-6.77,3.97,34.23-19.7,6.67-3.86,13.31-7.78,19.98-11.63,6.68-3.85,13.38-7.62,20.03-11.52,2.78-1.62,5.54-3.27,8.34-4.84,5.52-3.11,8.13-4.32,9.83-6.77,2.23-3.21,1.72-7.45-3.79-10.71-.21-.13-191.84-110.79-192.7-111.21-3.04-1.47-6.96-2.32-11.07-2.32l.02-2.3c2.64,0,5.28,.3,7.76,.83,2.58,.55,4.99,1.46,7.22,2.76l191.6,110.62c1.59,.92,3.11,2.04,4.25,3.51,1.18,1.53,1.95,3.46,1.95,5.36,0,.49-.05,.99-.16,1.47-.67,2.9-3.46,5.46-6.04,6.94Z"/><g><path class="cls-21" d="M502.06,242.15c-2.23-1.29-3.47-2-3.53-2.03-3.04-1.48-6.96-2.32-11.07-2.32-1.94,0-3.95,.2-5.89,.61-3.95,.84-5.86,2.04-8.79,3.79-2.76,1.66,5.48-3.2-26.39,15.17l-7.84,4.53c-6.67,3.86-13.31,7.78-19.98,11.63-1.83,1.06-3.66,2.1-5.49,3.14-4.85,2.78-9.71,5.54-14.55,8.37-2.77,1.63-5.54,3.27-8.32,4.84-3.25,1.84-6.3,3.44-7.85,4.69-3.47,2.79-4.39,6.65-1.54,10.07,1.58,1.9,2.84,2.4,8.35,5.62l81.04,46.79c50.54,29.18,106.13,61.26,106.66,61.52,3.16,1.55,7.12,2.32,11.06,2.32,3.51,0,7.04-.63,10.04-1.88,1.77-.74,3.09-1.58,4.65-2.52,2.98-1.79-6.77,3.97,34.23-19.7,6.67-3.86,13.31-7.78,19.98-11.63,6.68-3.85,13.38-7.62,20.04-11.51,2.76-1.62,5.54-3.27,8.32-4.84,5.53-3.11,8.13-4.32,9.83-6.77,2.15-3.09,1.75-7.12-3.18-10.32-.2-.13-.41-.26-.62-.39-.19-.12-162.94-94.11-189.16-109.19Z"/><path class="cls-1" d="M691.85,351.73c4.93,3.2,5.33,7.23,3.18,10.32-1.7,2.46-4.3,3.67-9.83,6.77-2.79,1.57-5.56,3.22-8.32,4.84-6.66,3.89-13.36,7.67-20.04,11.51-6.67,3.85-13.31,7.77-19.98,11.63-41,23.66-31.25,17.91-34.23,19.7-1.56,.94-2.88,1.79-4.65,2.52-6.41,2.68-15.18,2.45-21.09-.44-.89-.43-163.17-94.15-187.71-108.32-5.51-3.22-6.77-3.73-8.35-5.62-2.85-3.42-1.93-7.29,1.54-10.07,1.89-1.51,3.53-2.1,16.18-9.53,3.77-2.21,7.56-4.37,11.34-6.53,1.77-1.02,4.64-1.01,6.4,0,4.16,2.4,10.91,2.4,15.08,0l18.3-10.56c4.16-2.4,4.16-6.3,0-8.7-1.88-1.08-1.76-2.74-.03-3.73,28.08-16.18,20.5-11.71,23.17-13.31,2.93-1.76,4.84-2.96,8.79-3.79,6.04-1.29,12.52-.45,16.96,1.71,.12,.05-5.08-2.94,193.32,111.6Z"/></g><g><path class="cls-18" d="M442.45,264.58c.83-.49,2.16-.49,2.99,0l1.11,.64-20.3,11.72c-.83,.48-2.17,.47-3,0l-1.1-.64,20.3-11.72Z"/><path class="cls-20" d="M445.44,262.51l1.4,.81c.84,.48,.82,1.25,0,1.73l-.29,.17-1.11-.64c-.83-.49-2.16-.49-2.99,0l-20.3,11.72-.29-.17c-.4-.23-.62-.55-.63-.85v-.02c0-.31,.21-.63,.63-.86l20.59-11.89c.83-.48,2.17-.47,2.99,0Z"/></g><path class="cls-21" d="M407.88,285.39c1.69,.97,4.42,.97,6.11,0s1.69-2.55,0-3.53c-1.69-.97-4.42-.97-6.11,0-1.69,.97-1.69,2.55,0,3.53Z"/><path class="cls-21" d="M466.33,251.65c1.69,.97,4.42,.97,6.11,0,1.69-.97,1.69-2.55,0-3.53-1.69-.97-4.42-.97-6.11,0-1.69,.97-1.69,2.55,0,3.53Z"/><path class="cls-21" d="M398.71,290.69c.84,.49,2.21,.49,3.06,0,.84-.49,.84-1.28,0-1.76-.84-.49-2.21-.49-3.06,0-.84,.49-.84,1.28,0,1.76Z"/><path class="cls-21" d="M453.34,258.71c.84,.49,2.21,.49,3.06,0,.84-.49,.84-1.28,0-1.76-.84-.49-2.21-.49-3.06,0-.84,.49-.84,1.28,0,1.76Z"/><path class="cls-21" d="M458.31,255.84c.84,.49,2.21,.49,3.06,0,.84-.49,.84-1.28,0-1.76-.84-.49-2.21-.49-3.06,0-.84,.49-.84,1.28,0,1.76Z"/></g><g class="cls-30"><path class="cls-21" d="M463.21,286.67l-41.56,23.99c-1.35,.78-3.54,.78-4.89,0h0c-1.35-.78-1.35-2.04,0-2.82l41.56-23.99c1.35-.78,3.54-.78,4.89,0h0c1.35,.78,1.35,2.04,0,2.82Z"/><path class="cls-21" d="M460.43,299.56l-29,16.74c-1.35,.78-3.54,.78-4.89,0h0c-1.35-.78-1.35-2.04,0-2.82l29-16.74c1.35-.78,3.54-.78,4.89,0h0c1.35,.78,1.35,2.04,0,2.82Z"/><path class="cls-21" d="M470.2,305.2l-29,16.74c-1.35,.78-3.54,.78-4.89,0h0c-1.35-.78-1.35-2.04,0-2.82l29-16.74c1.35-.78,3.54-.78,4.89,0h0c1.35,.78,1.35,2.04,0,2.82Z"/></g><g class="cls-30"><path class="cls-21" d="M538.2,274.59l-41.56,23.99c-1.35,.78-3.54,.78-4.89,0h0c-1.35-.78-1.35-2.04,0-2.82l41.56-23.99c1.35-.78,3.54-.78,4.89,0h0c1.35,.78,1.35,2.04,0,2.82Z"/><path class="cls-21" d="M535.42,287.48l-29,16.74c-1.35,.78-3.54,.78-4.89,0h0c-1.35-.78-1.35-2.04,0-2.82l29-16.74c1.35-.78,3.54-.78,4.89,0h0c1.35,.78,1.35,2.04,0,2.82Z"/><path class="cls-21" d="M545.19,293.12l-29,16.74c-1.35,.78-3.54,.78-4.89,0h0c-1.35-.78-1.35-2.04,0-2.82l29-16.74c1.35-.78,3.54-.78,4.89,0h0c1.35,.78,1.35,2.04,0,2.82Z"/></g><g class="cls-30"><path class="cls-21" d="M551.73,341.8l-41.56,23.99c-1.35,.78-3.54,.78-4.89,0h0c-1.35-.78-1.35-2.04,0-2.82l41.56-23.99c1.35-.78,3.54-.78,4.89,0h0c1.35,.78,1.35,2.04,0,2.82Z"/><path class="cls-21" d="M548.94,354.69l-29,16.74c-1.35,.78-3.54,.78-4.89,0h0c-1.35-.78-1.35-2.04,0-2.82l29-16.74c1.35-.78,3.54-.78,4.89,0h0c1.35,.78,1.35,2.04,0,2.82Z"/><path class="cls-21" d="M558.71,360.33l-29,16.74c-1.35,.78-3.54,.78-4.89,0h0c-1.35-.78-1.35-2.04,0-2.82l29-16.74c1.35-.78,3.54-.78,4.89,0h0c1.35,.78,1.35,2.04,0,2.82Z"/></g><g><path class="cls-25" d="M686.05,239.27c-5.1,2.94-10.2,5.89-15.3,8.83,2.57-1.6,4.15-4.88,4.15-9.5v-25.78c0-9.47-6.65-20.99-14.85-25.73-12.6-7.28-25.21-14.56-37.82-21.84-4.02-2.32-7.66-2.58-10.34-1.13,5.11-2.96,10.22-5.91,15.33-8.86,2.69-1.55,6.4-1.32,10.5,1.04,12.6,7.28,25.21,14.56,37.82,21.84,8.2,4.73,14.85,16.25,14.85,25.73v25.78c0,4.73-1.66,8.06-4.35,9.62Z"/><path class="cls-12" d="M674.91,212.82v25.78c0,4.62-1.58,7.9-4.15,9.5-.07,.04-.13,.07-.2,.12-2.69,1.56-6.4,1.33-10.5-1.04-12.6-7.27-25.21-14.56-37.82-21.83l-14.85,4.24v-55.74c0-4.73,1.66-8.06,4.35-9.62,.06-.03,.11-.07,.17-.09,2.67-1.46,6.31-1.19,10.34,1.13,12.6,7.28,25.21,14.56,37.82,21.84,8.2,4.73,14.85,16.25,14.85,25.73Z"/><g><path class="cls-6" d="M633.19,200.39c0,2.02-1.64,2.72-3.66,1.55-2.02-1.17-3.66-3.76-3.66-5.78s1.64-2.72,3.66-1.55c2.02,1.17,3.66,3.76,3.66,5.78Z"/><path class="cls-6" d="M644.81,207.1c0,2.02-1.64,2.72-3.66,1.55s-3.66-3.76-3.66-5.78,1.64-2.72,3.66-1.55,3.66,3.76,3.66,5.78Z"/><path class="cls-6" d="M656.42,213.8c0,2.02-1.64,2.72-3.66,1.55s-3.66-3.76-3.66-5.78,1.64-2.72,3.66-1.55,3.66,3.76,3.66,5.78Z"/></g></g><g><path class="cls-12" d="M625.48,119.72v3.94c0-1.09-1.08-1.97-2.42-1.97,1.34,0,2.42-.89,2.42-1.97Z"/><path class="cls-12" d="M625.48,116.33v3.38c0-1.09-1.08-1.97-2.42-1.97h-5.54v-.02c.06-.18,1.2-3.63,1.2-6.81v-.49h4.33c1.34,0,2.42,.88,2.42,1.97v3.94Z"/><path class="cls-12" d="M625.01,124.83v2.56c0-.77-.53-1.43-1.31-1.76h-.59c.79,0,1.47-.33,1.91-.8Z"/><path class="cls-12" d="M622.6,129.36c.33,0,.65-.05,.93-.15v1.8c0-.66-.39-1.23-.99-1.59v-.06h.05Z"/><path class="cls-25" d="M618.73,110.91c0,3.18-1.14,6.63-1.2,6.81v.02h5.54c1.34,0,2.42,.88,2.42,1.97s-1.08,1.97-2.42,1.97c1.34,0,2.42,.88,2.42,1.97,0,.44-.17,.84-.47,1.17-.43,.48-1.12,.8-1.91,.8h.59c.78,.33,1.31,.99,1.31,1.76,0,.82-.61,1.52-1.48,1.82h0c-.29,.1-.6,.15-.93,.15h-1.74l1.69,.06c.6,.36,.99,.93,.99,1.59,0,1.09-1.08,1.97-2.41,1.97h-10c-3.68,0-6.67-2.44-6.67-5.44v-5.72c0-2,1.49-3.8,3.77-4.53,2.17-.7,4.73-2.39,6.05-6.36,1.1-3.31,4.1-3.2,4.42-.49,.02,.15,.03,.32,.03,.49Z"/><path class="cls-12" d="M608.23,117.28c-2.28,.74-3.77,2.53-3.77,4.53v-7.32c0-2,1.49-3.8,3.77-4.54,2.17-.7,4.73-2.39,6.05-6.36,1.16-3.51,4.45-3.18,4.45,0v6.83h-.03c-.33-2.71-3.33-2.82-4.42,.49-1.32,3.97-3.87,5.67-6.05,6.36Z"/></g><g><path class="cls-12" d="M497.83,65.92c-1.98-.31-3.97-.61-5.95-.92,.58-5,1.98-8.86,2.95-9.1h.14c2.33,.37,4.67,.73,7,1.09h0c-.33,0-.74,.45-1.17,1.39-1.14,2.46-2.08,7.39-2.08,11,0-2.25-.36-3.45-.9-3.45h0Z"/><path class="cls-25" d="M498.73,69.38c0-3.61,.93-8.53,2.08-11,.43-.94,.83-1.38,1.17-1.38,.54,0,.9,1.21,.9,3.45,0,3.07-.34,4.37-4.15,27.28-1.13-2.4-2.34-4.47-3.61-6.21-.33-.45-.53-1.54-.53-3.21,0-3.61,.93-8.53,2.07-11,.43-.94,.83-1.38,1.17-1.38,.54,0,.9,1.21,.9,3.45Z"/><path class="cls-12" d="M490.83,64.84c.35,.05,.7,.11,1.05,.16,1.98,.31,3.96,.61,5.95,.92h0c-.33,0-.74,.45-1.17,1.39-1.14,2.46-2.07,7.39-2.07,11,0,1.67,.2,2.76,.53,3.21,1.27,1.75,2.48,3.82,3.61,6.21l-7.05-1.09c-1.14-2.4-2.34-4.47-3.62-6.21-.32-.45-.53-1.54-.53-3.21,0-3.61,.93-8.53,2.07-11,.46-.98,.88-1.43,1.23-1.38Z"/></g><g><path class="cls-15" d="M539.32,300.49v1.91l-1.94,1.12-38.17,22.04v-1.91c0-7.35,5.17-16.3,11.53-19.97,5.68-3.28,11.36-6.56,17.05-9.85,3.12-1.8,5.95-2,8.03-.87,2.16,1.17,3.5,3.79,3.5,7.53Z"/><polygon class="cls-12" points="539.32 304.64 499.2 327.81 489.85 322.41 491.79 321.28 499.2 325.57 537.37 303.53 539.32 304.64"/><polygon class="cls-7" points="539.3 325.35 499.22 348.5 489.86 343.09 491.81 341.97 499.22 346.25 537.36 324.23 539.3 325.35"/><path class="cls-15" d="M539.3,325.35c-.3,7.21-5.34,15.73-11.51,19.29-5.68,3.28-11.37,6.56-17.05,9.85-3.19,1.84-6.07,2.01-8.16,.8,0,0-.02-.01-.03-.02-1.94-1.14-3.19-3.47-3.33-6.78l40.08-23.14Z"/><path class="cls-7" d="M526.59,287.63c3.08,1.77,6.15,3.56,9.23,5.33h0c-2.07-1.12-4.91-.92-8.03,.88-5.68,3.28-11.37,6.56-17.05,9.85-6.37,3.68-11.53,12.62-11.53,19.97v1.91l-7.41-4.28-1.94-1.12v-1.91c0-7.35,5.17-16.3,11.53-19.97,5.68-3.28,11.36-6.56,17.05-9.85,3.19-1.84,6.07-2.01,8.16-.81Z"/><path class="cls-7" d="M499.22,348.5c.14,3.31,1.39,5.64,3.33,6.78-3.11-1.79-6.21-3.58-9.32-5.38-1.96-1.13-3.22-3.47-3.37-6.8l9.36,5.41Z"/><path class="cls-25" d="M537.36,324.23l-38.14,22.02c-.02-.52-.01,.66-.01-18.44l40.11-23.16v17.78c0,.23,0,.45-.01,.68l-1.94,1.12Z"/><path class="cls-12" d="M499.2,327.81c0,19.1,0,17.92,.01,18.44l-7.41-4.28-1.94-1.12c-.02-.48-.01,1.05-.01-18.44l9.36,5.4Z"/></g><g><path class="cls-7" d="M418.34,145.1c1.48,.86,2.97,1.71,4.45,2.57h0c-.88-.51-2.1-.44-3.45,.34-2.69,1.56-4.88,5.34-4.88,8.45,0-1.56-.55-2.65-1.43-3.15h0c-.9-.53-1.81-1.05-2.71-1.57,.69-2.54,2.48-5.09,4.57-6.29,1.35-.78,2.57-.85,3.45-.34Z"/><path class="cls-14" d="M424.22,150.83c0,1.44-.51,3.01-1.25,4.47-2.83,5.66-5.67,11.32-8.51,16.97-2.68-2.63-5.52-5.01-8.51-7.15-.77-.55-1.25-1.59-1.25-3.03,0-3.11,2.18-6.89,4.88-8.45,1.35-.78,2.56-.85,3.44-.34,.89,.5,1.43,1.6,1.43,3.15,0-3.11,2.19-6.89,4.88-8.45,1.35-.78,2.57-.85,3.45-.33,.88,.51,1.42,1.6,1.42,3.15Z"/><path class="cls-7" d="M404.71,162.09c0,1.44,.47,2.48,1.25,3.03,2.99,2.14,5.83,4.52,8.51,7.15l-4.45-2.57c-2.68-2.63-5.52-5.01-8.51-7.15-.77-.55-1.25-1.59-1.25-3.03,0-3.11,2.18-6.89,4.88-8.45,1.35-.78,2.57-.85,3.45-.34,.58,.33,1.16,.67,1.74,1,.9,.52,1.81,1.04,2.71,1.56h0c-.88-.51-2.1-.43-3.44,.34-2.7,1.55-4.88,5.34-4.88,8.45Z"/></g><g><path class="cls-12" d="M677.73,276.97v3.61c0-3.09-3.07-5.61-6.87-5.61s-6.62,2.32-6.85,5.25h-.02v-3.25c0-3.1,3.07-5.61,6.87-5.61s6.87,2.51,6.87,5.61Z"/><path class="cls-25" d="M663.99,296.32c-3.77-4.16-7.76-8.16-11.98-12.01-1.09-.99-1.76-2.3-1.76-3.74,0-3.09,3.07-5.61,6.87-5.61s6.86,2.51,6.86,5.61c0-.12,0-.24,.02-.36,.23-2.93,3.21-5.25,6.85-5.25s6.87,2.51,6.87,5.61c0,1.44-.72,2.7-1.76,3.74-3.99,4-7.99,8-11.98,12.01Z"/><path class="cls-12" d="M664.01,280.22c-.01,.12-.02,.24-.02,.36,0-3.09-3.07-5.61-6.86-5.61s-6.87,2.51-6.87,5.61v-3.61h0c0-2.95,2.9-5.61,6.87-5.61s6.86,2.51,6.86,5.61v3.25h.02Z"/></g><g><path class="cls-25" d="M492.27,115.07v24.84c0,8.7-6.1,19.27-13.64,23.62-1.06,.61-2.12,1.22-3.18,1.84l-7.57,18.22-7.57-9.48c-1.06,.61-2.13,1.22-3.18,1.84-.31,.18-.61,.34-.92,.49-3.4,1.71-6.46,1.77-8.73,.46-.06-.04-.12-.07-.18-.11-2.36-1.47-3.82-4.48-3.82-8.72v-24.83c0-8.7,6.11-19.28,13.64-23.63,7.17-4.14,14.34-8.28,21.51-12.41,3.69-2.13,7.04-2.38,9.49-1.04,.05,.02,.1,.05,.15,.08,2.47,1.42,3.99,4.48,3.99,8.83Z"/><path class="cls-12" d="M436.42,170.51c-2.47-1.42-3.99-4.48-3.99-8.83v-24.84c0-8.7,6.1-19.27,13.64-23.62,7.17-4.14,14.34-8.28,21.51-12.42,3.77-2.17,7.18-2.38,9.64-.95,3.65,2.1,7.28,4.2,10.92,6.3-2.45-1.34-5.8-1.09-9.49,1.04-7.17,4.14-14.34,8.28-21.51,12.41-7.53,4.35-13.64,14.92-13.64,23.63v24.83c0,4.24,1.45,7.26,3.82,8.72-3.63-2.09-7.26-4.18-10.88-6.28Z"/><path class="cls-12" d="M460.31,174.11l7.57,9.48-11.07-6.39-.6-.76c.3-.15,.61-.31,.92-.49,1.06-.61,2.12-1.23,3.18-1.84Z"/><path class="cls-16" d="M460.91,139.75c-1.36,.97-2.39,2.74-2.39,4.12v.65l-2,1.15c-.6,.34-1.08,1.11-1.08,1.71s.48,.8,1.08,.46l2-1.16v.65c0,1.38,1.03,1.96,2.39,1.36l.28-.12v4.26c0,.6,.48,.8,1.08,.46s1.08-1.11,1.08-1.71v-3.97l5.92-2.62c.26,1.38,1.59,1.78,3.19,.85,1.79-1.03,3.24-3.33,3.24-5.11v-10.09c0-1.79-1.45-2.4-3.24-1.37-1.6,.92-2.93,2.86-3.19,4.54l-8.36,5.95Zm8.31,3.07l-8.03,3.55c-.3,.13-.52,0-.52-.3v-3.46c0-.3,.22-.69,.52-.9l8.03-5.71v6.81Zm2.16-9.7c0-.6,.48-1.36,1.08-1.7,.59-.34,1.08-.14,1.08,.46v10.09c0,.6-.48,1.36-1.08,1.7-.59,.34-1.08,.14-1.08-.46v-10.09Z"/></g><g><path class="cls-15" d="M432.43,198.2v49.14l-13.09-3.74c-15.48,8.93-30.96,17.87-46.43,26.8-3.62,2.09-6.89,2.29-9.26,.91-2.37-1.37-3.83-4.29-3.83-8.47v-22.73c0-8.35,5.87-18.51,13.1-22.68,15.48-8.94,30.95-17.88,46.43-26.81,3.55-2.05,6.76-2.27,9.12-.99,2.45,1.33,3.98,4.29,3.98,8.55Z"/><path class="cls-7" d="M428.45,189.65c-2.35-1.28-5.57-1.06-9.12,.99-15.48,8.93-30.96,17.87-46.43,26.81-7.23,4.18-13.1,14.33-13.1,22.68v22.73c0,4.18,1.46,7.1,3.83,8.47h0c-3.54-2.04-7.08-4.08-10.62-6.13-2.37-1.37-3.84-4.31-3.84-8.48v-22.72c0-8.35,5.87-18.51,13.1-22.69,15.48-8.93,30.96-17.87,46.43-26.8,3.62-2.09,6.89-2.29,9.26-.92,3.5,2.01,6.99,4.04,10.49,6.05h0Z"/><path class="cls-5" d="M408.35,222.79c0-6.81-5.54-9.14-12.35-5.21-1.97,1.14-3.85,2.67-5.59,4.57-1.53,1.66-2.91,3.57-3.99,5.53-.17,.04-.35,.12-.54,.23-.99,.57-1.79,1.84-1.79,2.83,0,.5,.21,.83,.54,.97-.64,1.89-.96,3.68-.96,5.35,0,6.81,5.54,9.14,12.35,5.21,2.19-1.26,4.34-3.08,6.21-5.26,1.25-1.45,2.37-3.05,3.29-4.69,.02-.03,.04-.06,.06-.09,.07-.12,1.29-2.16,2.11-5.01,0-.02,.02-.04,.02-.07,.17-.58,.3-1.16,.4-1.72,.11-.58,.2-1.18,.25-1.79,0-.07,0-.12-.02-.17,.01-.22,.02-.44,.02-.66Zm-1.09,.09l-3.53,2.04c-.01-.55-.05-1.09-.11-1.6,.6-.64,1.01-1.49,1.01-2.2,0-.97-.77-1.31-1.73-.8-.29-.74-.64-1.37-1.05-1.89,.47-.43,.93-.87,1.37-1.33,2.35,.61,3.89,2.61,4.04,5.78Zm-3.71-1.14c0,.4-.32,.9-.72,1.13-.4,.23-.72,.09-.72-.3s.32-.9,.72-1.13c.4-.23,.72-.09,.72,.3Zm-1.33-4.8c-.31,.3-.62,.59-.94,.88-.3-.28-.63-.5-.98-.67-.07-.03-.14-.06-.2-.09,.75-.14,1.47-.18,2.13-.12Zm-5.68,1.44c1.34-.58,2.6-.43,3.63,.38-1.15,.94-2.37,1.8-3.63,2.57v-2.95Zm0,4.02c1.48-.89,2.92-1.92,4.25-3.04,.42,.49,.78,1.11,1.07,1.85-.5,.61-.82,1.35-.82,1.98,0,.89,.66,1.26,1.51,.9,.05,.47,.09,.95,.1,1.45l-6.12,3.53v-6.67Zm0,7.74l6.12-3.53c-.08,2.77-.73,5.69-1.86,8.33h0c-1.34,.42-2.77,1.05-4.25,1.87v-1.77c.73-.65,1.26-1.64,1.26-2.44s-.53-1.18-1.26-.99v-1.48Zm-1.08-11.15v2.95c-1.27,.7-2.49,1.25-3.64,1.63,1.03-2,2.29-3.62,3.64-4.58Zm-4.57,3.82c.34-.37,.68-.72,1.03-1.05-.43,.67-.83,1.39-1.2,2.15-.32,.08-.64,.15-.95,.21,.36-.45,.73-.88,1.12-1.3Zm-5.02,6.16c.4-.23,.72-.09,.72,.3s-.32,.9-.72,1.13c-.4,.23-.72,.09-.72-.3s.32-.9,.72-1.13Zm-.3,2.66c.1-.04,.2-.09,.3-.15,.99-.57,1.79-1.84,1.79-2.83,0-.41-.14-.71-.37-.88,.45-.8,.94-1.58,1.48-2.34,.44-.06,.9-.14,1.38-.26-.52,1.27-.96,2.62-1.28,4.03-.08,.33,.1,.53,.38,.44,.05-.01,.09-.04,.14-.06,.24-.14,.46-.42,.52-.7,.32-1.41,.76-2.76,1.29-4,1.34-.42,2.77-1.05,4.26-1.87v6.67l-6.12,3.53c.02-.57,.06-1.15,.12-1.73,.03-.32-.18-.46-.47-.33-.29,.14-.56,.5-.6,.82-.07,.63-.11,1.25-.13,1.86l-3.53,2.04c.06-1.34,.34-2.76,.84-4.24Zm-.84,5.32l3.53-2.04c.07,2.77,.73,5.04,1.88,6.49-.47,.43-.93,.87-1.37,1.33-2.35-.61-3.89-2.61-4.04-5.78Zm5.04,5.94c.31-.3,.62-.59,.94-.88,.37,.33,.76,.59,1.18,.76-.75,.14-1.46,.18-2.12,.12Zm5.68-1.44c-1.33,.59-2.59,.45-3.64-.38,1.15-.94,2.37-1.8,3.64-2.57v2.95Zm0-4.02c-1.48,.89-2.92,1.92-4.25,3.04-1.13-1.33-1.79-3.5-1.86-6.18l6.12-3.53v1.48h0c-.73,.65-1.26,1.64-1.26,2.44s.53,1.18,1.26,.99v1.77Zm.54-3.07c-.4,.23-.72,.09-.72-.3s.32-.9,.72-1.13,.72-.09,.72,.3-.32,.9-.72,1.13Zm.54,6.47v-2.95c1.26-.7,2.49-1.24,3.64-1.63-1.05,2.04-2.31,3.63-3.64,4.58Zm5.13-4.45c-.51,.59-1.03,1.15-1.58,1.67,.42-.66,.81-1.37,1.18-2.13,.32-.08,.64-.15,.95-.21-.18,.23-.37,.45-.55,.67Zm1.55-1.99c-.44,.06-.9,.14-1.38,.26,1.15-2.77,1.81-5.8,1.88-8.66l3.53-2.04c-.03,.59-.1,1.19-.21,1.81-.31,1.62-.83,3.08-1.29,4.17-.02,.03-.03,.06-.05,.09-.66,1.49-1.5,2.97-2.49,4.36Z"/></g><g><path class="cls-15" d="M529.37,195.95v34.79c0,12.18-8.55,26.99-19.1,33.08-1.49,.86-2.97,1.71-4.46,2.57l-10.6,25.52-10.6-13.27c-1.49,.85-2.98,1.71-4.46,2.57-.43,.25-.86,.48-1.28,.69-4.77,2.39-9.05,2.48-12.23,.65-.08-.05-.17-.1-.25-.15-3.31-2.05-5.35-6.27-5.35-12.21v-34.78c0-12.19,8.56-27,19.11-33.09,10.04-5.79,20.08-11.59,30.12-17.39,5.17-2.99,9.86-3.33,13.3-1.46,.07,.03,.14,.07,.21,.12,3.46,1.99,5.59,6.27,5.59,12.36Z"/><path class="cls-7" d="M451.15,273.61c-3.46-1.99-5.59-6.28-5.59-12.36v-34.79c0-12.18,8.55-26.99,19.1-33.08,10.04-5.79,20.08-11.59,30.12-17.39,5.28-3.05,10.05-3.33,13.5-1.33,5.11,2.94,10.19,5.88,15.29,8.83-3.43-1.87-8.13-1.53-13.3,1.46-10.04,5.79-20.08,11.59-30.12,17.39-10.55,6.09-19.11,20.9-19.11,33.09v34.78c0,5.94,2.04,10.16,5.35,12.21-5.08-2.93-10.16-5.86-15.24-8.8Z"/><path class="cls-7" d="M484.61,278.65l10.6,13.27-15.5-8.95-.84-1.07c.42-.21,.85-.44,1.28-.69,1.48-.86,2.97-1.72,4.46-2.57Z"/><path class="cls-5" d="M495.21,255.62c-.32,0-.63-.13-.87-.35-3.91-3.84-8.09-7.35-12.44-10.46-1.52-1.09-2.36-3.04-2.36-5.49,0-5.08,3.44-11.04,7.83-13.57,2.32-1.34,4.57-1.52,6.33-.5,.44,.25,.83,.56,1.17,.94,1.3-3.61,3.89-7.01,6.93-8.77,2.34-1.35,4.6-1.52,6.35-.49,1.75,1,2.72,3.04,2.72,5.73,0,2.15-.66,4.56-1.97,7.17-4.19,8.37-8.39,16.74-12.59,25.12-.18,.35-.51,.6-.9,.67-.07,.01-.14,.02-.2,.02Zm-4.01-28.55c-.77,0-1.65,.28-2.59,.82-3.58,2.06-6.6,7.3-6.6,11.43,0,1.63,.47,2.87,1.32,3.48,4,2.86,7.87,6.06,11.52,9.53,3.95-7.87,7.89-15.74,11.83-23.61,1.12-2.23,1.71-4.33,1.71-6.06s-.53-3.04-1.49-3.59c-.97-.57-2.34-.39-3.88,.49-3.57,2.07-6.6,7.31-6.6,11.43,0,.68-.55,1.24-1.24,1.24s-1.24-.55-1.24-1.24c0-1.75-.54-3.06-1.49-3.59-.37-.22-.81-.32-1.28-.32Z"/></g><g><path class="cls-25" d="M680.38,353.22c0,.88-.35,1.4-.73,1.61-14.46,8.36-28.93,16.71-43.39,25.06v-3.92l-3.66-2.11c14.51-8.38,29.01-16.76,43.52-25.13,.5-.28,1.17-.13,1.7,.14,.73,.36,1.22,.94,1.63,1.61,.52,.84,.93,1.79,.93,2.75Z"/><path class="cls-25" d="M655.21,327.52c.42,1.03,.63,2.34,.54,3.94,2.22-1.13,4.21-1.19,5.68-.34,1.59,.9,2.57,2.85,2.57,5.64,0,5.58-3.91,12.36-8.75,15.15-11.41,6.6-22.83,13.18-34.25,19.78-2.47,1.43-4.71,1.53-6.3,.54-1.52-.94-2.45-2.87-2.45-5.59,0-4.86,2.98-10.63,6.94-13.89-3.07-7.55,3-20.61,11.27-25.38,3.29-1.9,6.26-2.1,8.43-.89,.02,.02,.05,.02,.07,.04,1.46,.84,2.54,2.32,3.1,4.34,3.66-5.35,8.37-7.21,11.2-5.62,.83,.46,1.5,1.22,1.94,2.27Z"/><path class="cls-12" d="M655.21,327.52c2.08,1.19,4.15,2.4,6.22,3.59h0c-1.46-.84-3.46-.79-5.68,.35,.09-1.6-.12-2.9-.54-3.94Z"/><path class="cls-9" d="M637.78,316.31c5.16,2.98,10.33,5.97,15.49,8.95-2.83-1.59-7.55,.27-11.2,5.62-.56-2.03-1.65-3.51-3.1-4.34-.02-.02-.05-.02-.07-.04-3.65-2.12-7.31-4.22-10.96-6.33,1.15-1.33,2.44-2.46,3.81-3.25,2.36-1.36,4.48-1.49,6.03-.6Z"/><polygon class="cls-15" points="636.26 379.89 636.26 383.59 629.66 387.4 629.66 379.78 636.26 375.97 636.26 379.89"/><polygon class="cls-7" points="636.26 375.97 629.66 379.78 622.81 375.82 629.4 372.01 632.6 373.86 636.26 375.97"/><path class="cls-7" d="M629.66,379.78v7.62l-3.19-1.85c.48-.28,.96-.55,1.44-.84,.47-.22,.83-.76,.83-1.67,0-1.72-1.39-3.9-2.81-4.48-.55-.23-1.02-.22-1.37-.07-.06,.02-.11,.06-.16,.09-.53,.31-1.07,.61-1.6,.92v-3.69l6.85,3.96Z"/><path class="cls-12" d="M623.54,317.62c1.46,.84,2.94,1.7,4.4,2.54,3.65,2.11,7.31,4.21,10.96,6.33-2.17-1.22-5.15-1.02-8.43,.89-8.27,4.77-14.34,17.83-11.27,25.38l-15.5-8.95c-3.08-7.56,3.02-20.62,11.27-25.39,3.33-1.91,6.34-2.09,8.51-.84,.02,0,.04,.02,.06,.03Z"/><path class="cls-9" d="M603.69,343.81l15.5,8.95c-3.96,3.25-6.94,9.03-6.94,13.89,0,2.72,.93,4.65,2.45,5.59h0c-5.12-2.95-10.26-5.92-15.38-8.88-1.58-.91-2.57-2.87-2.57-5.66,0-4.86,2.98-10.64,6.94-13.89Z"/><path class="cls-25" d="M583.67,409.06c-.07-2.76-2.78-5.36-4.25-4.48h0c14.46-8.37,28.93-16.72,43.39-25.06,.53-.31,1.07-.61,1.6-.92,.05-.03,.1-.07,.16-.09,.35-.16,.81-.17,1.37,.07,1.42,.58,2.81,2.76,2.81,4.48,0,.91-.36,1.45-.83,1.67-.48,.28-.96,.55-1.44,.84-14.51,8.37-29.02,16.75-43.53,25.12h0c.22-.14,.39-.33,.51-.54,.18-.32,.24-.7,.22-1.08Z"/><path class="cls-12" d="M581.51,410.67c-2.04-.86-3.41-4.15-2.6-5.55,.14-.25,.31-.42,.51-.54,1.46-.88,4.17,1.73,4.25,4.48,.02,.38-.04,.75-.22,1.08-.12,.21-.3,.4-.51,.53-.11,.07-.22,.12-.34,.15-.36,.09-.74,0-1.08-.15Z"/><g><path class="cls-16" d="M632.31,352.59c0,1.67-1.36,3.82-3.03,4.78-1.67,.97-3.03,.39-3.03-1.28s1.36-3.82,3.03-4.78c1.67-.97,3.03-.39,3.03,1.28Z"/><path class="cls-16" d="M641.93,347.05c0,1.67-1.36,3.82-3.03,4.78-1.67,.97-3.03,.39-3.03-1.28s1.36-3.82,3.03-4.78c1.67-.97,3.03-.39,3.03,1.28Z"/><path class="cls-16" d="M651.54,341.5c0,1.67-1.36,3.82-3.03,4.78-1.67,.97-3.03,.39-3.03-1.28s1.36-3.82,3.03-4.78c1.67-.97,3.03-.39,3.03,1.28Z"/></g></g><g><path class="cls-25" d="M590.64,200.06v16.59c0,6.1-4.28,13.51-9.56,16.56-8.11,4.69-16.23,9.37-24.34,14.05l-9.56,13.77v-35.87c0-6.1,4.28-13.51,9.56-16.56,8.11-4.68,16.23-9.36,24.34-14.05,2.59-1.49,4.93-1.66,6.65-.73,1.79,.97,2.91,3.14,2.91,6.25Z"/><path class="cls-12" d="M577.99,188.19c3.25,1.87,6.5,3.75,9.75,5.63-1.72-.93-4.06-.76-6.65,.73-8.11,4.69-16.23,9.37-24.34,14.05-5.28,3.05-9.56,10.46-9.56,16.56v35.87l-9.97-5.76v-35.88c0-6.09,4.28-13.51,9.56-16.56,8.12-4.68,16.23-9.37,24.34-14.05,2.64-1.52,5.03-1.67,6.76-.67,.04,.02,.08,.04,.12,.07Z"/><g><path class="cls-16" d="M565.89,228.98c1.61,.79,3.2,.87,3.37,.88,.07,0,.15-.02,.24-.07,.09-.05,.18-.13,.25-.22,.24-.28,1.79-2.17,3.36-4.76,2.23-3.67,3.41-6.99,3.41-9.6,0-1.88-.73-3.22-2.06-3.78-1.33-.56-3.09-.27-4.96,.81h0s0,0,0,0c-3.87,2.24-7.02,7.2-7.02,11.07,0,2.61,1.18,4.56,3.41,5.66h0Zm3.61-15.88c1.65-.95,3.19-1.2,4.36-.71,1.16,.49,1.8,1.67,1.8,3.31,0,3-1.72,6.47-3.16,8.85-1.24,2.05-2.5,3.67-3,4.29-.5-.05-1.76-.21-3-.83-1.44-.71-3.16-2.2-3.16-5.2,0-3.4,2.76-7.76,6.16-9.72Z"/><path class="cls-16" d="M573.34,217.44c0-2.3-1.98-2.91-4.24-1.38-1.98,1.34-3.46,3.86-3.46,5.83,0,1.05,.43,1.77,1.13,2.07,1.81,.77,4.84-1.41,6.09-4.37,.31-.73,.48-1.47,.48-2.14Zm-6.84,3.95c0-1.67,1.36-3.78,2.99-4.72,1.66-.96,2.99-.38,2.99,1.26s-1.34,3.77-2.99,4.72c-1.65,.96-2.99,.38-2.99-1.26Z"/></g></g><g><path class="cls-15" d="M636.33,253.23v25.78c0,9.47-6.65,20.99-14.85,25.73-12.6,7.28-25.21,14.56-37.82,21.84l-14.85,21.39v-55.74c0-9.47,6.65-20.99,14.85-25.73,12.6-7.27,25.21-14.55,37.82-21.83,4.02-2.32,7.66-2.58,10.34-1.13,2.79,1.51,4.52,4.87,4.52,9.71Z"/><path class="cls-7" d="M616.66,234.77c5.06,2.91,10.1,5.83,15.15,8.75-2.67-1.45-6.31-1.18-10.34,1.13-12.6,7.28-25.21,14.56-37.82,21.83-8.2,4.74-14.85,16.26-14.85,25.73v55.74l-15.5-8.95v-55.75c0-9.47,6.65-20.99,14.85-25.73,12.61-7.27,25.21-14.56,37.82-21.83,4.1-2.37,7.82-2.59,10.5-1.04,.06,.03,.12,.07,.18,.11Z"/><g><path class="cls-5" d="M617.74,266.76l-24.64,14.23-8.31-1.52c-.48-.09-1.12,.22-1.65,.8-.54,.58-.88,1.32-.88,1.92v25.76c0,2.66,2.16,3.57,4.81,2.04l10.65-6.15,6.07-3.5,13.95-8.05c2.65-1.53,4.81-4.94,4.81-7.59v-15.88c0-2.66-2.16-3.57-4.81-2.04Zm1.66,19.74c0,.92-.75,2.1-1.66,2.63l-13.95,8.05-6.07,3.5-10.65,6.15c-.92,.53-1.66,.21-1.66-.71v-22.58l6.21,1.14c.27,.05,.61-.03,.95-.23l25.17-14.53c.92-.53,1.66-.21,1.66,.71v15.88Z"/><path class="cls-5" d="M613.4,284.09l-20.99,12.12c-.87,.5-1.58,1.61-1.58,2.48s.7,1.17,1.58,.67l20.99-12.12c.87-.5,1.58-1.61,1.58-2.48s-.7-1.17-1.58-.67Z"/><path class="cls-5" d="M592.41,292.21l18.89-10.91c.87-.5,1.58-1.61,1.58-2.48s-.7-1.17-1.58-.67l-18.89,10.91c-.87,.5-1.58,1.61-1.58,2.48s.7,1.17,1.58,.67Z"/></g></g><g><path class="cls-15" d="M583.95,170.87c-5.1,2.94-10.2,5.89-15.3,8.83,2.57-1.6,4.15-4.88,4.15-9.5v-25.78c0-9.47-6.65-20.99-14.85-25.73-12.6-7.28-25.21-14.56-37.82-21.84-4.02-2.32-7.66-2.58-10.34-1.13,5.11-2.96,10.22-5.91,15.33-8.86,2.69-1.55,6.4-1.32,10.5,1.04,12.6,7.28,25.21,14.56,37.82,21.84,8.2,4.73,14.85,16.25,14.85,25.73v25.78c0,4.73-1.66,8.06-4.35,9.62Z"/><path class="cls-7" d="M572.81,144.43v25.78c0,4.62-1.58,7.9-4.15,9.5-.07,.04-.13,.07-.2,.12-2.69,1.56-6.4,1.33-10.5-1.04-12.6-7.27-25.21-14.56-37.82-21.83l-14.85,4.24v-55.74c0-4.73,1.66-8.06,4.35-9.62,.06-.03,.11-.07,.17-.09,2.67-1.46,6.31-1.19,10.34,1.13,12.6,7.28,25.21,14.56,37.82,21.84,8.2,4.73,14.85,16.25,14.85,25.73Z"/><path class="cls-6" d="M548.48,145.16l-17.53-20.21c-.42-.48-.93-.78-1.35-.78-.42,0-.67,.3-.67,.78v20.19c0,.48,.26,1.07,.67,1.56,.21,.24,.44,.44,.67,.57,.23,.13,.46,.21,.67,.21h5.17s0,0,0,0l12.35,.02c.42,0,.68-.3,.68-.78s-.26-1.08-.68-1.56Zm-11.39-.79s0,0,0,0h-5.45v-15.53l13.48,15.54h-8.02Z"/></g></g><path class="cls-3" d="M92.52,328.44c4.81,2.78,4.81,7.28,0,10.06-4.81,2.78-12.62,2.78-17.43,0-4.81-2.78-4.81-7.28,0-10.06s12.62-2.78,17.43,0Z"/><path class="cls-3" d="M713.13,395.84c4.81,2.78,4.81,7.28,0,10.06-4.81,2.78-12.62,2.78-17.43,0-4.81-2.78-4.81-7.28,0-10.06,4.81-2.78,12.62-2.78,17.43,0Z"/><path class="cls-3" d="M266.62,360.13c2.99,1.73,2.99,4.52,0,6.25-2.99,1.73-7.84,1.73-10.83,0-2.99-1.73-2.99-4.52,0-6.25s7.84-1.73,10.83,0Z"/><path class="cls-3" d="M717.49,230.8c2.99,1.73,2.99,4.53,0,6.25-2.99,1.73-7.84,1.73-10.83,0-2.99-1.73-2.99-4.53,0-6.25,2.99-1.73,7.84-1.73,10.83,0Z"/><path class="cls-3" d="M239.02,271.27c2.99,1.73,2.99,4.53,0,6.25-2.99,1.73-7.84,1.73-10.83,0-2.99-1.73-2.99-4.52,0-6.25,2.99-1.73,7.84-1.73,10.83,0Z"/><g><g><ellipse class="cls-4" cx="403.56" cy="465.35" rx="23.98" ry="9.55"/><g><path class="cls-23" d="M410.12,459.91c0,3.62-2.94,6.56-6.56,6.56h0c-3.62,0-6.56-2.94-6.56-6.56v-62.28c0-3.62,2.94-6.56,6.56-6.56h0c3.62,0,6.56,2.94,6.56,6.56v62.28Z"/><path class="cls-8" d="M403.56,413.81c2.27,0,4.46-.3,6.56-.84v-15.34c0-3.62-2.94-6.56-6.56-6.56s-6.56,2.94-6.56,6.56v15.34c2.09,.55,4.29,.84,6.56,.84Z"/><path class="cls-24" d="M443.29,338.8c10.12-3.52,17.39-13.14,17.39-24.46,0-14.3-11.59-25.9-25.9-25.9-2.22,0-4.38,.28-6.44,.81-3.22-10.63-13.1-18.38-24.78-18.38s-21.56,7.74-24.78,18.38c-2.06-.53-4.22-.81-6.44-.81-14.3,0-25.9,11.59-25.9,25.9,0,11.32,7.27,20.94,17.39,24.46-10.12,3.52-17.39,13.14-17.39,24.46,0,14.3,11.59,25.9,25.9,25.9,2.2,0,4.33-.28,6.37-.79,3.13,10.77,13.08,18.65,24.86,18.65s21.73-7.88,24.86-18.65c2.04,.51,4.17,.79,6.37,.79,14.3,0,25.9-11.6,25.9-25.9,0-11.32-7.27-20.94-17.39-24.46Z"/><path class="cls-10" d="M439.68,388.69c4.13-10.85,.48-22.77-8.22-29.59,1.24-1.73,2.28-3.64,3.08-5.71,5.17-13.33-1.44-28.34-14.78-33.51-10.55-4.09-22.15-.8-29.09,7.37,.38-10.71-5.96-20.96-16.52-25.06-9.41-3.65-19.65-1.42-26.67,4.89-.67,2.31-1.04,4.75-1.04,7.27,0,11.32,7.27,20.94,17.39,24.46-10.12,3.52-17.39,13.14-17.39,24.46,0,14.3,11.59,25.9,25.9,25.9,2.2,0,4.33-.28,6.37-.79,3.13,10.77,13.08,18.65,24.86,18.65s21.73-7.88,24.86-18.65c2.04,.51,4.17,.79,6.37,.79,1.67,0,3.31-.16,4.89-.47Z"/><path class="cls-13" d="M460.68,363.26c0-11.32-7.27-20.94-17.39-24.46,4.48-1.56,8.4-4.31,11.37-7.88-7.66-5.4-18-6.45-26.89-1.82-10.04,5.23-15.22,16.12-13.66,26.72-7.8-7.35-19.68-9.36-29.73-4.13-12.68,6.6-17.62,22.24-11.01,34.93,.44,.84,.92,1.63,1.43,2.41,1.33-.13,2.63-.34,3.89-.66,3.13,10.77,13.08,18.65,24.86,18.65s21.73-7.88,24.86-18.65c2.04,.51,4.17,.79,6.37,.79,14.3,0,25.9-11.6,25.9-25.9Z"/></g></g><path class="cls-29" d="M403.56,270.87c-11.69,0-21.56,7.74-24.78,18.38-2.06-.53-4.22-.81-6.44-.81-13.03,0-23.81,9.63-25.62,22.16,0,.03,0,.06-.01,.09-.07,.52-.13,1.04-.17,1.56-.01,.13-.02,.26-.03,.39-.04,.56-.06,1.13-.06,1.7,0,11.32,7.27,20.94,17.39,24.46-10.12,3.52-17.39,13.14-17.39,24.46,0,14.3,11.59,25.9,25.9,25.9,.83,0,1.66-.05,2.47-.13h.01c.63-.06,1.25-.14,1.87-.25,.05,0,.09-.01,.14-.02,.63-.11,1.26-.24,1.88-.39,2.53,8.7,9.51,15.51,18.3,17.8v53.74c0,3.62,2.94,6.56,6.56,6.56v-195.59Z"/></g><g><g><path class="cls-4" d="M309.83,265.11c0,5.27-10.74,9.55-23.98,9.55s-23.98-4.27-23.98-9.55,10.74-9.55,23.98-9.55,23.98,4.27,23.98,9.55Z"/><g><path class="cls-23" d="M292.4,258.56c0,3.62-2.93,6.56-6.56,6.56h0c-3.62,0-6.56-2.94-6.56-6.56v-56.66c0-3.62,2.94-6.56,6.56-6.56h0c3.62,0,6.56,2.94,6.56,6.56v56.66Z"/><path class="cls-8" d="M292.4,228.24v-26.34c0-3.62-2.93-6.56-6.56-6.56s-6.56,2.94-6.56,6.56v26.34h13.12Z"/><polygon class="cls-2" points="285.85 130.3 335 218.66 236.7 218.66 285.85 130.3"/><polygon class="cls-22" points="285.85 87.9 342.86 190.39 228.83 190.39 285.85 87.9"/><polygon class="cls-11" points="285.85 69.16 324.78 139.14 246.92 139.14 285.85 69.16"/></g></g><path class="cls-29" d="M285.85,69.16l-38.93,69.98h10.42l-28.51,51.24h23.59l-15.73,28.27h42.59v39.9c0,3.62,2.94,6.56,6.56,6.56V69.16Z"/></g><g><g><path class="cls-4" d="M203.65,382.89c0,5.27-10.74,9.55-23.98,9.55s-23.98-4.28-23.98-9.55,10.74-9.55,23.98-9.55,23.98,4.27,23.98,9.55Z"/><g><path class="cls-23" d="M186.23,377.45c0,3.62-2.94,6.56-6.56,6.56h0c-3.62,0-6.56-2.94-6.56-6.56v-117.62c0-3.62,2.94-6.56,6.56-6.56h0c3.62,0,6.56,2.94,6.56,6.56v117.62Z"/><path class="cls-8" d="M182.74,342.31c1.52,1.52,1.52,3.97,0,5.49h0c-1.51,1.51-3.97,1.51-5.48,0l-49.38-49.38c-1.51-1.51-1.51-3.97,0-5.48h0c1.51-1.52,3.97-1.52,5.48,0l49.38,49.38Z"/><path class="cls-8" d="M178.54,321.05c-1.52,1.52-1.52,3.97,0,5.48h0c1.51,1.51,3.97,1.51,5.48,0l40.77-40.77c1.52-1.51,1.52-3.97,0-5.48h0c-1.51-1.52-3.97-1.52-5.48,0l-40.77,40.77Z"/><path class="cls-13" d="M217.77,227.97c0,22.22-18.01,40.23-40.23,40.23s-40.23-18.01-40.23-40.23,18.01-40.23,40.23-40.23,40.23,18.01,40.23,40.23Z"/><path class="cls-10" d="M164.52,257.22c0,3.16,.37,6.23,1.06,9.18,3.78,1.17,7.79,1.8,11.95,1.8,22.22,0,40.23-18.01,40.23-40.23,0-3.16-.37-6.23-1.06-9.17-3.78-1.17-7.79-1.81-11.95-1.81-22.22,0-40.23,18.01-40.23,40.23Z"/><path class="cls-24" d="M147.22,210.48c-2.09,0-4.14,.16-6.14,.47-2.42,5.17-3.78,10.94-3.78,17.02,0,22.22,18.01,40.23,40.23,40.23,2.09,0,4.14-.16,6.14-.46,2.42-5.17,3.78-10.94,3.78-17.02,0-22.22-18.01-40.23-40.23-40.23Z"/><path class="cls-13" d="M154.92,298.29c0,13.14-10.65,23.79-23.79,23.79s-23.79-10.65-23.79-23.79,10.65-23.79,23.79-23.79,23.79,10.65,23.79,23.79Z"/><path class="cls-10" d="M123.43,315.59c0,1.87,.22,3.68,.63,5.43,2.23,.69,4.61,1.07,7.07,1.07,13.14,0,23.79-10.65,23.79-23.79,0-1.87-.22-3.68-.63-5.42-2.23-.7-4.61-1.07-7.07-1.07-13.14,0-23.79,10.65-23.79,23.79Z"/><path class="cls-24" d="M113.2,287.95c-1.24,0-2.45,.09-3.63,.28-1.43,3.06-2.23,6.47-2.23,10.07,0,13.14,10.65,23.79,23.79,23.79,1.23,0,2.45-.09,3.63-.28,1.43-3.06,2.23-6.47,2.23-10.07,0-13.14-10.65-23.79-23.79-23.79Z"/><path class="cls-13" d="M242.34,287.97c0,13.14-10.65,23.79-23.79,23.79s-23.79-10.65-23.79-23.79,10.65-23.79,23.79-23.79,23.79,10.65,23.79,23.79Z"/><path class="cls-10" d="M210.86,305.27c0,1.87,.22,3.68,.63,5.42,2.23,.7,4.61,1.07,7.07,1.07,13.14,0,23.79-10.65,23.79-23.79,0-1.87-.22-3.68-.63-5.42-2.23-.69-4.6-1.07-7.07-1.07-13.14,0-23.79,10.65-23.79,23.79Z"/><path class="cls-24" d="M200.62,277.63c-1.23,0-2.45,.09-3.63,.28-1.43,3.06-2.24,6.47-2.24,10.07,0,13.14,10.65,23.79,23.79,23.79,1.23,0,2.45-.1,3.63-.28,1.43-3.06,2.23-6.47,2.23-10.06,0-13.14-10.65-23.79-23.79-23.79Z"/></g></g><path class="cls-29" d="M177.53,187.74c-16.87,0-31.31,10.39-37.28,25.11-.03,.06-.05,.12-.07,.18-.23,.58-.45,1.16-.66,1.75-.04,.11-.08,.23-.12,.34-.18,.54-.35,1.09-.51,1.64-.05,.15-.09,.31-.13,.46-.14,.51-.27,1.03-.39,1.55-.04,.19-.09,.38-.13,.57-.11,.49-.2,.99-.29,1.49-.04,.21-.08,.43-.12,.64-.08,.49-.14,.98-.21,1.47-.03,.23-.06,.45-.09,.68-.05,.51-.09,1.02-.13,1.54-.01,.21-.04,.41-.05,.62-.04,.72-.06,1.45-.06,2.18,0,18.06,11.9,33.34,28.28,38.43h0c.57,.18,1.15,.34,1.73,.49,.15,.04,.3,.08,.46,.11,.45,.11,.91,.22,1.36,.31,.16,.03,.32,.07,.48,.1,1.15,.23,2.32,.41,3.5,.54v64.72l-21.8-21.8c2.28-3.65,3.61-7.96,3.61-12.59,0-.45-.02-.89-.04-1.33,0-.09-.01-.18-.02-.26-.02-.37-.06-.73-.1-1.1,0-.06-.02-.12-.02-.19-.05-.4-.11-.79-.18-1.19,0-.02,0-.05-.01-.07-1.96-11.16-11.7-19.65-23.42-19.65-9.98,0-18.52,6.15-22.05,14.86-.01,.03-.02,.06-.04,.09-.14,.35-.27,.7-.39,1.06-.02,.06-.04,.12-.06,.18-.11,.33-.21,.66-.31,.99-.02,.09-.05,.17-.07,.25-.09,.31-.16,.62-.24,.94-.02,.11-.05,.21-.07,.32-.06,.29-.12,.6-.18,.9-.02,.12-.04,.24-.06,.37-.05,.29-.09,.58-.12,.88-.02,.13-.04,.26-.05,.39-.03,.3-.06,.61-.08,.91,0,.12-.02,.24-.03,.37-.02,.43-.04,.86-.04,1.29,0,11.23,7.78,20.63,18.25,23.13,.12,.03,.24,.06,.36,.08,1.03,.23,2.08,.39,3.16,.48,.13,0,.26,.02,.4,.03,.54,.04,1.08,.06,1.63,.06s1.1-.03,1.64-.06c.13,0,.26-.02,.39-.03,4.92-.42,9.42-2.32,13.03-5.28l26.94,26.94v33.8c0,3.62,2.94,6.56,6.56,6.56l-2.14-196.26Z"/></g></g></g></svg>